<svg xmlns="http://www.w3.org/2000/svg" xml:space="preserve" width="700.01843" height="700" viewBox="0 0 700.01845 699.99998"><path d="M321.269 427.578c-42.016 0-76.086-34.065-76.086-76.089s34.07-76.093 76.086-76.093c40.601 0 76.1 35.5 76.1 76.093 0 42.024-34.061 76.09-76.1 76.09" style="fill:#003893;fill-opacity:1;fill-rule:nonzero;stroke:none" transform="matrix(4.59976 0 0 -4.59976 -1127.782 1966.755)"/><path d="M321.334 277.848c-40.724 0-73.743 33.015-73.743 73.742 0 40.722 33.019 73.745 73.743 73.745s73.726-33.023 73.726-73.745c0-39.329-34.4-73.742-73.726-73.742" style="fill:#fff;fill-opacity:1;fill-rule:nonzero;stroke:none" transform="matrix(4.59976 0 0 -4.59976 -1127.782 1966.755)"/><path d="M0 0c-.168 7.329-7.046 7.04-7.046 7.04-7.478-.33-7.04-7.04-7.04-7.04.835-7.701 7.04-7.046 7.04-7.046C.32-7.046 0 0 0 0m-7.046-5.137s-4.291.203-4.839 5.137c0 0-.228 4.517 4.839 5.131 0 0 5.148-.742 4.858-5.131 0 0 .481-4.798-4.858-5.137" style="fill:#00a755;fill-opacity:1;fill-rule:nonzero;stroke:none" transform="matrix(4.59976 0 0 -4.59976 345.598 66.144)"/><path d="m0 0 5.602-11.144h1.935L9.035 2.431H7.123L5.884-7.253.343 3.426h-1.911l-1.496-13.585h2.159z" style="fill:#00a755;fill-opacity:1;fill-rule:nonzero;stroke:none" transform="matrix(4.59976 0 0 -4.59976 372.626 49.52)"/><path d="m0 0 2.965 3.146 4.763-1.91.104-4.213 2.106-.912.088 14.527-1.825.958L-1.905.874Zm7.99 8.484-.294-5.045-3.222 1.578Z" style="fill:#00a755;fill-opacity:1;fill-rule:nonzero;stroke:none" transform="matrix(4.59976 0 0 -4.59976 419.504 104.24)"/><path d="m0 0-3.771 2.315 5.808 10.06-1.706 1.248-6.877-11.884 5.595-3.232Z" style="fill:#00a755;fill-opacity:1;fill-rule:nonzero;stroke:none" transform="matrix(4.59976 0 0 -4.59976 497.785 131.843)"/><path d="m0 0 8.664 7.824-1.406 1.365-7.862-7.118s-1.781-.662-2.571.706c0 0-1.119 1.119-.326 2.235l7.283 7.576-1.406 1.482-7.836-7.691s-1.683-2.316.546-4.721C-4.914 1.658-2.8-1.117 0 0" style="fill:#00a755;fill-opacity:1;fill-rule:nonzero;stroke:none" transform="matrix(4.59976 0 0 -4.59976 554.873 179.853)"/><path d="m0 0 8.572 5.628L3.69-5.593l.997-1.362L16.201.251l-1.003 1.78-8.361-5.345 4.511 10.765-1.074 1.652-11.435-7.532Z" style="fill:#00a755;fill-opacity:1;fill-rule:nonzero;stroke:none" transform="matrix(4.59976 0 0 -4.59976 561.005 203.656)"/><path d="m0 0 12.712 5.012-.7 1.819L-.87 1.744Z" style="fill:#00a755;fill-opacity:1;fill-rule:nonzero;stroke:none" transform="matrix(4.59976 0 0 -4.59976 589.789 254.905)"/><path d="m0 0 14.734-1.041-.035 1.74-11.131.911 8.561 6.331-.709 2.076L-.252 1.072Z" style="fill:#00a755;fill-opacity:1;fill-rule:nonzero;stroke:none" transform="matrix(4.59976 0 0 -4.59976 599.882 286.69)"/><path d="m0 0 2.036-.04-.252 5.215 3.971.247.41-5.135 1.917.127-.378 5.008 4.049.418.178-5.138 2.028.041-.578 7.294-13.8-1.118Z" style="fill:#00a755;fill-opacity:1;fill-rule:nonzero;stroke:none" transform="matrix(4.59976 0 0 -4.59976 607.285 345.372)"/><path d="M0 0s-2.085.369-3.983-2.764c0 0-.861-2.337-3.531-.839 0 0-1.96 1.338.319 3.418l2.2.118-.067 2.111-2.452-.092s-2.894-.743-2.769-4.062c0 0-.209-4.042 4.63-4.131 0 0 2.386-.13 3.568 2.262 0 0 .81 2.02 1.992 2.02 0 0 1.751.01 2.015-1.707 0 0 .441-2.454-2.673-1.895l-.023-1.892S3.692-8.51 3.881-3.639c0 0 .317 3.202-3.881 3.639" style="fill:#00a755;fill-opacity:1;fill-rule:nonzero;stroke:none" transform="matrix(4.59976 0 0 -4.59976 643.256 416.31)"/><path d="m0 0 12.568-5.467 1.156 1.704L.737 1.896Z" style="fill:#00a755;fill-opacity:1;fill-rule:nonzero;stroke:none" transform="matrix(4.59976 0 0 -4.59976 584.866 454.873)"/><path d="m0 0-10.25 5.649-1.119-1.58 10.343-6.048-1.369-2.061 1.677-.951L2.985.863 1.378 2.078Z" style="fill:#00a755;fill-opacity:1;fill-rule:nonzero;stroke:none" transform="matrix(4.59976 0 0 -4.59976 623.829 496.607)"/><path d="m0 0-1.33-1.452 4.005-3.042 4.284-8.664 1.461 1.546-3.229 6.439 7.168-1.495 1.152 1.526-9.348 1.929z" style="fill:#00a755;fill-opacity:1;fill-rule:nonzero;stroke:none" transform="matrix(4.59976 0 0 -4.59976 555.106 502.209)"/><path d="m0 0 2.297 7.54L.558 9.465l-2.312-7.95-8.499-.097L-8.95-.437l8.476-.067-5.245-4.069 1.075-1.647L6.423 2.079 5.152 3.592Z" style="fill:#00a755;fill-opacity:1;fill-rule:nonzero;stroke:none" transform="matrix(4.59976 0 0 -4.59976 125.313 525.144)"/><path d="m0 0-10.243-1.707 8.959 7.951-.266 2.21-13.658-2.27.266-1.951 9.972 1.553-8.723-7.829.238-2.15L.223-2.265z" style="fill:#00a755;fill-opacity:1;fill-rule:nonzero;stroke:none" transform="matrix(4.59976 0 0 -4.59976 99.133 406.202)"/><path d="M0 0c7.815.369 7.05 7.04 7.05 7.04.271 6.393-6.654 6.835-6.654 6.835l-.712-8.387 1.899-.277.553 5.961c3.546-.864 2.987-4.251 2.987-4.251C4.222 1.698-.283 2.23-.283 2.23c-5.155.623-4.845 4.747-4.845 4.747.378 3.361 2.03 3.761 2.03 3.761l.173 2.393c-4.814-1.274-4.416-6.307-4.416-6.307C-6.304-.284 0 0 0 0" style="fill:#00a755;fill-opacity:1;fill-rule:nonzero;stroke:none" transform="matrix(4.59976 0 0 -4.59976 61.868 357.006)"/><path d="M0 0s.373-1.95-1.958-1.549l-.521-1.929 1.857-.03s2.431.03 2.652 3.396c0 0 .456 2.289-2.547 3.781l-10.038 3.104-.618-1.952 9.467-3.109S.095 1.402 0 0" style="fill:#00a755;fill-opacity:1;fill-rule:nonzero;stroke:none" transform="matrix(4.59976 0 0 -4.59976 95.544 273.488)"/><path d="M0 0s2.306 3.051-.49 5.717l-9.667 5.06-.962-1.767 8.88-4.749s2.026-1.091.375-3.14c0 0-.558-1.867-3.158-.403l-8.269 4.25-.897-1.771 9.215-4.905S-1.549-2.731 0 0" style="fill:#00a755;fill-opacity:1;fill-rule:nonzero;stroke:none" transform="matrix(4.59976 0 0 -4.59976 120.69 237.053)"/><path d="m0 0-6.989 7.302L5.154 4.629 6.271 5.81l-9.468 9.784-1.339-1.213 6.801-7.298-11.853 2.698-1.346-1.364 9.451-9.85z" style="fill:#00a755;fill-opacity:1;fill-rule:nonzero;stroke:none" transform="matrix(4.59976 0 0 -4.59976 157.12 179.337)"/><path d="m0 0-.84 4.21 4.291 2.61 3.651-2.449L8.82 5.462l-11.837 8.721-1.673-.989 2.822-14.381Zm1.838 8.158-3.251-1.919-1.018 4.996z" style="fill:#00a755;fill-opacity:1;fill-rule:nonzero;stroke:none" transform="matrix(4.59976 0 0 -4.59976 197.148 144.73)"/><path d="m0 0 4.845-10.808 2.022.894L2.02.771l2.264 1.181-.804 1.675L-2.984.616l.755-1.576Z" style="fill:#00a755;fill-opacity:1;fill-rule:nonzero;stroke:none" transform="matrix(4.59976 0 0 -4.59976 220.982 68.466)"/><path d="m0 0-3.639 13.224-2.206-.619L-2.237-.688Z" style="fill:#00a755;fill-opacity:1;fill-rule:nonzero;stroke:none" transform="matrix(4.59976 0 0 -4.59976 277.994 106.032)"/><path d="m0 0-.146-2.16 5.799-.615-6.614-3.732-.087-2.365L4.69-5.95c-.119-4.41 4.631-4.16 4.631-4.16 4.355.057 4.311 5.716 4.311 5.716l.198 2.822zm8.851-8.188S5.437-8.37 6.438-2.937l5.27-.496s.338-4.571-2.857-4.755" style="fill:#00a755;fill-opacity:1;fill-rule:nonzero;stroke:none" transform="matrix(4.59976 0 0 -4.59976 608.812 357.38)"/><path d="M0 0c7.701.158 7.513 7.209 7.513 7.209-.086 6.707-7.367 6.952-7.367 6.952-7.61-1.024-7.053-7.234-7.053-7.234C-6.37-.374 0 0 0 0m-4.788 6.84s-.12 4.378 5 5.12c0 0 4.602.098 5.09-4.729 0 0 .296-4.715-5.276-5.055 0 0-4.438-.032-4.814 4.664" style="fill:#00a755;fill-opacity:1;fill-rule:nonzero;stroke:none" transform="matrix(4.59976 0 0 -4.59976 85.006 497.614)"/><path d="M0 0c20.186 1.045 32.431 8.741 39.885 17.825l-80.663-.042C-25.476-1.449 0 0 0 0m8.823 12.506s-.12 2.859 2.937 2.695c0 0 2.702.289 2.903-2.735 0 0 .207-1.234-.986-1.989 0 0 1.609-1.113 1.483-2.893 0 0 .126-3.19-3.306-3.407 0 0-3.195-.121-3.479 3.323 0 0-.086 2.153 1.446 2.811 0 0-1.118.545-.998 2.195m-9.646-4.84 4.722 7.337h1.575V7.584h1.154V6.169H5.509V4.56H4.177v1.609h-5zm-3.894 7.609s3.73.099 3.73-4.083c0 0-.746-2.657-4.013-6.681h-1.537l1.988 3.278s-4.139-.289-4.022 3.765c0 0 .118 3.931 3.854 3.721m-5.403-.054V4.54h-1.609v9.248h-1.867l-.065 1.433z" style="fill:#003893;fill-opacity:1;fill-rule:nonzero;stroke:none" transform="matrix(4.59976 0 0 -4.59976 350.525 582.332)"/><path d="M0 0c-51.176-3.486-51.931-50.69-51.931-50.69.702-12.673 3.993-22.159 8.592-29.301l85.917.042C51.832-66.1 51.436-50.69 51.436-50.69 48.947 0 0 0 0 0m-.238-1.992 30.383-29.236h-6.376L-.403-8.198l-24.112-23.197h-6.041zM17.65-31.228h-36.029L-.326-14.085zm20.987-44.919h-77.764v3.595h77.764zm-59.439 23.59 5.645 11.812c-.12-1.181 2.201-1.372 2.201-1.372.81-.246 1.476.628 1.476.628.56-2.556-2.116-4.6-2.116-4.6-.647-1.182-3.038.117-3.038.117l-2.491-6.393c2.12-.441 3.116-5.958 3.116-5.958 1.541-5.841 2.603-6.65 2.603-6.65.681-1.434 2.426-.8 2.426-.8-1.307-1.504-2.681-4.728-2.681-4.728-3.29-.933-4.529 6.953-4.529 6.953-.868 5.158-2.612 7.577-2.612 7.577-.428-7.943-4.045-6.707-4.045-6.707 1.867.686.817 14.788.817 14.788.678 5.839 4.092 5.839 4.092 5.839-1.862-1.057-.864-10.506-.864-10.506m-8.393-4.402s-.67 1.114-2.597-1.115c0 0-1.812 5.401 2.54 5.152l.195 1.987s.426 3.284 3.908 4.473c0 0-.693-1.492-.612-2.423l-.135-11.251s-.867-5.08-4.226-4.837c0 0 1.558 1.059.927 8.014m10.137-9.253.43.306.743-.617s-2.732-3.297-3.046-4.232c0 0-.808.254-1.366.935 0 0-2.787 2.612-9.374-.125 0 0 5.029 9.381 12.613 3.733m-7.644 21.304s-1.929.055-2.984.617c0 0-.436.5-3.037-.562 0 0 .614 4.726 4.785 4.17 0 0 3.35-1.368 4.72-.557 0 0-.509-3.552-3.484-3.668m18.998-13.607s-.749-.44-.749 2.544c0 0 .084 2.802 2.684 2.426v8.513s-1.867 1.612-3.484-2.428c0 0-.867-.061-.437 3.169 0 0 1.002 3.546 3.921 3.359 0 0 4.41 1.422 7.948-10.064 0 0 .724-3.108 4.472-.872v5.591s-1.544.063-1.846.622c0 0-.775 1.18-1.937.306 0 0 .674 1.434 3.163 4.417 0 0 2.761-2.738 5.278-.44 0 0 1.367-2.919-3.349-4.842v-24.343s-2.857-.877-6.22 10.421c0 0-3.287 2.626-6.271.126l-.186-4.716s2.865.126 4.546-1.866l.42.561.751-.756-2.918-4.022s-3.727 3.907-8.266.743c0 0 .316 4.223 4.351 5.023v7.585s-1.673.442-1.871-1.057m29.765-7.083v24.853h1.051v-4.667l4.722 4.346s2.047-3.908 3.603-2.102c0 0 .683-1.556-1.808-3.109l-.047-17.761s.047-2.749 2.657-1.926l-2.424-4.593s-2.414-.309-3.465 4.345c0 0-3.795-2.551-5.289-4.543 0 0-4.311 4.103-7.574 1.558 0 0-.131 3.166 3.851 4.727l-.067 7.693s-1.798 1.182-2.541-1.119c0 0-.501.251-.681 2.234 0 0-.067 3.733 3.222 3.051v5.34s-1.607 5.089-5.343.124c0 0-.866 6.328 4.593 6.215 0 0 3.926.369 4.164-5.402l-.063-18.639s1.182-.07 1.439-.625m20.186 27.203h-84.852v3.232h84.852z" style="fill:#003893;fill-opacity:1;fill-rule:nonzero;stroke:none" transform="matrix(4.59976 0 0 -4.59976 350.525 116.032)"/><path d="m0 0-7.29 7.039-7.123-7.123z" style="fill:#003893;fill-opacity:1;fill-rule:nonzero;stroke:none" transform="matrix(4.59976 0 0 -4.59976 382.558 240.23)"/><path d="M0 0c-3.164 11.669-5.781 12.605-5.781 12.605L-5.717-.38C-3.723 1.362 0 0 0 0" style="fill:#003893;fill-opacity:1;fill-rule:nonzero;stroke:none" transform="matrix(4.59976 0 0 -4.59976 355.125 383.159)"/><path d="M0 0c-1.614-1.059-3.667-.249-3.667-.249C-2.239-6.771 0-9.933 0-9.933Z" style="fill:#003893;fill-opacity:1;fill-rule:nonzero;stroke:none" transform="matrix(4.59976 0 0 -4.59976 381.12 361.768)"/><path d="M0 0v4.907c-.813.559-1.369 1.422-1.369 1.422l-1.737-1.485V.431C-2.486-.747 0 0 0 0" style="fill:#003893;fill-opacity:1;fill-rule:nonzero;stroke:none" transform="matrix(4.59976 0 0 -4.59976 471.417 351.176)"/><path d="m0 0-.067 5.648s-1.425-.683-3.17-.06V0S-1.996.736 0 0" style="fill:#003893;fill-opacity:1;fill-rule:nonzero;stroke:none" transform="matrix(4.59976 0 0 -4.59976 471.727 383.159)"/><path d="m0 0 .097 5.371c-1.094 1.049-3.303.037-3.303.037l.17-7.206C-3.036-2.36 0 0 0 0" style="fill:#003893;fill-opacity:1;fill-rule:nonzero;stroke:none" transform="matrix(4.59976 0 0 -4.59976 471.094 413.753)"/><path d="M0 0c2.439.364 2.206 2.194 2.206 2.194C2.035 4.382 0 4.426 0 4.426c-2.025.253-2.228-2.195-2.228-2.195C-2.321.158 0 0 0 0" style="fill:#003893;fill-opacity:1;fill-rule:nonzero;stroke:none" transform="matrix(4.59976 0 0 -4.59976 328.64 539.829)"/><path d="M0 0h3.058v5.085L0 .578Z" style="fill:#003893;fill-opacity:1;fill-rule:nonzero;stroke:none" transform="matrix(4.59976 0 0 -4.59976 355.35 547.447)"/><path d="M0 0c1.376.032 1.331 1.366 1.331 1.366C1.376 2.693 0 2.899 0 2.899c-1.605-.206-1.354-1.485-1.354-1.485C-1.481.009 0 0 0 0" style="fill:#003893;fill-opacity:1;fill-rule:nonzero;stroke:none" transform="matrix(4.59976 0 0 -4.59976 404.617 531.644)"/><path d="M0 0c2.08.467 1.823 2.106 1.823 2.106C1.704 4.021-.035 3.941-.035 3.941c-1.784.04-1.818-1.783-1.818-1.783C-2.016.29 0 0 0 0" style="fill:#003893;fill-opacity:1;fill-rule:nonzero;stroke:none" transform="matrix(4.59976 0 0 -4.59976 404.617 556.997)"/><path d="m0 0 2.07 4.353S2.753 5.79 1 6.674c-1.751.887-7.874 3.753-7.874 3.753l-.696-1.465L.365 5.189-1.715.815l-3.238 1.539 1.223 2.573-1.673.796-1.223-2.574-3.753 1.785-.693-1.458L.08-1.825.772-.368Z" style="fill:#00a755;fill-opacity:1;fill-rule:nonzero;stroke:none" transform="matrix(4.59976 0 0 -4.59976 237.609 602.447)"/><path d="m0 0 2.07 4.353S2.753 5.79 1 6.674c-1.751.887-7.874 3.753-7.874 3.753l-.696-1.465L.365 5.189-1.715.815l-3.238 1.539 1.223 2.573-1.673.796-1.223-2.574-3.753 1.785-.693-1.458L.08-1.825.772-.368Z" style="fill:none;stroke:#00a755;stroke-width:.2;stroke-linecap:butt;stroke-linejoin:miter;stroke-miterlimit:10;stroke-dasharray:none;stroke-opacity:1" transform="matrix(4.59976 0 0 -4.59976 237.609 602.447)"/><path d="M0 0c-2.808 1.336-5.791.929-6.664-.907-.872-1.835.695-4.405 3.503-5.74 2.806-1.333 5.789-.929 6.662.907C4.374-3.904 2.806-1.333 0 0m-2.529-5.317c-1.865.885-2.951 2.498-2.429 3.599.524 1.101 2.46 1.277 4.326.39 1.864-.888 2.952-2.5 2.428-3.602-.523-1.1-2.46-1.275-4.325-.387" style="fill:#00a755;fill-opacity:1;fill-rule:nonzero;stroke:#00a755;stroke-width:.2;stroke-linecap:butt;stroke-linejoin:miter;stroke-miterlimit:10;stroke-dasharray:none;stroke-opacity:1" transform="matrix(4.59976 0 0 -4.59976 209.561 604.472)"/><path d="m0 0 .817-1.564 8.07 4.21 4.358-8.351 1.647.864-4.478 8.579s-.611 1.425-2.131.593z" style="fill:#00a755;fill-opacity:1;fill-rule:nonzero;stroke:none" transform="matrix(4.59976 0 0 -4.59976 448.795 578.675)"/><path d="m0 0-3.456 6.62-1.636-.854 3.454-6.62-1.76-.919-3.454 6.62-1.636-.855 3.454-6.618-1.987-1.037.724-1.39L4.42.54l-.727 1.389Z" style="fill:#00a755;fill-opacity:1;fill-rule:nonzero;stroke:none" transform="matrix(4.59976 0 0 -4.59976 506.652 616.884)"/><path d="m0 0-11.609 3.141-.418-1.543 4.875-1.32-1.44-5.324 1.767-.478 1.441 5.325 4.966-1.344z" style="fill:#00a755;fill-opacity:1;fill-rule:nonzero;stroke:none" transform="matrix(4.59976 0 0 -4.59976 299.685 635.633)"/><path d="m0 0-11.609 3.141-.418-1.543 4.875-1.32-1.44-5.324 1.767-.478 1.441 5.325 4.966-1.344z" style="fill:none;stroke:#00a755;stroke-width:.2;stroke-linecap:butt;stroke-linejoin:miter;stroke-miterlimit:10;stroke-dasharray:none;stroke-opacity:1" transform="matrix(4.59976 0 0 -4.59976 299.685 635.633)"/><path d="m0 0 4.275-1.156.412 1.52-10.179 2.755-.41-1.521L-1.746.474c-.167-.666-1.087-3.092-5.573-2.75l.126-1.604s3.422-.189 5.484 1.222c0 0 1.148-2.44 4.469-4.01l.844 1.402S-.994-3.12 0 0" style="fill:#00a755;fill-opacity:1;fill-rule:nonzero;stroke:#00a755;stroke-width:.2;stroke-linecap:butt;stroke-linejoin:miter;stroke-miterlimit:10;stroke-dasharray:none;stroke-opacity:1" transform="matrix(4.59976 0 0 -4.59976 285.531 596.468)"/><path d="M0 0v-6.338h-1.185V0h-1.802v-11.394h-4.598v9.867h3.359L-4.234.008h-5.114v-11.189s-.03-1.762 1.459-1.732h4.902v-2.911h1.802v7.798H0v-7.798h1.802V0Z" style="fill:#00a755;fill-opacity:1;fill-rule:nonzero;stroke:none" transform="matrix(4.59976 0 0 -4.59976 362.128 597.12)"/><path d="M0 0v-6.338h-1.185V0h-1.802v-11.394h-4.598v9.867h3.359L-4.234.008h-5.114v-11.189s-.03-1.762 1.459-1.732h4.902v-2.911h1.802v7.798H0v-7.798h1.802V0Z" style="fill:none;stroke:#00a755;stroke-width:.2;stroke-linecap:butt;stroke-linejoin:miter;stroke-miterlimit:10;stroke-dasharray:none;stroke-opacity:1" transform="matrix(4.59976 0 0 -4.59976 362.128 597.12)"/><path d="m0 0-1.418-.396-1.119 4-1.808-.504L-1.49-7.099l1.806.505-1.26 4.505 1.418.398z" style="fill:#00a755;fill-opacity:1;fill-rule:nonzero;stroke:none" transform="matrix(4.59976 0 0 -4.59976 445.23 596.94)"/><path d="m0 0-1.418-.396-1.119 4-1.808-.504L-1.49-7.099l1.806.505-1.26 4.505 1.418.398z" style="fill:none;stroke:#00a755;stroke-width:.2;stroke-linecap:butt;stroke-linejoin:miter;stroke-miterlimit:10;stroke-dasharray:none;stroke-opacity:1" transform="matrix(4.59976 0 0 -4.59976 445.23 596.94)"/><path d="m0 0-.4 1.428-1.807-.506.4-1.429-3.282-.918.442-1.577 8.359 2.34L3.271.914z" style="fill:#00a755;fill-opacity:1;fill-rule:nonzero;stroke:none" transform="matrix(4.59976 0 0 -4.59976 407.37 592.955)"/><path d="m0 0-.4 1.428-1.807-.506.4-1.429-3.282-.918.442-1.577 8.359 2.34L3.271.914z" style="fill:none;stroke:#00a755;stroke-width:.2;stroke-linecap:butt;stroke-linejoin:miter;stroke-miterlimit:10;stroke-dasharray:none;stroke-opacity:1" transform="matrix(4.59976 0 0 -4.59976 407.37 592.955)"/><path d="M0 0c-2.153-.603-3.477-2.602-2.954-4.464.519-1.862 2.688-2.884 4.842-2.282 2.152.603 3.474 2.601 2.954 4.464C4.32-.419 2.152.604 0 0m1.506-5.379c-1.189-.332-2.402.296-2.712 1.404-.311 1.109.4 2.276 1.589 2.608 1.186.332 2.4-.297 2.711-1.404.308-1.109-.402-2.276-1.588-2.608" style="fill:#00a755;fill-opacity:1;fill-rule:nonzero;stroke:#00a755;stroke-width:.2;stroke-linecap:butt;stroke-linejoin:miter;stroke-miterlimit:10;stroke-dasharray:none;stroke-opacity:1" transform="matrix(4.59976 0 0 -4.59976 405.682 603.13)"/><path d="m0 0 .431-1.539L9.089.884l1.147-4.102 1.875.527-1.151 4.114s-.336 1.595-2.064 1.075z" style="fill:#00a755;fill-opacity:1;fill-rule:nonzero;stroke:none" transform="matrix(4.59976 0 0 -4.59976 399.03 643.251)"/><path d="m0 0 .431-1.539L9.089.884l1.147-4.102 1.875.527-1.151 4.114s-.336 1.595-2.064 1.075z" style="fill:none;stroke:#00a755;stroke-width:.2;stroke-linecap:butt;stroke-linejoin:miter;stroke-miterlimit:10;stroke-dasharray:none;stroke-opacity:1" transform="matrix(4.59976 0 0 -4.59976 399.03 643.251)"/><path d="M0 0a1.864 1.864 0 1 0-3.728 0A1.864 1.864 0 0 0 0 0" style="fill:#00a755;fill-opacity:1;fill-rule:nonzero;stroke:none" transform="matrix(4.59976 0 0 -4.59976 556.144 564.651)"/><path d="M0 0a1.864 1.864 0 1 0-3.728 0A1.864 1.864 0 0 0 0 0" style="fill:#00a755;fill-opacity:1;fill-rule:nonzero;stroke:none" transform="matrix(4.59976 0 0 -4.59976 163.431 564.651)"/></svg>