<svg xmlns="http://www.w3.org/2000/svg" width="351.1174mm" height="200mm" viewBox="0 0 351.1174 200"><path d="M39.65 123.422v46.617c0 6.356-4.434 7.433-8.065 7.433H11.611c-3.63 0-8.059-1.077-8.059-7.433v-46.617h-16.584v45.833c0 15.096 8.338 22.514 21.208 22.514H35.01c12.883 0 21.22-7.418 21.22-22.514v-45.833zM116.852 150.676h-15.218c-.023 0-.05.007-.074.008H90.083c-2.845 0-7.436-.35-7.436-6.58 0-6.216 4.59-6.58 7.436-6.58h42.284c0-8.446-6.562-13.945-15.913-13.945H83.95c-9.243 0-16.949 4.609-16.949 15.34v9.633c0 10.71 7.205 16.079 18.441 16.079H97.74c.03 0 .048-.005.082-.005h12.485c2.839 0 7.433.356 7.433 6.585 0 6.217-4.594 6.58-7.433 6.58H67.001c0 7.622 6.321 13.944 13.057 13.944h35.566c7.261 0 17.757-1.813 17.757-15.83V165.27c0-10.72-7.272-14.595-16.53-14.595M205.314 123.59h-66.309v14.05h25.528v54.144h17.199V137.64h23.582z" style="fill:#ef4130;fill-opacity:1;fill-rule:nonzero;stroke:none;stroke-width:1.65171" transform="translate(108.64 -28.114)"/><path d="M-53.124 99.526c0 5.187-4.202 9.393-9.397 9.393-5.189 0-9.397-4.206-9.397-9.393 0-5.19 4.208-9.394 9.397-9.394a9.392 9.392 0 0 1 9.397 9.394" style="fill:#a7a9ac;fill-opacity:1;fill-rule:nonzero;stroke:none;stroke-width:1.65171" transform="translate(108.64 -28.114)"/><path d="M.658 72.918c0 5.187-4.205 9.393-9.396 9.393-5.19 0-9.397-4.206-9.397-9.393s4.208-9.393 9.397-9.393c5.19 0 9.396 4.206 9.396 9.393M-26.067 99.56c0 5.186-4.208 9.39-9.402 9.39-5.186 0-9.386-4.204-9.386-9.39 0-5.186 4.2-9.394 9.386-9.394 5.194 0 9.402 4.208 9.402 9.395" style="fill:#ef4130;fill-opacity:1;fill-rule:nonzero;stroke:none;stroke-width:1.65171" transform="translate(108.64 -28.114)"/><path d="M.658 99.56c0 5.186-4.205 9.39-9.396 9.39-5.19 0-9.397-4.204-9.397-9.39 0-5.186 4.208-9.394 9.397-9.394a9.395 9.395 0 0 1 9.396 9.395M26.877 99.56c0 5.186-4.207 9.39-9.398 9.39-5.187 0-9.395-4.204-9.395-9.39 0-5.186 4.208-9.394 9.395-9.394 5.191 0 9.398 4.208 9.398 9.395" style="fill:#a7a9ac;fill-opacity:1;fill-rule:nonzero;stroke:none;stroke-width:1.65171" transform="translate(108.64 -28.114)"/><path d="M-26.067 126.196c0 5.19-4.208 9.393-9.402 9.393-5.186 0-9.386-4.202-9.386-9.393 0-5.181 4.2-9.392 9.386-9.392 5.194 0 9.402 4.21 9.402 9.392" style="fill:#ef4130;fill-opacity:1;fill-rule:nonzero;stroke:none;stroke-width:1.65171" transform="translate(108.64 -28.114)"/></svg>