<svg xmlns="http://www.w3.org/2000/svg" xml:space="preserve" width="900" height="900" viewBox="0 0 899.99998 899.99999"><defs><radialGradient id="a" cx="0" cy="0" r="1" fx="0" fy="0" gradientTransform="matrix(47.9909 0 0 -47.9909 316.276 374.043)" gradientUnits="userSpaceOnUse" spreadMethod="pad"><stop offset="0" style="stop-opacity:1;stop-color:#d1eefc"/><stop offset="0.443817" style="stop-opacity:1;stop-color:#00b2eb"/><stop offset="0.820221" style="stop-opacity:1;stop-color:#005c8e"/><stop offset="1" style="stop-opacity:1;stop-color:#005c8e"/></radialGradient></defs><path d="M170.382 155.287c0-186.1 151.41-337.51 337.51-337.51 186.102 0 337.49 151.41 337.49 337.51 0 186.084-151.388 337.49-337.49 337.49-186.1 0-337.51-151.406-337.51-337.49" style="fill:#666;fill-opacity:1;fill-rule:nonzero;stroke:none;stroke-width:2.11613" transform="matrix(1.33333 0 0 -1.33333 -227.176 657.037)"/><path d="M178.816 155.287c0 181.442 147.63 329.077 329.075 329.077 181.447 0 329.058-147.635 329.058-329.077 0-181.46-147.61-329.1-329.058-329.1-181.445 0-329.075 147.64-329.075 329.1" style="fill:#fff;fill-opacity:1;fill-rule:nonzero;stroke:none;stroke-width:2.11613" transform="matrix(1.33333 0 0 -1.33333 -227.176 657.037)"/><path d="M507.893 470.028c-173.832 0-314.743-140.915-314.743-314.75 0-173.817 140.911-314.752 314.743-314.752 173.808 0 314.724 140.935 314.724 314.751 0 173.836-140.916 314.751-314.724 314.751zm-24.61-30.034 21.984-.143c.804-.122 3.343-.69 3.751-3.087l-.009-2.533-.18-27.95 2.099-.035c1.83.296 2.24 1.755 2.346 2.523l.165 28.048c-.216.933-1.113 1.28-1.113 1.28l-.022.025a.857.857 0 0 0-.57.809c0 .459.378.855.812.855h1.224l6.624-.056-.133-17.882 4.535-.035-.053-5.61-4.522.034-.174-26.002-6.918.05.065 10.332-31.516.207.038 5.599 6.357-.031.137 17.04 6.893-.066-.102-17.02 6.903-.044.186 27.976-18.855.118zm63.905-3.23 2.843-.614 3.912-.877 10.61-2.278-1.18-5.478-10.608 2.3-5.98-27.632 13.562-2.926 6.59 30.295c-.066.876-.81 1.382-.81 1.382v.031c-.302.15-.483.505-.418.912.115.438.55.746.992.657l.843-.202.335-.065 6.43-1.41-3.755-17.316 3.463-.756 3.15 14.492c-.052.918-.832 1.453-.832 1.453a.82.82 0 0 0-.412.912c.104.48.553.746 1.008.67l.83-.19.329-.065 6.463-1.392-10.496-48.4-6.776 1.466 5.53 25.577-3.44.765-5.168-23.757-6.751 1.479 1.221 5.71c.23 2.023-1.748 2.68-1.748 2.68l.065.07-11.395 2.448-3.298.725c-.925.396-2.98 1.556-2.808 3.857zm-90.187-3.242c1.033-.024 3.162-.353 3.89-2.378l.456-2.56 2.067-12.149 4.275.713.94-5.49-13.138-2.266c6.626-1.083 11.864-5.28 12.84-11.05 1.324-7.746-5.488-15.414-15.226-17.077-9.743-1.647-18.712 3.296-20.05 11.041-.996 5.762 2.55 11.479 8.435 14.712l-13.066-2.25-.958 5.511 15.412 2.65-1.382 8.02 7.253 1.227 1.377-8.022 6.469 1.131-2.083 12.136-24.761-4.228-.933 5.496zm159.631-12.688a.713.713 0 0 0 .32-.062l.874-.372.217-.108 6.552-2.753-1.49-3.481 9.835-4.163.155-.056 1.795-.744.514-.217 5.884-2.486-4.82-11.46 4.094-1.742-2.17-5.18-4.113 1.764-4.417-10.515-1.435-3.42-.35-.852-.397-.908-5.45-13.022-6.42 2.706 4.712 11.125c.231 1.621-1.009 2.563-1.385 2.78l-23.23 9.784 2.192 5.161 25.368-10.682 10.053 23.878c.031.986-.73 2.216-1.02 2.654l-1.578-3.782-4.87 2.061c1.852-3.329 2.243-7.294.732-10.877-2.762-6.516-10.743-9.398-17.811-6.407-7.085 2.98-10.601 10.677-7.84 17.194 1.499 3.604 4.605 6.081 8.261 7.087l-4.566 1.906 2.198 5.183 9.312-3.921.328.818h-.05c.168.92-.526 1.58-.526 1.58a.89.89 0 0 0-.236.987.887.887 0 0 0 .778.542zm-223.87-5.459c6.654.107 12.982-3.645 15.725-10.006 3.203-7.434.477-15.955-6.045-20.502l4.96-11.526 14.175 6.104 2.222-5.127-14.156-6.11-6.348-2.762-14.173-6.088-2.222 5.118 12.284 5.32c1.403.676 1.255 2.013 1.048 2.705l-4.157 9.628c-7.79-1.654-15.842 2.2-19.07 9.629-3.652 8.509.423 18.412 9.114 22.179 2.17.94 4.425 1.402 6.643 1.438zm222.463-5.332c-3.21.167-6.503-1.991-7.997-5.56-1.846-4.381-.293-9.212 3.524-10.81 3.784-1.608 8.353.667 10.204 5.016 1.84 4.382.265 9.243-3.546 10.855a6.504 6.504 0 0 1-2.185.5zm-223-.582a8.893 8.893 0 0 1-3.871-.726c-5.013-2.15-7.101-8.469-4.665-14.098 2.431-5.62 8.44-8.41 13.456-6.264 5.013 2.177 7.089 8.477 4.662 14.098-1.82 4.213-5.663 6.849-9.582 6.99zm59.057-5.127c-.693.002-1.4-.054-2.114-.177-5.676-.974-9.619-5.741-8.772-10.617.818-4.874 6.121-8.036 11.816-7.086 5.69.986 9.62 5.738 8.772 10.614-.718 4.273-4.853 7.248-9.702 7.266zm215.365-13.575 21.078-16.398 2.942-2.297c.666-.81 1.878-2.76.223-4.897l.031.021-1.16-1.531-22.714-29.179 2.75-2.126-3.476-4.414-30.55 23.778 3.424 4.427 3.93-3.069c1.16-.624 2.135.078 2.617.527l12.96 16.705 5.146-3.99-14.237-18.267 2.318-1.807c.963-.527 1.823-.114 2.35.313l13.174 16.925 5.117-3.977-14.218-18.258 3.242-2.53 22.672 29.198-21.094 16.423zm-317.728-2.095c.786.029 1.646-.155 2.39-.806l1.593-2.378 6.382-9.287 3.835 2.65 3.146-4.634-34.482-23.59-3.158 4.607 24.925 17.077-6.361 9.278-21.435-14.666-3.168 4.61 24.39 16.67c.445.198 1.156.44 1.943.469zm15.347-19.712.114-.164 3.041-4.48 6.404-9.32 3.156-4.61-5.685-3.9-15.753-10.769-3.066-2.114c-.982-.372-2.777-.81-4.169.434l-1.643 2.381v.012l-6.373 9.322-1.646 2.396c-.67.438-1.441.254-1.441.254a.821.821 0 0 0-.94.353c-.266.392-.177.905.18 1.157l.673.474zm143.627-2.123c116.836 0 211.546-94.717 211.546-211.552S624.729-56.27 507.893-56.27c-116.84 0-211.546 94.713-211.546 211.548 0 116.835 94.705 211.552 211.546 211.552zm-146.166-6.42-15.738-10.744 6.398-9.321 15.707 10.744zm-47.06-30.843c3.186 0 5.811-2.587 5.811-5.785 0-3.21-2.625-5.793-5.812-5.793-3.186 0-5.771 2.583-5.771 5.793a5.777 5.777 0 0 0 5.771 5.785zm392.205 0c3.151 0 5.75-2.587 5.75-5.785 0-3.21-2.599-5.793-5.75-5.793a5.784 5.784 0 0 0-5.806 5.793 5.784 5.784 0 0 0 5.806 5.785zM270.985 312.54l2.29-1.258c-2.251-4.15-1.95-4.808 1.767-6.823L299.775 291c3.708-2.035 4.428-1.93 6.705 2.22l2.284-1.234-8.673-15.97-2.312 1.258c2.038 3.744 1.632 4.426-2.117 6.43l-11.72 6.385-.069-.13 5.49-18.698c1.373-4.423 2.35-5.16 4.284-1.556l2.328-1.259-6.786-12.452-2.3 1.25c1.209 2.221 1.449 3.392.496 6.844l-4.15 14.488-23.59-2.386c-5.148-.604-6.084-1.15-7.504-3.748l-2.294 1.283 5.636 10.338 26.04 2.201-1.803 6.113-8.565 4.7c-3.74 2.003-4.524 1.985-6.627-1.904l-2.316 1.268zm448.196-12.703c.805-1.676 1.318-2.093 4.052-1.94l30.997 1.918c2.138.058 4.315-.12 6.268-.886 1.79-.734 3.414-2.019 4.402-4.188.844-1.782 1.148-3.712.83-5.248a4.668 4.668 0 0 0-.908-1.968c3.338-1.255 6.676-4.315 9.321-8.578 4.349-6.998 5.365-12.673 1.448-15.102-2.846-1.786-6.399-.277-9.135 1.916.647-2.235.503-5.027-1.535-6.3-2.3-1.41-4.938-.373-7.513 1.15.11-3.294-1.4-6.437-4.424-8.31-5.432-3.36-11.042-1.03-14.804 5.04-1.754 2.849-2.492 5.473-2.557 7.356l-4.675 5.543 2.88 1.785 2.272-4.621c.527 2.42 1.814 4.216 3.983 5.551 5.9 3.672 11.343.791 14.792-4.83 1.035-1.662 1.766-3.404 2.099-5.12 1.462-.66 2.561-.814 3.478-.257 1.206.747 1.207 2.39-.183 4.643l-3.165 5.109c-4.647 7.49-3.243 12.209.483 14.52.848.526 1.741.845 2.66 1.007-.546 1.548.043 2.598.852 3.54.976 1.088 1.569 1.94 1.095 2.945-.904 1.993-4.24 2.127-6.73 2.061l-7.346-.657-14.535-17.985c-2.463-3.012-2.485-3.441-1.621-5.282l-1.87-.862-5.935 12.638 1.875.886c1.107-2.408 1.85-2.357 3.636-.22l9.61 10.626-.05.124-15.019-1.295c-1.985-.076-2.222-.602-1.193-2.803l-1.907-.898-3.787 8.106zm45.654-16.782a4.57 4.57 0 0 1-2.434-.688c-1.792-1.118-3.01-3.57-.012-8.401l3.27-5.267c2.394-.943 4.41-.893 5.952.04 2.577 1.643 3.012 5.018.424 9.223-1.949 3.104-4.669 5.09-7.2 5.093zm-15.183-14.718c-1.48-.107-3.299-.823-5.375-2.114-3.183-1.994-5.843-4.875-4.175-7.58 1.602-2.552 5.48-1.58 8.676.382 4.008 2.507 5.697 5.355 4.228 7.734l-.022.03c-.712 1.15-1.852 1.654-3.332 1.548zm-499.374-3.023c1.41-.042 2.985-.419 4.743-1.153l9.129-3.813c3.25-1.369 3.804-1.356 4.98 1.448l1.799-.747c-.82-2.804-1.519-6.789-1.525-10.316l-.763-.757-15.83 6.618c-2.353.984-4.133 1.38-5.648.986-1.287-.338-2.322-1.371-2.936-2.814-.98-2.347-.6-4.953.744-7.713l11.652-4.86c3.268-1.39 3.759-1.307 4.889 1.357l1.8-.747c-.835-2.871-1.496-6.758-1.496-10.195l-.775-.747-19.216 8.007c-3.487 1.447-4.032 1.414-5.319-1.665l-1.76.735a78.606 78.606 0 0 1 1.8 4.643c.546 1.653 1.063 3.38 1.395 5.124l.623.583 3.506-1.18.078.139c-1.2 2.914-1.738 6.33.105 10.734 1.069 2.576 2.484 4.49 4.275 5.478 1.096.606 2.34.898 3.75.855zm511.538-16.73c2.6.06 4.74-.549 6.478-1.67 2.914-1.996 4.906-5.24 6.16-9.597l.008-.065c1.17-4.089 1.218-7.636.078-10.692-1.38-3.428-4.556-5.99-9.703-7.461-4.536-1.312-8.47-.886-11.543 1.15-2.698 1.873-4.693 4.776-5.96 9.303-1.338 4.554-1.206 8.257.204 11.357 1.549 3.187 4.616 5.531 9.085 6.814 1.905.55 3.631.826 5.192.862zm4.314-7.68c-1.86.046-4.186-.304-7.07-1.132-4.476-1.293-7.217-2.84-8.68-4.656-1.108-1.437-1.357-3.07-.836-4.932l.012-.065c.514-1.763 1.608-3 3.295-3.67 2.235-.754 5.379-.604 9.836.678 4.621 1.315 7.338 2.94 8.74 4.746 1.01 1.333 1.318 2.97.791 4.817-.527 1.877-1.64 3.054-3.223 3.714-.801.3-1.749.471-2.865.5zm-533.18-9.985 2.034-.45c-.762-3.341-.354-3.712 3.379-4.557l12.176-2.75c3.601-.81 4.182-.588 4.91 2.685l1.881-.424c-.349-3.2-.423-7.12.233-10.515l-.639-.859-3.884.636-.012-.1c1.765-2.79 3.062-6.295 2.154-10.303-.535-2.4-1.488-4.065-2.687-5.127a6.764 6.764 0 0 0-3.605-1.82l-.056-.239c1.864-2.882 3.295-6.323 2.303-10.67-.557-2.475-1.723-4.575-3.602-5.768-1.786-1.151-4.133-1.449-7.477-.704l-11.689 2.65c-3.578.792-4.096.502-4.7-2.114l-2.033.475 3.063 13.5 2.043-.434c-.563-2.512-.197-2.981 3.155-3.739l11.528-2.594c1.956-.451 3.651-.612 4.917-.26 1.27.361 2.142 1.2 2.476 2.69.514 2.323-.629 4.701-2.836 7.266l-13.596 3.066c-3.656.833-4.072.57-4.618-1.972l-2.034.446 2.995 13.386 2.036-.46c-.596-2.619-.233-2.956 3.18-3.735l11.39-2.56c2.348-.527 3.92-.67 5.3-.242 1.045.373 1.885 1.204 2.207 2.641.463 1.926-.577 4.269-2.846 7.27l-13.536 3.08c-3.59.811-4.095.603-4.709-2.014l-2.021.455zm546.454-12.05 3.047-16.33-2.065-.353c-.764 4.197-1.43 4.306-5.068 3.64l-25.948-4.83c-3.44-.637-3.939-.963-3.156-5.183l-1.925-.36c-1.074 3.812-2.543 7.283-4.634 10.747l.251.996 34.008 6.363c3.606.656 4.163 1.086 3.45 4.908zm-7.601-22.917c4.272.074 7.324-1.043 9.442-3.019 2.503-2.507 3.875-6.076 4.315-10.58v-.043c.414-4.251-.19-7.746-1.885-10.518-1.985-3.155-5.544-5.092-10.908-5.604-4.687-.464-8.504.718-11.153 3.252-2.309 2.353-3.712 5.563-4.175 10.229-.445 4.721.351 8.322 2.315 11.128 2.104 2.87 5.542 4.59 10.143 5.05.66.06 1.296.095 1.906.105zm2.353-8.208c-.993 0-2.077-.055-3.261-.167-4.654-.46-7.637-1.466-9.414-2.998-1.331-1.217-1.928-2.772-1.708-4.668v-.09c.184-1.828 1.027-3.227 2.563-4.182 2.053-1.183 5.162-1.611 9.805-1.15 4.765.449 7.758 1.542 9.463 3.044 1.228 1.17 1.806 2.75 1.622 4.613-.166 1.915-1.06 3.32-2.499 4.216-1.454.887-3.594 1.38-6.571 1.382zM235.92 174.357c4.704-.197 8.314-1.862 10.583-4.752 1.983-2.62 2.944-6.015 2.762-10.68-.18-4.754-1.457-8.235-3.757-10.734-2.48-2.55-6.149-3.776-10.787-3.605-5.29.21-8.715 1.83-10.831 4.402-2.142 2.83-3.007 6.538-2.82 11.088v.043c.152 4.239 1.229 7.612 3.294 10.155 2.387 2.834 6.175 4.271 11.556 4.083zm-2.22-8.286c-3.834-.005-6.399-.687-8.052-1.78-1.374-.975-2.175-2.464-2.257-4.358-.083-1.917.612-3.417 1.91-4.525 1.781-1.414 4.799-2.331 9.596-2.517 4.654-.163 7.753.427 9.733 1.708 1.49 1.009 2.253 2.487 2.316 4.404v.053c.083 1.843-.56 3.364-1.99 4.526-1.822 1.445-4.872 2.275-9.532 2.449-.6.028-1.175.04-1.723.04zm551.004-4.892 2.055-.117-.744-13.881-2.058.12c.15 2.73-.283 2.96-4.16 3.178l-12.11.632c-2.085.131-3.794-.053-4.932-1.029-.735-.68-1.162-1.64-1.246-3.168-.127-2.235 1.574-4.977 4.355-7.542l13.307-.735c3.864-.196 4.32-.063 4.46 2.614l2.059-.13-.775-14.34-2.052.105c.171 3.422-.317 3.74-4.132 3.955l-12.405.66c-3.725.197-4.252-.133-4.424-3.487l-1.953.124c-.152 3.27-.79 7.073-1.996 10.304l.509.958 4.25.031.021.105c-2.764 2.914-4.371 6.42-4.166 10.388.157 3.043.923 5.33 2.38 6.832 1.476 1.608 3.724 2.409 7.018 2.223l12.38-.667c3.463-.186 4.211.076 4.36 2.867zm-524.017-17.247c.663-3.176 1.833-6.882 3.562-10.322l-.357-.968-17.873-1.68.016-.12c2.935-2.42 5.141-5.849 5.492-9.901.288-2.836-.151-5.197-1.317-6.74-1.579-2.135-3.717-2.964-7.418-3.307l-11.521-1.094c-3.553-.316-4.213-.681-3.925-3.58l-2.086-.193-1.311 14.052 2.07.183c.259-2.762.705-3.002 4.582-2.644l11.348 1.072c2.59.252 4.234.595 5.295 1.668.719.745 1.086 1.796.948 3.298-.256 2.446-2.443 4.805-5.465 6.987l-13.276-1.246c-3.837-.362-4.24-.771-3.98-3.31l-2.08-.184-1.367 14.377 2.09.193c.312-3.388.858-3.626 4.64-3.27l26.316 2.498c3.539.317 3.986.745 3.664 4.036zM763.7 122.184c1.042.03 2.215-.09 3.587-.335l11.391-2.083c3.507-.614 4.253-.436 4.78 2.387l2.002-.37-2.476-13.868-2.052.363c.489 2.74.1 3.111-3.723 3.803l-11.203 2.009c-2.596.489-4.229.56-5.539-.14-.91-.558-1.538-1.468-1.807-2.932-.417-2.425 1.04-5.304 3.373-8.218l13.12-2.374c3.803-.671 4.289-.396 4.731 2.108l2.058-.354-2.566-14.219-2.056.348c.614 3.362.15 3.737-3.592 4.423l-26.026 4.68c-3.48.665-4.02.384-4.6-2.907l-1.925.344c.206 3.23.072 7.134-.66 10.89l.617.85 17.656-3.197.022.112c-2.17 3.132-3.364 7.028-2.65 11.01.512 2.821 1.552 4.985 3.13 6.15 1.302 1.002 2.672 1.469 4.408 1.52zM271.775 90.655l4.216-11.81-24.042-29.638.031-.12 23.716 8.543c4.038 1.411 4.36 2.136 2.97 6.06l2.48.883 4.302-12.006-2.461-.864c-1.278 3.58-2.052 3.957-6.066 2.501l-34.054-12.229-1.82 5.081 26.469 33.171-.034.14-26.385-9.495c-4.004-1.447-4.404-2.069-3.023-5.94l-2.458-.892-4.324 12.037 2.461.874c1.382-3.869 2.096-4.108 6.116-2.682l26.49 9.526c4.08 1.435 4.337 2.044 2.936 5.986zm483.082-3.066c.18-.004.36-.023.539-.055 1.53-.318 2.454-1.412 2.105-3.035-.16-.756-.53-1.417-1.07-1.885-.882-.56-1.648-.878-2.833-1.175-2.017-.433-3.363-1.343-3.791-3.512-.364-1.818.097-3.866 1.798-5.589 1.464-1.521 3.858-2.914 8.003-3.729 3.558-.747 6.54-.597 8.736.313 2.34 1.024 3.795 2.97 4.277 5.316a9.362 9.362 0 0 1-.316 4.861c-.504 1.333-1.314 2.637-2.474 3.962l1.643 1.968c1.139-1.285 2.433-3.075 3.218-5.316.68-2.063.986-4.566.353-7.626-.91-4.554-2.723-7.547-5.214-9.52-3.159-2.401-7.362-3.043-11.763-2.154-4.32.857-7.22 2.933-8.943 5.815-2.188 3.289-2.582 7.348-1.661 11.984.747 3.526 2.04 5.978 3.729 7.614 1.118 1.142 2.398 1.794 3.664 1.763zm-9.15-30c2.599.11 5.484-.552 8.319-1.98l-8.273-16.29c3.176-1.636 5.938-2.428 8.536-2.117a6.943 6.943 0 0 1 5.248 3.68c.832 1.667 1.192 3.492.961 5.29-.218 1.459-.726 2.898-1.708 4.229l2.027 1.62c1.042-1.656 1.86-3.525 2.114-5.75.263-2.314-.131-4.943-1.655-7.922-1.983-3.862-4.635-6.745-8.338-7.983-3.17-.916-6.876-.55-11.358 1.708-3.89 2.002-6.41 5.128-7.37 8.544-.693 3.026-.218 6.385 1.568 9.86 1.872 3.712 4.323 5.847 7.436 6.742.79.21 1.626.333 2.492.37zm-3.776-6.013a6.68 6.68 0 0 1-.8-.004c-1.405-.165-2.583-.723-3.326-2.185-.567-1.154-.596-2.633.195-4.142.844-1.549 2.662-3.29 5.682-4.885l4.662 9.163c-2.17 1.096-4.493 1.944-6.413 2.052zM273.458 43.05c1.352-.025 2.878-.77 4.275-2.136 1.517-1.462 3.137-3.693 4.758-7.904 1.928-5.05 2.089-7.813 1.094-10.224-.838-2.287-2.766-3.692-5.397-4.72L266.9 13.688c-2.66-1.024-3.44-2.032-2.93-3.31.23-.608.62-1.106 1.07-1.504l-1.745-1.11c-1.109 1.266-1.995 2.688-2.914 5.047-1.24 3.198-.951 5.037.757 6.643l-.081.22c-2.596 1.403-4.993 3.436-6.792 7.995-.78 2.037-1.126 4.405-.635 6.568.461 1.975 1.702 3.724 3.955 4.6 2.618 1.016 5.15.646 7.858-1.72 2.084-1.72 4.355-4.45 6.801-8.407l2.31-3.658 2.154.856c1.479.57 2.704 1.326 3.375 2.343.705 1.198.746 2.594.044 4.433-.716 1.786-1.618 2.666-2.843 3.326-.908.479-1.937.7-3.276.757-1.357.12-2.32.653-3.047 2.504-.71 1.854-.008 3.091 1.215 3.559.4.157.833.228 1.283.22zm443.272-.43 9.767-4.443-1.686-2.632c-6.611 2.652-7.208 2.357-9.176-.744l-3.639-5.682 27.315-17.38c3.593-2.288 4.24-2.337 7.145 2.185l2.139-1.41L738-4.113l-2.17 1.395c2.87 4.488 2.554 5.087-1.007 7.374l-27.33 17.4-3.646-5.729c-1.951-3.091-1.937-3.79 3.245-8.623l-1.686-2.623-8.15 6.953zM263.145 31.878a5.032 5.032 0 0 1-1.63-.356c-1.316-.51-2.268-1.34-2.747-2.393-.463-1.03-.478-2.33.1-3.8.91-2.445 2.79-3.691 4.438-4.623l9.16 3.55c-1.496 2.224-3.15 4.356-4.947 5.76-1.384 1.166-2.8 1.928-4.374 1.862zm26.041-14.293c2.53-3.46 6.199-4.417 12.204-3.15l1.132-1.9-7.27-4.271 3.2-5.431-2.111-1.24-3.193 5.443-15.36-9.089c-2.731-1.574-3.298-2.948-2.306-4.656.658-1.072 1.513-1.765 2.706-2.269l-.964-2.191c-2.04.806-3.858 2.293-5.61 5.26-2.192 3.771-2.713 7.752 2.374 10.744l15.186 8.925-1.674 2.848zm24.225-15.41c1.412.069 2.799-.59 3.744-1.81l.04-.046c1.512-1.945 1.303-4.641-.771-6.25-2.072-1.587-4.741-1.073-6.252.918-1.524 1.951-1.34 4.635.76 6.243.776.602 1.631.905 2.479.946zm-12.387-4.079c2.57-2.943 5.498-5.313 9.008-7.501l.214-.992-16.435-12.65c-2.96-2.295-3.202-2.896-.85-5.996l-1.627-1.27-10.117 13.158 1.646 1.293c2.586-3.354 3.203-3.277 6.193-.97l9.916 7.647c2.988 2.315 3.121 2.663.506 6.09zm389.609-1.596c1.379.056 2.508-.375 3.23-1.032 1.113-1.06 1.324-2.397.04-3.81-1.558-1.655-3.1-1.172-4.538-.558-1.424.59-2.78 1.284-3.847.124-.573-.576-.804-1.294-.607-2.217.277-1.436 1.5-3.26 4.454-6.004l2.743-2.56 4.104 4.41 1.789-1.673-4.098-4.414 13.254-12.307c2.883-2.683 3.375-2.634 6.24.428l1.513-1.417-10.973-11.829-1.513 1.433c2.254 2.524 2.248 3.026-.697 5.744l-13.159 12.21-2.464-2.663-1.795 1.674 2.474 2.663-2.69 2.486c-2.743 2.577-4.066 5.315-3.922 8.174.171 2.487 1.343 4.993 3.512 7.319 2.247 2.4 3.89 3.163 5.493 3.592.509.137.997.208 1.457.227zm-375.38-16.767c3.273-.277 6.453-1.798 9.853-5.031 3.411-3.257 5.19-6.538 5.521-9.898.305-3.555-1.161-7.102-4.38-10.465-3.644-3.875-7.137-5.351-10.493-5.233-3.531.265-6.889 2.07-10.167 5.202l-.025.046c-3.07 2.919-4.909 5.976-5.446 9.176-.559 3.659.885 7.494 4.597 11.358 3.231 3.422 6.866 5.05 10.54 4.845zm4.82-5.09a5.947 5.947 0 0 1-1.324-.071c-2.311-.434-4.934-2.155-8.153-5.55-3.303-3.44-4.852-6.224-5.148-8.459-.176-1.707.386-3.26 1.776-4.6 1.384-1.305 2.972-1.787 4.659-1.556 2.23.381 4.917 2.083 8.214 5.53 3.248 3.395 4.826 6.123 5.17 8.46.233 1.773-.377 3.313-1.763 4.64l-.053.025c-.989.973-2.108 1.502-3.379 1.58zm358.158-9.399c3.096-.127 6.216-1.577 9.147-4.395 3.855-3.627 5.389-7.109 5.245-10.438-.23-3.54-2.024-6.913-5.137-10.195l-.043-.034c-2.935-3.092-5.947-4.944-9.157-5.49-3.658-.58-7.471.857-11.348 4.566-3.464 3.223-5.079 6.855-4.928 10.512.304 3.29 1.752 6.49 4.996 9.882 3.263 3.416 6.5 5.215 9.901 5.564.44.036.881.046 1.324.028zm-6.194-5.406c-1.251-.142-2.359-.749-3.347-1.792l-.04-.034c-1.262-1.352-1.787-2.907-1.47-4.687.442-2.325 2.186-4.964 5.56-8.174 3.46-3.29 6.269-4.813 8.51-5.096 1.676-.182 3.244.382 4.569 1.785 1.318 1.393 1.809 2.995 1.547 4.656-.392 2.233-2.112 4.918-5.568 8.209-3.396 3.21-6.143 4.784-8.462 5.12a5.44 5.44 0 0 1-1.299.013zm-335.744-.13c2.791-1.74 6.279-3.414 9.616-4.244l.499-.973-2.4-3.49.078-.078c3.947.603 7.753-.064 10.914-2.49 2.404-1.891 3.855-3.817 4.278-5.867.444-2.116-.187-4.422-2.204-7l-7.591-9.82c-2.137-2.745-2.336-3.496-.146-5.208l-1.265-1.658-10.957 8.552 1.252 1.61c2.17-1.656 2.605-1.456 4.988 1.62l7.436 9.591c1.28 1.638 2.11 3.166 1.959 4.635-.148.99-.696 1.9-1.919 2.86-1.752 1.36-4.977 1.49-8.682.667L333.98-62.11c-2.364-3.053-2.508-3.48-.41-5.124l-1.24-1.655-11.372 8.844 1.274 1.652c2.7-2.116 3.25-1.896 5.56 1.116l7.657 9.798c2.252 2.944 2.312 3.59-.344 5.633zm31.683-21.907c.304.001.618-.013.94-.043 2.096-.186 4.76-.878 8.7-3.122 4.702-2.68 6.566-4.751 7.313-7.204.782-2.346.187-4.627-1.203-7.08l-5.998-10.527c-1.418-2.505-1.359-3.759-.168-4.457a4.141 4.141 0 0 1 1.78-.462l-.648-1.953c-1.638.26-3.25.813-5.453 2.049-2.954 1.708-3.906 3.337-3.595 5.635l-.202.128c-2.922-.542-6.058-.532-10.328 1.918-1.88 1.075-3.653 2.734-4.628 4.653-.914 1.843-1.04 3.947.146 6.064 1.407 2.45 3.568 3.735 7.17 3.67 2.702-.045 6.208-.713 10.576-2.248l4.1-1.345 1.163 2.012c.762 1.358 1.252 2.706 1.104 3.933-.187 1.372-1.05 2.485-2.747 3.447-1.689.968-2.963 1.065-4.33.806-.999-.192-1.923-.713-2.998-1.515-1.123-.733-2.234-.944-3.933.046-1.72.963-1.988 2.371-1.342 3.525.76 1.303 2.45 2.064 4.581 2.07zm271.272-.539c1.211.042 2.39-.128 3.546-.502 3.092-1.075 6.03-3.678 8.09-7.369l-15.904-8.961c1.74-3.096 3.604-5.291 5.923-6.485 2.116-1.018 4.5-.928 6.407.155 1.621.91 2.96 2.245 3.745 3.881.614 1.331.986 2.8.92 4.42l2.586.267c-.045-1.951-.41-3.968-1.423-5.961-1.062-2.07-2.87-4.044-5.762-5.676-3.79-2.124-7.63-3.065-11.389-2.002-3.113.963-6.027 3.346-8.478 7.718-2.148 3.816-2.498 7.793-1.385 11.2 1.075 2.88 3.356 5.42 6.748 7.306 2.247 1.285 4.357 1.94 6.376 2.009zm-241.313-3.404a43.467 43.467 0 0 1 11.503-2.25l.676-.76-13.958-31.655c-1.488-3.352-1.426-4.041 2.123-5.632l-.803-1.898-15.188 6.684.84 1.925c3.91-1.761 4.382-1.258 5.874 2.104l10.641 24.2c1.424 3.177 1.45 3.756-2.48 5.484zm238.061-.108c-.656.021-1.336-.14-2.049-.555-1.119-.61-1.93-1.833-2.148-3.509-.152-1.767.417-4.218 2.021-7.25l8.968 5.07c-1.371 2.386-3.097 4.688-4.879 5.695-.622.323-1.256.527-1.913.549zM609.5-68.103l3.375-7.687 5.763 2.535.98-2.272-5.76-2.51 7.198-16.35c1.259-2.88 2.563-3.601 4.37-2.808 1.126.483 1.92 1.288 2.567 2.412l2.046-1.225c-1.022-1.934-2.708-3.56-5.859-4.947-3.989-1.74-8.042-1.756-10.393 3.642l-7.086 16.11-3.007-1.305-.787 1.783c3.726 2.086 5.102 5.612 4.556 11.757zm-176.77-5.452 18.787-6.19-.82-2.496c-5.037 1.653-5.584 1.218-6.932-2.802l-8.806-26.706c-1.323-4.035-1.144-4.699 3.9-6.373l-.798-2.489-18.806 6.2.825 2.477c5.076-1.655 5.605-1.223 6.94 2.802l8.797 26.705c1.335 4.054 1.17 4.7-3.884 6.389zm-64.813-3.578c-2.45.051-4.411-.543-5.62-2.647-.681-1.24-.896-2.484-.598-3.599.288-1.075 1.094-2.097 2.467-2.895 2.26-1.25 4.497-1.052 6.349-.74l4.879 8.542c-2.576.756-5.219 1.377-7.477 1.34zm229.032-5.514 1.082-.096 6.565-19.771c1.18-3.604 1.574-3.968 4.733-2.914l.586-1.841a69.007 69.007 0 0 1-4.665-1.677c-1.617-.665-3.235-1.415-4.786-2.303l-.865.077-1.41 3.444-.146-.043c-1.424-2.849-3.646-5.482-8.168-6.978-2.643-.876-4.995-1.062-6.946-.36-2.354.86-4.14 2.997-5.366 6.61l-3.066 9.382c-1.138 3.348-1.5 3.744-4.401 2.815l-.596 1.85c2.652 1.211 6.132 3.302 8.807 5.596l1.05-.078 5.404-16.255c.81-2.438 1.695-4.044 2.954-4.92 1.125-.72 2.53-.85 4.066-.362 2.404.793 4.116 2.782 5.313 5.613l-3.98 11.981c-1.115 3.376-1.466 3.712-4.228 2.793l-.613 1.838c2.698 1.262 6.067 3.345 8.676 5.599zm-36.813-2.477 1.804-8.23 6.169 1.339.514-2.384-6.178-1.348 3.86-17.406c.698-3.113 1.803-4.06 3.763-3.66 1.185.277 2.13.907 2.96 1.9l1.8-1.6c-1.383-1.708-3.357-2.969-6.732-3.701-4.238-.942-8.213-.177-9.485 5.586l-3.776 17.198-3.21-.692-.435 1.888c4.088 1.34 6.131 4.506 6.81 10.626zm-19.931-.496c2.059-.105 3.8-1.549 4.116-3.828.337-2.62-1.425-4.648-3.902-4.97-2.453-.342-4.685 1.159-5.034 3.776-.345 2.582 1.403 4.667 3.868 4.985h.053c.304.04.604.052.899.037zm-17.796-5.595.52-8.38 6.29.413.17-2.449-6.283-.412 1.163-17.784c.203-3.178 1.154-4.3 3.143-4.188 1.227.087 2.236.576 3.211 1.408l1.522-1.838c-1.627-1.444-3.763-2.407-7.21-2.65-4.304-.265-8.121 1.074-8.509 6.955l-1.162 17.58-3.283-.211-.083 1.95c4.209.715 6.727 3.556 8.282 9.507zm21.748-5.506.942-.31 2.762-20.61c.502-3.678.897-4.19 4.774-3.661l.26-2.068-16.426-2.204-.272 2.059c4.181.56 4.388 1.154 3.905 4.885l-1.689 12.43c-.5 3.725-.743 4.034-5.01 3.49l-.247 1.92c3.815.763 7.342 2.097 11 4.07zm-83.594-.124.926-.613-.378-4.21.118-.05c3.13 2.48 6.797 3.81 10.703 3.218 3.014-.482 5.231-1.394 6.615-2.973 1.448-1.612 2.032-3.936 1.563-7.21l-1.795-12.275c-.485-3.435-.282-4.186 2.492-4.582l-.304-2.052-13.744 1.984.307 2.07c2.692-.4 2.967 0 3.521 3.845l1.736 12.005c.29 2.07.278 3.804-.604 4.979-.608.81-1.527 1.356-3.057 1.553-2.209.336-5.052-1.142-7.886-3.692l-1.9-13.19c-.558-3.824-.437-4.247 2.17-4.64l-.294-2.065-14.225 2.064.32 2.043c3.345-.478 3.721-.017 4.274 3.773l1.791 12.315c.51 3.678.247 4.235-3.071 4.69l.27 1.92c3.28-.104 7.127.129 10.452 1.093zm37.345-3.199c3.632.066 6.34-.46 8.364-1.072.247-1.748.508-3.466 1.22-6.308l-2.408-.468c-1.064 4.253-2.869 5.598-6.413 5.551-1.441-.02-2.722-.353-3.636-.92-.908-.578-1.403-1.336-1.38-2.362.022-1.185.923-2.25 2.415-3.18 1.755-.93 4.27-1.852 5.81-2.828 2.185-1.04 3.933-2.11 5.126-3.36 1.297-1.278 2.22-2.897 2.232-4.867.042-2.24-.965-4.28-3.013-5.796-2.152-1.554-5.277-2.583-9.622-2.617-4.314-.065-7.404.582-9.89 1.454-.335 2.425-.773 4.375-1.38 6.904l2.418.551c1.576-5.117 4.15-6.605 7.898-6.571 1.701.044 3.138.474 4.094 1.267.906.781 1.434 1.796 1.423 3.063-.031.97-.354 1.773-1.128 2.539-1.1 1.024-2.768 1.717-5.663 3.217-2.56 1.427-4.743 2.413-6.243 3.922-1.206 1.255-2.036 2.812-2.068 4.72-.027 1.895.918 3.766 3.153 5.119 1.894 1.214 4.766 2.013 8.691 2.042z" style="fill:#666;fill-opacity:1;fill-rule:nonzero;stroke:none;stroke-width:2.11612" transform="matrix(1.33333 0 0 -1.33333 -227.176 657.037)"/><g style="fill:#666;fill-opacity:1"><path d="M0 0c0 50.213 40.859 91.067 91.074 91.067 50.213 0 91.068-40.854 91.068-91.067 0-50.217-40.855-91.064-91.068-91.064C40.859-91.064 0-50.217 0 0m-2.621 0c0-51.665 42.025-93.699 93.695-93.699 51.661 0 93.69 42.034 93.69 93.699 0 51.657-42.029 93.69-93.69 93.69C39.404 93.69-2.621 51.657-2.621 0" style="fill:#666;fill-opacity:1;fill-rule:nonzero;stroke:none" transform="matrix(2.82147 0 0 -2.82154 193.05 449.987)"/></g><path d="M0 0s-.059-3.121-.404-4.162c-.477-1.336-1.511-1.879-2.817-1.879-.89 0-3.105.754-3.105 2.957v22.017h7.619v1.377h-7.619v14.276h-10.588c-.156-12.846-4.268-14.08-6.626-14.276h-49.24v-.038h-.112v-1.189h.112v-.15h7.566c-.943-.751-5.716-4.483-8.777-6.517l-8.485-5.656v26.558h5.781v1.122h-22.191v-1.122h5.469V-7.807h-5.469v-1.199h20.529v1.199h-4.119V5.299l2.217 1.404 10.219-14.51h-4.754v-1.199h22.117v1.199h-4.749l-14.829 19.825 9.229 6.915h19.073v-26.74h-5.473v-1.199h21.88v1.199h-5.474v26.74h15.763V-2.215c0-6.32 6.903-7.838 9.501-7.838 1.729 0 7.392-.264 8.934 5.688C1.468-3.277 1.489 0 1.489 0Z" style="fill:#231f20;fill-opacity:1;fill-rule:nonzero;stroke:none" transform="matrix(2.82147 0 0 -2.82154 587.072 605.05)"/><path d="M0 0a6.401 6.401 0 0 1 6.427 6.423A6.407 6.407 0 0 1 0 12.846a6.403 6.403 0 0 1-6.433-6.423A6.397 6.397 0 0 1 0 0" style="fill:#231f20;fill-opacity:1;fill-rule:nonzero;stroke:none" transform="matrix(2.82147 0 0 -2.82154 478.493 543.711)"/><path d="M0 0h39.527v-39.586Z" style="fill:#005c8e;fill-opacity:1;fill-rule:nonzero;stroke:none" transform="matrix(2.82147 0 0 -2.82154 449.093 248.01)"/><path d="M289.953 365.293c0-21.879 17.722-39.591 39.599-39.591 21.874 0 39.596 17.712 39.596 39.591 0 21.863-17.722 39.586-39.596 39.586-21.877 0-39.599-17.723-39.599-39.586" style="fill:url(#a);stroke:none" transform="matrix(2.82147 0 0 -2.82154 -480.726 1390.391)"/></svg>