<svg xmlns="http://www.w3.org/2000/svg" width="602.13885pt" height="600.00037pt" viewBox="0 0 602.13887 600.00033"><path d="M280.783 0a3.704 3.704 0 0 0-.568.053l-13.477 2.3a3.704 3.704 0 0 0-3.074 3.883l.088 1.385a3.704 3.704 0 0 0 3.35 3.455c1.639.154 2.701.382 3.275.492.058.467.118 1.006.172 2.059a3.704 3.704 0 0 0 .002.016l1.928 35.029a3.704 3.704 0 0 0 3.904 3.494l26.213-1.463a3.704 3.704 0 0 0 3.496-3.8l-.262-9.387a3.704 3.704 0 0 0-3.853-3.598l-1.805.074a3.704 3.704 0 0 0-3.545 3.947c.15 2.233-.088 2.01-.336 2.174-.246.163-1.596.499-3.523.653l-5.496.222a3.704 3.704 0 0 0-.084.004c-.283.018-.3.01-.534.022-.026-.383-.05-.533-.078-1.063a3.704 3.704 0 0 0-.002-.012l-2.039-36.443A3.704 3.704 0 0 0 280.783 0Zm52.678 1.256-13.537.322a3.704 3.704 0 0 0-3.594 3.31l-.146 1.378a3.704 3.704 0 0 0 2.904 4.011c1.57.338 2.555.683 3.082.856-.001.469-.013 1.04-.104 2.107l-2.976 34.873a3.704 3.704 0 0 0 3.351 4.004l7.077.649a3.704 3.704 0 0 0 4.029-3.38l3.691-44.118a3.704 3.704 0 0 0-3.777-4.012zm-56.09 6.797.057 1.008a7.72 7.72 0 0 0-.326-.961zm95.871.154c-5.853-.051-10.754 2.45-14.094 6.232-3.34 3.783-5.344 8.648-6.76 13.84v.002c-2.04 7.362-2.579 13.985-.384 19.678 2.195 5.695 7.31 9.846 14.48 11.83 6.868 1.985 12.565 1.713 14.891 1.402a3.704 3.704 0 0 0 3.055-2.597l1.216-4.02a3.704 3.704 0 0 0-4.664-4.603c-1.885.597-5.288 1.544-9.712.36-4.705-1.318-5.705-3.757-6.1-7.616-.395-3.862.694-8.745 1.62-12.076a3.704 3.704 0 0 0 .005-.014c.815-2.98 2.265-6.735 4.066-9.053 1.802-2.318 3.044-3.208 5.836-2.431a3.704 3.704 0 0 0 .002.002c2.006.556 2.36 1.201 2.664 1.896.305.695.315 1.716.229 2.266a3.704 3.704 0 0 0 2.674 4.14l7.515 2.075a3.704 3.704 0 0 0 4.65-3.036c.495-3.376-.193-7.177-2.61-10.298-2.418-3.122-6.292-5.45-11.667-6.96a3.704 3.704 0 0 0-.035-.01c-2.42-.653-4.71-.99-6.877-1.009zm-141.387.398c-2.072-.02-4.25.25-6.546.795a3.704 3.704 0 0 0-.012.004c-7.555 1.82-12.78 5.903-14.969 11.535-2.188 5.63-1.586 12.079.14 19.194.001.001.003.002.003.004v.004c1.711 7.118 4.189 13.043 8.719 16.935 4.526 3.89 10.945 5.024 18.292 3.238 7.35-1.695 12.507-5.698 14.686-11.24 2.18-5.545 1.635-11.93-.064-18.97-1.395-5.994-3.343-11.148-6.596-15.07-3.256-3.928-8.055-6.374-13.652-6.429zm97.659.155-.059.691a7.781 7.781 0 0 0-.133-.687zm-100.12 10.582c2.3.02 3.584 1.153 5.1 3.838 1.516 2.684 2.634 6.643 3.492 10.289a3.704 3.704 0 0 0 .006.021c.966 3.998 1.834 8.453 1.506 11.506-.164 1.526-.573 2.616-1.168 3.377-.595.76-1.408 1.377-3.191 1.79a3.704 3.704 0 0 0-.03.007c-1.703.407-2.721.224-3.67-.223-.948-.447-1.894-1.298-2.796-2.605-1.803-2.611-3.163-6.875-4.084-10.606-.963-4.175-1.748-8.692-1.356-11.802.197-1.56.637-2.694 1.278-3.504.636-.806 1.508-1.45 3.277-1.893a7.231 7.231 0 0 1 1.637-.195zm-47.365 6.357a3.704 3.704 0 0 0-1.685.377l-6.451 3.16a3.704 3.704 0 0 0-1.686 4.977l7.018 14.09-9.075 4.502-7.293-14.535a3.704 3.704 0 0 0-5.296-1.465L146.078 44.1a3.704 3.704 0 0 0-1.346 4.748l.664 1.361a3.704 3.704 0 0 0 4.731 1.809c1.42-.58 2.285-.785 2.71-.893.243.377.575.948 1.061 1.918a3.704 3.704 0 0 0 0 .004l15.715 31.266a3.704 3.704 0 0 0 4.977 1.642l6.408-3.23a3.704 3.704 0 0 0 1.639-4.977l-7.805-15.467 9.14-4.601 7.69 15.578a3.704 3.704 0 0 0 4.969 1.678l6.465-3.211a3.704 3.704 0 0 0 1.666-4.973l-19.475-39.004a3.704 3.704 0 0 0-3.258-2.049zm261.348 10.088a3.704 3.704 0 0 0-3.082 1.61l-.844 1.232a3.704 3.704 0 0 0 .736 4.98c1.277 1.026 2.038 1.8 2.456 2.207-.211.424-.46.91-1 1.82l-10.663 17.7c-2.803 4.584-4.321 9.363-3.238 14.084 1.083 4.719 4.635 8.643 10.004 11.873l.006.004c6.89 4.176 13.088 4.637 17.719 2.256 4.634-2.383 7.266-6.664 9.566-10.408a3.704 3.704 0 0 0 .02-.034l13.79-22.97a3.704 3.704 0 0 0-1.222-5.055l-3.918-2.432a3.704 3.704 0 0 0-5.12 1.227l-14.276 23.533a3.704 3.704 0 0 0-.018.03c-1.663 2.799-3.333 5.235-4.688 6.132-1.347.893-2.297 1.283-5.773-.767-3.02-1.87-2.98-2.642-2.662-4.56.32-1.928 1.98-4.94 3.898-8.08a3.704 3.704 0 0 0 .018-.026l13.732-22.899a3.704 3.704 0 0 0-1.586-5.25l-12.29-5.848a3.704 3.704 0 0 0-1.565-.359zM279.664 44.42l.035.142h-.027zm-121.59.834.727 1.45c-.037-.055-.06-.12-.098-.173-.255-.357-.613-.712-.965-1.062zm292.043 1.559.25.119-.504.84c.106-.294.179-.625.254-.96zm-262.252 2.681.2.399a3.704 3.704 0 0 0-.174-.141 3.704 3.704 0 0 0-.026-.258zm-57.588 5.559a3.704 3.704 0 0 0-2.308.793l-26.01 20.49a3.704 3.704 0 0 0-.707 5.08l5.541 7.654a3.704 3.704 0 0 0 5.396.653l1.434-1.217a3.704 3.704 0 0 0 .715-4.834c-1.093-1.693-1.118-2.33-1.11-2.385.009-.056.207-.676 1.866-2.02l.611-.488 22.729 29.006a3.704 3.704 0 0 0 5.218.615l5.592-4.441a3.704 3.704 0 0 0 .606-5.191l-22.774-28.914.512-.399c1.689-1.298 2.569-1.468 2.666-1.463.097.005.51.021 1.705 1.549a3.704 3.704 0 0 0 5.248.596l1.457-1.178a3.704 3.704 0 0 0 .52-5.242l-6.073-7.324a3.704 3.704 0 0 0-2.834-1.34zm106.545 2.32h.012l-.03.008c.008-.002.012-.006.018-.008zm-70.949 3.004a3.704 3.704 0 0 0 .28.252 3.704 3.704 0 0 0 .015.334zm135.873.6a3.704 3.704 0 0 0-2.21.697c-41.808 30.104-89.982 87.505-129.231 154.306-39.25 66.802-69.503 142.942-74.557 210.694a3.704 3.704 0 0 0 1.77 3.44c48.02 29.214 149.401 40.359 204.209 40.388a3.704 3.704 0 0 0 .002 0c54.825 0 156.077-11.183 204.08-40.404a3.704 3.704 0 0 0 1.767-3.438c-5.032-67.742-35.295-143.882-74.545-210.685-39.25-66.804-87.413-124.206-129.166-154.3a3.704 3.704 0 0 0-2.119-.698zm-.049 8.414c39.86 29.495 86.784 85.38 124.948 150.336 38.386 65.334 67.899 139.737 73.318 205.132-45.591 26.408-145.21 38.234-198.233 38.235-53.01-.029-152.757-11.821-198.365-38.219 5.44-65.408 34.94-139.808 73.326-205.14 38.163-64.954 85.096-120.84 125.006-150.344Zm191.135.027a3.704 3.704 0 0 0-2.559 1.094l-.953.96a3.704 3.704 0 0 0-.46 4.653c1.54 2.327 1.919 3.27 1.937 2.916-.228.349-.776 1.037-1.71 2.033l-24.546 25.19a3.704 3.704 0 0 0 .072 5.242l2.955 2.869a3.704 3.704 0 0 0 5.243-.082l16.252-16.803-7.073 28.24a3.704 3.704 0 0 0 .987 3.53l4.47 4.433a3.704 3.704 0 0 0 5.272-.054l30.267-31.303a3.704 3.704 0 0 0-.068-5.217l-2.904-2.853a3.704 3.704 0 0 0-5.254.064l-15.063 15.537 6.627-26.357a3.704 3.704 0 0 0-1.02-3.569l-9.831-9.486a3.704 3.704 0 0 0-2.641-1.037zM79.988 100.814a3.704 3.704 0 0 0-2.71 1.266l-8.01 9.168a3.704 3.704 0 0 0 .482 5.334l1.107.88a3.704 3.704 0 0 0 4.797-.155c.558-.507.673-.58 1.016-.864.319.5.656 1.025.996 1.522l17.986 32.94a3.704 3.704 0 0 0 6.088.605l2.547-3.037a3.704 3.704 0 0 0 .412-4.159l-5.605-10.248 7.463-8.496 10.857 4.332a3.704 3.704 0 0 0 4.162-1.002l4.442-5.084a3.704 3.704 0 0 0-1.442-5.886l-43.162-16.864a3.704 3.704 0 0 0-1.426-.252zm1.155 8.1 1.394.545a3.704 3.704 0 0 0-1.36.623 3.704 3.704 0 0 0-.044-.041c-.18-.158-.416-.267-.617-.41zm451.988 2.959a3.704 3.704 0 0 0-2.451.9l-1.065.916a3.704 3.704 0 0 0-.744 4.729c.807 1.327 1.235 2.273 1.483 2.795-.36.325-.759.683-1.586 1.332a3.704 3.704 0 0 0-.006.004l-27.489 21.654a3.704 3.704 0 0 0-.642 5.17l4.342 5.635a3.704 3.704 0 0 0 5.22.652l34.826-27.34a3.704 3.704 0 0 0 .358-5.505l-9.633-9.83a3.704 3.704 0 0 0-2.613-1.112zm-441.774 8.074 4.725 1.735-2.328 2.646zm398.586 4.526a3.704 3.704 0 0 0 .676.677l-.619.643-.31-.309zm47.043.363.207.21-.85.669c.226-.252.432-.568.643-.88zM56.82 138.002c-5.082-.053-10.317 3.027-14.787 9.365-4.67 6.536-5.613 13.272-3.486 18.895 2.126 5.62 6.697 9.917 11.91 13.62l.002.003.014.01c6.211 4.456 12.283 7.209 18.392 7.06 6.111-.148 11.752-3.575 16.004-9.66 4.102-5.715 5.869-11.471 6.377-13.267a3.704 3.704 0 0 0-1.463-4.057l-3.398-2.344a3.704 3.704 0 0 0-5.805 3.14c.034 1.372-.284 4.984-3.027 8.905-2.798 3.914-5.39 4.019-9.147 3.07-3.76-.949-7.993-3.639-10.873-5.671a3.704 3.704 0 0 0-.008-.004c-2.499-1.756-5.501-4.38-7.046-6.856-1.542-2.47-1.95-3.97-.28-6.348 1.208-1.682 1.935-1.81 2.664-1.863.731-.053 1.669.265 2.22.569a3.704 3.704 0 0 0 4.802-1.096l4.543-6.38a3.704 3.704 0 0 0-1.27-5.413c-1.868-1-4.025-1.653-6.338-1.678zm497.024 1.31a3.704 3.704 0 0 0-1.653.424l-1.318.692a3.704 3.704 0 0 0-1.805 4.416c.82 2.537.94 3.38.932 3.427-.008.047-.396.9-2.416 3.145a3.704 3.704 0 0 0-.012.014l-24.886 27.922a3.704 3.704 0 0 0-.516 4.187l2.637 5.016a3.704 3.704 0 0 0 3.838 1.94l45.894-7.02a3.704 3.704 0 0 0 2.67-5.473l-2.04-3.633a3.704 3.704 0 0 0-3.827-1.844l-26.84 4.397 18.18-20.358a3.704 3.704 0 0 0 .492-4.232l-6.006-11.082a3.704 3.704 0 0 0-3.324-1.938zm1.57 14.247.008.013-.25.282c.073-.095.173-.201.242-.295zm-23.941 27.066a3.704 3.704 0 0 0-.35 1.57v.065a3.704 3.704 0 0 0 .02.36l-1.006.153-.215-.408zm50.535 15.965a3.704 3.704 0 0 0-1.076.152l-1.303.387a3.704 3.704 0 0 0-2.623 4.014c.186 1.477.302 2.53.312 3.078l-.013.008c-.52.245-1.582.624-3.065 1.115l-33.068 10.06a3.704 3.704 0 0 0-2.467 4.614l7.447 24.719a3.704 3.704 0 0 0 4.578 2.488l9.051-2.627a3.704 3.704 0 0 0 2.504-4.658l-.379-1.223a3.704 3.704 0 0 0 2.752.246l12.99-3.937a3.704 3.704 0 0 0 .909-.418 3.704 3.704 0 0 0 4.546 1.937l9.145-3.11a3.704 3.704 0 0 0 2.35-4.59l-9.073-29.636a3.704 3.704 0 0 0-3.517-2.619zm-.781 13.88.101.33c-.427.022-.774.158-1.154.235.085-.038.2-.066.285-.105.254-.12.51-.312.768-.46zm-.748 8.057c.055.15.08.157.136.346a3.704 3.704 0 0 0 .02.063l1.472 4.69c.499 1.72.418 2.653.33 2.87-.087.218-.205.602-2.072 1.188a3.704 3.704 0 0 0-1.045.521 3.704 3.704 0 0 0-3.457-2.08c-1.257.043-1.948.007-2.04-.027-.094-.034-.124.282-.54-1.098a3.704 3.704 0 0 0-.01-.035l-1.191-3.813zm-566.586 1.895a3.704 3.704 0 0 0-3.604 2.95l-.955 4.587a3.704 3.704 0 0 0 2.844 4.375l26.773 5.795a3.704 3.704 0 0 0 .002 0c3.21.693 6.13 1.502 7.44 2.502 1.31 1 1.976 1.678 1.068 5.648a3.704 3.704 0 0 0-.008.031c-.768 3.496-1.499 3.684-3.422 4.012-1.922.328-5.318-.253-8.918-1.039a3.704 3.704 0 0 0-.01-.004L8.93 243.64a3.704 3.704 0 0 0-4.465 3.246L3.08 260.537a3.704 3.704 0 0 0 3.111 4.031l1.346.211a3.704 3.704 0 0 0 4.057-2.398c.55-1.523 1.032-2.464 1.279-2.97.462.068 1.01.156 2.035.392a3.704 3.704 0 0 0 .047.01l20.258 4.363c5.181 1.158 10.185 1.026 14.299-1.521 4.11-2.546 6.712-7.167 8.017-13.286 1.738-7.861.15-13.893-3.613-17.515-3.766-3.625-8.69-4.75-12.992-5.696a3.704 3.704 0 0 0-.016-.004l-26.213-5.648a3.704 3.704 0 0 0-.802-.084zm548.173 3.705 1.168 3.982a3.704 3.704 0 0 0 .04.13c.392 1.177.203 1.217.21 1.204.008-.012-.309.378-1.503.75a3.704 3.704 0 0 0-2.448 4.592l.346 1.16a3.704 3.704 0 0 0-2.559-.302c-2.033.49-2.716.243-2.71.246.004.003-.228-.09-.653-1.389l-.002-.006-2.027-6.687c-.083-.283-.07-.326-.112-.536.022-.007.013-.006.036-.013l.004-.002zM54.69 247.9l-.007.032c0-.005 0-.01.002-.014l.006-.018zm-43.273 3.852.922.2a7.779 7.779 0 0 0-.947.05zm585.06 1.613a3.704 3.704 0 0 0-.197.004l-1.484.073a3.704 3.704 0 0 0-3.514 3.416c-.113 1.477-.208 2.486-.304 3.052-.58.114-1.632.234-3.153.38l-.01.001-34.592 2.88a3.704 3.704 0 0 0-3.382 4.007l.609 7.135a3.704 3.704 0 0 0 4.006 3.375l12.978-1.112-14.08 9.674a3.704 3.704 0 0 0-1.595 3.33l.56 7.455a3.704 3.704 0 0 0 5.766 2.793l16.426-11.08c.703 1.317 1.548 2.595 2.73 3.701 2.564 2.4 6.443 3.716 10.916 3.284 3.567-.298 6.587-1.669 8.701-3.71 2.12-2.045 3.31-4.596 3.983-7.068 1.336-4.916.83-9.813.584-12.361l-.002-.023-1.272-15.8a3.704 3.704 0 0 0-3.674-3.406zm-2.945 13.49.047.57a8.465 8.465 0 0 0-1.375-.224c.12-.022.275-.026.395-.05.297-.062.62-.202.933-.296zm-2.44 7.68c.041.199.075.293.106.608.156 2.29-.177 3.81-.676 4.546-.5.74-1.285 1.404-4.08 1.627-2.558.176-3.152-.413-3.875-1.414-.72-.997-1.213-2.837-1.375-4.55l7.809-.657a3.704 3.704 0 0 0 .072-.008c.93-.096 1.52-.133 2.02-.152zM14.587 280.11a3.704 3.704 0 0 0-.024.002 13.325 13.325 0 0 0-9.654 4.346c-2.63 2.89-4.274 7.048-4.783 12.395a3.704 3.704 0 0 0-.004.029c-.686 7.875 1.557 14.149 6.065 18.076 4.508 3.927 10.597 5.475 17.306 6.123a3.704 3.704 0 0 0 .028.004c7.494.668 14.122.152 19.433-2.984 5.31-3.136 8.627-8.988 9.375-16.746v-.002c.632-6.527-.604-12.89-1.453-16.098a3.704 3.704 0 0 0-3.254-2.74l-22.719-2.01a3.704 3.704 0 0 0-4.013 3.351L19.65 297.42a3.704 3.704 0 0 0 3.655 4.04l1.492.015a3.704 3.704 0 0 0 3.601-2.705c.73-2.604 1.202-3.375.909-3.164.404-.032 1.205-.028 2.486.087a3.704 3.704 0 0 0 .006 0l10.289.918c.07.682.081 1.416.025 2.328-.4 3.93-1.791 5.373-4.55 6.553-2.774 1.187-7.209 1.509-12.198 1.063a3.704 3.704 0 0 0-.01 0c-4.021-.348-8.497-1.058-11.328-2.395-1.415-.668-2.36-1.438-2.892-2.213-.533-.775-.822-1.592-.668-3.158a3.704 3.704 0 0 0 .004-.025c.167-1.832.715-2.38 1.36-2.844.643-.464 1.647-.68 2.14-.678a3.704 3.704 0 0 0 3.703-3.4l.633-7.725a3.704 3.704 0 0 0-3.721-4.008zm13.344 8.098.4.035c-.132.015-.276.08-.412.102zm528.636 26.346a3.704 3.704 0 0 0-3.521 2.763c-.03.115-.676 1.974-1.3 4.1-.623 2.118-1.285 4.768-1.573 7.613-.548 4.924-.151 9.766 2.082 13.858 2.235 4.095 6.573 7.081 12.123 7.69a3.704 3.704 0 0 0 .027.001c4.383.449 8.228-1.024 11.018-3.234 2.79-2.21 4.72-5.004 6.41-7.559 1.69-2.555 3.172-4.905 4.469-6.271 1.293-1.363 1.885-1.664 3.013-1.551 1.324.144 1.691.497 1.952.852.261.355.47.987.369 1.98a3.704 3.704 0 0 0-.002.021c-.382 3.945-2.586 8.158-3.514 9.786a3.704 3.704 0 0 0 2.842 5.517l4.703.48a3.704 3.704 0 0 0 3.928-2.636c.467-1.585 1.822-5.994 2.365-10.89a3.704 3.704 0 0 0 0-.018c.539-5.073-.094-9.612-2.31-13.219-2.215-3.604-6.12-5.932-10.586-6.42h-.002c-4.345-.483-8.173.987-10.93 3.19-2.758 2.203-4.66 4.978-6.352 7.51-1.69 2.53-3.194 4.842-4.535 6.183-1.341 1.34-2.04 1.703-3.43 1.553a3.704 3.704 0 0 0-.054-.006c-2.06-.193-2.487-.701-2.873-1.336-.387-.636-.619-1.878-.442-3.375a3.704 3.704 0 0 0 .006-.051c.4-3.83 3.289-8.57 4.362-9.963a3.704 3.704 0 0 0-2.51-5.94l-5.25-.603a3.704 3.704 0 0 0-.484-.025zm30.28 10.324c-2.372.588-4.427 1.965-5.918 3.537-.996 1.05-1.845 2.19-2.649 3.342 1.493-2.2 2.974-4.166 4.473-5.363 1.246-.996 2.513-1.428 4.094-1.516zm-33.76 5.389v.023c-.001.01-.005.018-.006.027zm24.685 2.213c-.727 1.081-1.425 2.173-2.117 3.218-1.588 2.4-3.188 4.536-4.834 5.84-1.645 1.303-3.141 1.929-5.658 1.672-.095-.01-.157-.039-.25-.05 3.041-.25 5.702-1.758 7.567-3.622 2.172-2.171 3.736-4.715 5.292-7.058zm-526.785 3.587a3.704 3.704 0 0 0-.68.059l-9.216 1.676a3.704 3.704 0 0 0-2.95 4.472l.256 1.116a3.704 3.704 0 0 0-2.68-.457l-13.36 2.81a3.704 3.704 0 0 0-1.044.393 3.704 3.704 0 0 0-4.283-2.287l-9.275 2.119a3.704 3.704 0 0 0-2.799 4.377l6.414 30.347a3.704 3.704 0 0 0 4.375 2.86l1.332-.276a3.704 3.704 0 0 0 2.95-3.752c-.05-1.481-.073-2.527-.04-3.103.528-.173 1.512-.41 2.975-.707a3.704 3.704 0 0 0 .02-.004l34.15-7.143a3.704 3.704 0 0 0 2.863-4.402l-5.404-25.172a3.704 3.704 0 0 0-3.604-2.926zm512.028 7.149h.02c.01 0 .02.005.032.006zm-522.817 3.064a3.704 3.704 0 0 0 2.428.52c2.104-.28 2.752.043 2.758.047.006.004.246.15.549 1.535a3.704 3.704 0 0 0 .004.017l1.535 6.864c.045.259.029.287.047.476-.09.022-.064.025-.164.047l-10.467 2.17-.871-4.033c-.25-1.217-.06-1.296-.04-1.324.022-.029.384-.384 1.606-.643a3.704 3.704 0 0 0 2.873-4.31zM20.1 352.463a3.704 3.704 0 0 0 3.49 2.39c1.132-.007 1.78.074 1.865.112.085.037.143-.266.441 1.113l.002.004.827 4.012-8.532 1.83c-.035-.143-.058-.145-.09-.318a3.704 3.704 0 0 0-.03-.155l-1.12-4.902v-.004c-.374-1.67-.211-2.491-.11-2.686.103-.194.331-.625 2.317-1.054a3.704 3.704 0 0 0 .94-.342zm528.017 7.555a3.704 3.704 0 0 0-3.601 2.75l-1.842 6.918a3.704 3.704 0 0 0 2.601 4.525l42.668 11.664a3.704 3.704 0 0 0 4.639-3.012l2.074-13.543a3.704 3.704 0 0 0-2.869-4.18l-1.297-.283a3.704 3.704 0 0 0-4.19 2.145c-.646 1.493-1.179 2.398-1.45 2.883a28.523 28.523 0 0 1-2.05-.46l-.013-.003-33.71-9.272a3.704 3.704 0 0 0-.96-.133zm-496.162 1.988.016.072-.24.051c.025-.012.052-.013.078-.025.047-.023.098-.073.146-.098zm-18.693 3.941a3.704 3.704 0 0 0 .11.022l-.202.043a3.704 3.704 0 0 0 .092-.065zm-15.807 3.498c-.263.09-.54.259-.812.38l-.063-.304c.318.013.584-.055.875-.076zm568.477 7.9-.043.288-1.02-.28a8.18 8.18 0 0 0 1.063-.007zM62.33 379.993a3.704 3.704 0 0 0-2.51.987l-33.953 31.447a3.704 3.704 0 0 0-.898 4.148l4.681 11.184a3.704 3.704 0 0 0 4.686 2.049l1.435-.524a3.704 3.704 0 0 0 2.305-4.453c-.215-.792-.245-.946-.365-1.424.629-.064 1.297-.128 1.766-.17l37.427-1.882a3.704 3.704 0 0 0 3.213-5.17l-1.564-3.618a3.704 3.704 0 0 0-3.582-2.228l-11.719.578-4.33-10.361 8.512-7.95a3.704 3.704 0 0 0 .894-4.123l-2.568-6.205a3.704 3.704 0 0 0-3.43-2.285zm473.66 16.317a3.704 3.704 0 0 0-3.355 2.171l-2.992 6.582a3.704 3.704 0 0 0 1.83 4.9l33.404 15.286-.236.486a3.704 3.704 0 0 0-.045.096c-.883 1.957-1.565 2.47-1.637 2.502-.072.032-.504.205-2.303-.617a3.704 3.704 0 0 0-4.92 1.855l-.779 1.74a3.704 3.704 0 0 0 1.912 4.913l8.744 3.779a3.704 3.704 0 0 0 4.834-1.852l13.871-30.138a3.704 3.704 0 0 0-1.697-4.854l-8.344-4.209a3.704 3.704 0 0 0-5.01 1.71l-.792 1.66a3.704 3.704 0 0 0 1.505 4.816c1.775 1.012 2.089 1.57 2.104 1.615.015.045.12.705-.771 2.69v.001l-.303.647-33.451-15.438a3.704 3.704 0 0 0-1.569-.341zM50.762 408.16l1.39 3.326-5.043.229zm-16.832 6.897a3.704 3.704 0 0 0-.022 1.49 3.704 3.704 0 0 0-.103.04c-.22.093-.425.26-.643.38l-.361-.865zm46.306 19.195c-4.943.073-10.29 2.149-16.459 6.434a3.704 3.704 0 0 0-.017.013c-7.924 5.574-12.007 11.522-12.541 17.77-.535 6.248 2.32 11.869 5.955 17.193a3.704 3.704 0 0 0 .021.03l10.239 14.685a3.704 3.704 0 0 0 4.972 1.041l1.281-.785a3.704 3.704 0 0 0 1.399-4.772c-.636-1.314-1.059-2.23-1.256-2.761.44-.382 1.29-1.005 2.55-1.875a3.704 3.704 0 0 0 .015-.01l28.505-19.848a3.704 3.704 0 0 0 .932-5.145l-5.447-7.878a3.704 3.704 0 0 0-.016-.026c-2.432-3.459-4.956-6.858-8.152-9.539-3.196-2.681-7.262-4.597-11.98-4.527zm431.535 7.676a3.704 3.704 0 0 0-3.001 1.55l-4.122 5.776a3.704 3.704 0 0 0 .893 5.187l15.889 11.106 10.795 23.67a3.704 3.704 0 0 0 6.423.556l2.354-3.43a3.704 3.704 0 0 0 .314-3.628l-6.593-14.48 15.554 1.357a3.704 3.704 0 0 0 3.362-1.572l6.91-9.918a3.704 3.704 0 0 0-.883-5.13l-1.18-.845a3.704 3.704 0 0 0-4.828.447c-1.204 1.254-1.793 1.835-2.1 2.002-.305.168-.739.358-2.593.225a3.704 3.704 0 0 0-.03-.002l-19.253-1.223-15.782-10.984a3.704 3.704 0 0 0-2.129-.664zM83.434 447.3c2.293 0 4.248 1.053 7.271 5.314.264.394.288.462.379.63-.148.126-.198.19-.47.38l-24.16 16.814c-.12-.151-.32-.315-1.077-1.326-2.987-4.385-2.958-6.302-1.916-8.455 1.046-2.163 4.188-4.943 8.805-8.138a3.704 3.704 0 0 0 .017-.012c5.145-3.602 8.851-5.207 11.15-5.207zm14.043 9.861.162.234-.573.399c.154-.168.266-.435.41-.633zm-27.895 19.899c-.23.183-.54.373-.758.566-.245.218-.47.517-.71.775l-.346-.498c.689-.184 1.25-.515 1.814-.843zm429.563 14.957a43.926 43.926 0 0 0-28.245 10.367 44.613 44.613 0 0 0-15.277 25.875 3.704 3.704 0 0 0 3.662 4.396c9.837-.063 19.936-3.536 28.162-10.406a3.704 3.704 0 0 0 .002-.002c8.266-6.913 13.495-16.157 15.336-25.836a3.704 3.704 0 0 0-3.64-4.394zm-394.944.039.004.004a3.704 3.704 0 0 0-3.695 3.699 3.704 3.704 0 0 0 .064.69l.004.011a3.704 3.704 0 0 0 .166.59c1.93 9.436 7.08 18.425 15.21 25.24a3.704 3.704 0 0 0 .017.016c8.236 6.818 18.299 10.311 28.224 10.351a3.704 3.704 0 0 0 3.647-4.422c-1.91-9.656-7.043-18.962-15.35-25.85-8.084-6.826-17.98-10.172-27.68-10.278a3.704 3.704 0 0 0-.564-.047c-.015 0-.031-.004-.047-.004zm349.297 1.435a3.704 3.704 0 0 0-1.379.309c-10.976 4.79-20.602 12.844-27.433 23.594a3.704 3.704 0 0 0-.004.004c-6.817 10.761-10.02 22.818-9.772 34.73a3.704 3.704 0 0 0 2.014 3.219c10.627 5.449 22.868 7.941 35.619 6.521h.004c12.711-1.373 24-6.594 33.176-14.213a3.704 3.704 0 0 0-.682-6.148c-10.65-5.433-22.882-8.047-35.525-6.512-1.708.162-3.333.584-4.996.89.996-1.317 2.074-2.557 2.968-3.962l.002-.002c6.908-10.814 10.115-22.892 9.813-34.82a3.704 3.704 0 0 0-3.805-3.61zm-303.662.035a3.704 3.704 0 0 0-3.775 3.621c-.263 11.883 2.78 23.993 9.734 34.788.898 1.402 1.972 2.624 2.965 3.931-1.616-.306-3.188-.733-4.854-.894-12.752-1.506-25.063 1.105-35.617 6.506a3.704 3.704 0 0 0-.682 6.144c9.198 7.649 20.487 12.875 33.192 14.262 12.764 1.413 24.99-1.082 35.576-6.518a3.704 3.704 0 0 0 2.012-3.219c.247-11.912-2.86-23.982-9.725-34.76a3.704 3.704 0 0 0-.002-.003c-6.87-10.751-16.539-18.786-27.41-23.547a3.704 3.704 0 0 0-1.414-.31zm344.312 6.332a37.447 37.447 0 0 1-11.45 16.707c-5.464 4.562-11.933 7.247-18.434 8.215 2.12-6.26 5.9-12.151 11.382-16.71a3.704 3.704 0 0 0 .022-.018c5.47-4.623 11.958-7.271 18.48-8.194zm-384.943.02c6.554.899 13.033 3.54 18.518 8.176a3.704 3.704 0 0 0 .029.023c5.526 4.577 9.29 10.447 11.434 16.715-6.538-.956-12.989-3.641-18.485-8.19l-.006-.004c-5.575-4.68-9.38-10.524-11.49-16.72zm340.395 3.6c-.763 8.415-3.435 16.758-8.354 24.458a3.704 3.704 0 0 0-.004.006c-2.991 4.705-6.749 8.94-10.838 12.495a3.704 3.704 0 0 0 3.985 6.158c4.898-2.267 10.22-3.705 15.859-4.235a3.704 3.704 0 0 0 .103-.01c8.913-1.092 17.558.246 25.543 3.288-7.084 4.699-15.174 7.899-24.154 8.867a3.704 3.704 0 0 0-.014.002c-10.464 1.166-20.405-.737-29.29-4.842.209-9.724 2.905-19.464 8.503-28.303 4.857-7.641 11.32-13.615 18.66-17.885zm-295.836.042c7.29 4.256 13.779 10.224 18.654 17.852 5.62 8.825 8.25 18.555 8.447 28.313-8.847 4.09-18.773 5.996-29.252 4.835a3.704 3.704 0 0 0-.006 0c-8.983-.98-17.073-4.188-24.172-8.91 7.937-3.008 16.648-4.351 25.649-3.28a3.704 3.704 0 0 0 .082.01c5.554.532 10.824 2.035 15.912 4.28a3.704 3.704 0 0 0 3.893-6.213c-4.179-3.548-7.89-7.703-10.944-12.474a3.704 3.704 0 0 0-.006-.01c-4.917-7.634-7.51-15.97-8.258-24.403zm33.965 13.93a3.704 3.704 0 0 0-3.631 3.7 3.704 3.704 0 0 0 .04.542 3.704 3.704 0 0 0 .128.56 3.704 3.704 0 0 0 .004.013c1.844 11.626 7.162 22.793 15.74 31.988l.004.004c1.12 1.214 2.395 2.226 3.6 3.334-1.669-.025-3.294-.167-5.014-.055a3.704 3.704 0 0 0-.012 0c-12.69.867-24.273 5.543-33.719 12.785a3.704 3.704 0 0 0 .412 6.155c10.304 5.905 22.429 9.005 35.159 8.132a61.928 61.928 0 0 0 33.783-12.794 3.704 3.704 0 0 0 1.435-2.928v-.03a3.704 3.704 0 0 0-.043-.568c-1.828-11.794-7.118-23.129-15.677-32.484a3.704 3.704 0 0 0-.034-.037c-8.647-9.204-19.357-15.204-30.79-18.077a3.704 3.704 0 0 0-.39-.123c-.015-.004-.03-.011-.046-.015l.002.004a3.704 3.704 0 0 0-.951-.106zm227.718.008a3.704 3.704 0 0 0-.869.108l.006-.006c-.026.006-.05.017-.076.023a3.704 3.704 0 0 0-.363.117c-11.355 2.857-21.985 8.897-30.647 18.06a3.704 3.704 0 0 0-.03.032 62.696 62.696 0 0 0-15.837 32.434 3.704 3.704 0 0 0-.049.601v.037a3.704 3.704 0 0 0 1.455 2.944c9.478 7.237 21.117 11.957 33.875 12.8 12.7.888 24.82-2.233 35.196-8.127a3.704 3.704 0 0 0 .421-6.16c-9.453-7.236-21.01-11.9-33.836-12.746-1.68-.123-3.31.016-4.966.035 1.208-1.108 2.479-2.114 3.61-3.34a3.704 3.704 0 0 0 .005-.006c8.49-9.241 13.8-20.383 15.656-32.007a3.704 3.704 0 0 0 .123-.54 3.704 3.704 0 0 0 .002-.011 3.704 3.704 0 0 0 .041-.549 3.704 3.704 0 0 0-3.716-3.7zm-222.611 9.174c7.991 2.901 15.406 7.55 21.65 14.19 7.024 7.682 11.407 16.838 13.301 26.398-7.898 5.596-17.435 9.309-27.838 9.998a3.704 3.704 0 0 0-.008 0c-9.003.618-17.595-1.093-25.36-4.457 7.255-4.379 15.53-7.22 24.513-7.834 5.852-.382 11.257.154 16.603 1.404a3.704 3.704 0 0 0 2.693-6.816c-4.723-2.72-9.148-6.176-12.947-10.295a3.704 3.704 0 0 0-.014-.016 53.76 53.76 0 0 1-12.593-22.572zm217.582.021c-2.237 8.146-6.385 15.912-12.531 22.602-3.8 4.118-8.195 7.516-12.854 10.258a3.704 3.704 0 0 0 2.727 6.797c5.203-1.224 10.773-1.76 16.406-1.346a3.704 3.704 0 0 0 .027.002c9.097.597 17.357 3.419 24.608 7.787-7.82 3.376-16.412 5.096-25.385 4.467a3.704 3.704 0 0 0-.016-.002c-10.418-.69-19.906-4.395-27.93-10.022 1.977-9.556 6.355-18.697 13.434-26.369a55.977 55.977 0 0 1 21.514-14.174zM229.5 534.217a3.704 3.704 0 0 0-3.393 4.92c3.904 11.223 11.105 21.469 21.332 29.2a3.704 3.704 0 0 0 .051.038c1.34.978 2.756 1.729 4.137 2.588-1.634.28-3.283.448-4.895.857-12.34 3.114-23.058 9.842-30.93 18.621a3.704 3.704 0 0 0 1.512 5.961c11.2 4.005 23.654 4.796 36.057 1.684a3.704 3.704 0 0 0 .006-.002c12.351-3.125 23.02-9.79 30.938-18.568a3.704 3.704 0 0 0 .742-3.715c-3.968-11.233-11.084-21.513-21.358-29.186a3.704 3.704 0 0 0-.011-.008c-10.289-7.62-22.04-11.688-33.864-12.385a3.704 3.704 0 0 0-.324-.006zm144.271 0a3.704 3.704 0 0 0-.154.006 62.314 62.314 0 0 0-33.918 12.369c-10.393 7.683-17.378 17.999-21.422 29.168a3.704 3.704 0 0 0 .73 3.738c7.947 8.83 18.6 15.466 30.997 18.588 12.367 3.115 24.899 2.332 36.084-1.652a3.704 3.704 0 0 0 1.494-5.985c-7.989-8.76-18.55-15.518-30.928-18.627-1.635-.415-3.258-.574-4.886-.853 1.4-.872 2.84-1.633 4.195-2.631a3.704 3.704 0 0 0 .037-.027 62.494 62.494 0 0 0 21.316-29.163 3.704 3.704 0 0 0-3.545-4.931zm-5.925 8.193c-3.681 7.603-9.085 14.521-16.287 19.969a57.153 57.153 0 0 1-14.705 7.805 3.704 3.704 0 0 0 1.435 7.185A55.082 55.082 0 0 1 354.83 579a3.704 3.704 0 0 0 .01.004c8.734 2.192 16.379 6.508 22.742 12.113-8.217 1.894-17.008 1.994-25.77-.213-10.156-2.558-18.845-7.843-25.632-14.763 3.693-9.114 9.47-17.348 17.93-23.6a3.704 3.704 0 0 0 .021-.015c7.189-5.394 15.367-8.688 23.715-10.116zm-132.276.016c8.29 1.438 16.385 4.71 23.707 10.133l.002.002c8.384 6.264 14.246 14.497 17.873 23.585-6.768 6.886-15.488 12.2-25.591 14.756h.008c-8.818 2.213-17.564 2.102-25.782.186 6.308-5.567 14.048-9.89 22.762-12.088a3.704 3.704 0 0 0 .004 0c5.431-1.378 11.103-1.932 16.53-1.646a3.704 3.704 0 0 0 1.435-7.188c-5.104-1.815-9.988-4.368-14.63-7.754-7.25-5.486-12.656-12.39-16.317-19.986zm66.11 23.49c-6.504.002-11.825 5.332-11.825 11.771 0 6.476 5.352 11.786 11.83 11.778 6.417-.001 11.792-5.24 11.792-11.72a3.704 3.704 0 0 0 0-.048c-.083-6.415-5.306-11.79-11.797-11.781zm.004 7.408a3.704 3.704 0 0 0 .006 0c2.47-.004 4.332 1.889 4.377 4.446-.014 2.474-1.882 4.287-4.383 4.287a3.704 3.704 0 0 0-.006 0c-2.592.004-4.416-1.818-4.416-4.37 0-2.457 1.855-4.363 4.422-4.363z" style="color:#000;font-style:normal;font-variant:normal;font-weight:400;font-stretch:normal;font-size:medium;font-family:sans-serif;font-variant-ligatures:normal;font-variant-position:normal;font-variant-caps:normal;font-variant-numeric:normal;font-variant-alternates:normal;font-variant-east-asian:normal;font-feature-settings:normal;text-indent:0;text-decoration:none;text-decoration-line:none;text-decoration-style:solid;text-decoration-color:#000;letter-spacing:normal;word-spacing:normal;text-transform:none;writing-mode:lr-tb;direction:ltr;text-orientation:mixed;dominant-baseline:auto;baseline-shift:baseline;text-anchor:start;clip-rule:nonzero;display:inline;overflow:visible;visibility:visible;color-interpolation:sRGB;vector-effect:none;fill:#fff;fill-opacity:1;fill-rule:nonzero;stroke:none;stroke-width:7.40741;stroke-linecap:butt;stroke-linejoin:round;stroke-miterlimit:4;stroke-dasharray:none;stroke-dashoffset:0;stroke-opacity:1;color-rendering:auto;image-rendering:auto;shape-rendering:auto;text-rendering:auto;enable-background:accumulate;stop-color:#000"/><path d="m280.837 3.704-13.476 2.3.087 1.385c6.349.597 6.524.596 6.8 6.05l1.93 35.029 26.212-1.463-.262-9.386-1.806.073c.4 5.985-3.277 6.458-7.296 6.771l-5.606.226c-4.289.27-4.288.27-4.543-4.543zm52.711 1.255-13.536.322-.146 1.375c6.124 1.318 6.35 1.464 5.892 6.896l-2.978 34.877 7.076.648zm39.662 6.952c-9.755-.086-14.588 7.582-17.248 17.344-3.86 13.914-1.318 23.423 11.519 26.969 6.225 1.806 11.715 1.522 13.404 1.296l1.217-4.019c-2.068.655-6.408 1.857-11.818.4-12.13-3.385-8.978-17.357-7.063-24.253 1.77-6.473 5.985-16.434 14.468-14.075 5.774 1.602 5.883 6.24 5.563 8.301l7.514 2.075c.757-5.177-1.885-10.426-11.613-13.157-2.162-.583-4.137-.865-5.943-.88zm-141.39.398c-1.724-.017-3.604.209-5.656.696-13.608 3.276-15.385 12.705-12.093 26.263 3.247 13.514 9.319 20.67 22.556 17.445 13.186-3.029 15.108-12.37 11.875-25.752-2.648-11.39-7.379-18.561-16.683-18.652zm-2.394 3.329c7.646.066 10.411 9.526 12.166 16.982 1.959 8.111 4.151 18.894-5.62 21.152-9.56 2.286-13.106-8.432-15.013-16.165-1.974-8.54-3.817-19.265 5.933-21.675.9-.207 1.744-.3 2.534-.294zm-47.453 13.764-6.451 3.16 8.672 17.409-15.7 7.79-8.947-17.83-11.483 7.296.662 1.36c5.563-2.27 6.174-1.806 8.483 2.796l15.713 31.266 6.408-3.232-9.474-18.779 15.786-7.944 9.341 18.923 6.466-3.21zM443.35 39.491l-.843 1.23c4.965 3.991 5.118 4.085 2.322 8.803L434.14 67.268c-5.046 8.25-4.23 14.993 5.52 20.854 12.516 7.594 17.722.408 22.222-6.917l13.79-22.972-3.918-2.432-14.278 23.533c-3.334 5.614-7.011 11.715-15.567 6.647-7.878-4.857-3.837-11.467 0-17.743l13.733-22.9zM130.26 58.756 104.25 79.245l5.541 7.653 1.434-1.217c-2.563-3.968-2.373-6.123 1.537-9.29l3.553-2.84 25.033 31.95 5.592-4.442-25.077-31.84 3.467-2.701c3.96-3.044 6.516-3.132 9.545.742l1.456-1.18zM301.7 64.68C219.53 123.847 109.417 293.23 99.441 426.95c46.352 28.2 148.005 39.82 202.286 39.85 54.296 0 155.817-11.657 202.155-39.865C493.95 293.237 383.758 123.825 301.699 64.68Zm191.202 8.44-.954.961c3.138 4.74 4.02 5.075-.175 9.546l-24.58 25.221 2.955 2.87 25.58-26.446.189.088-10.333 41.27 4.472 4.433 30.268-31.302-2.906-2.853-24.538 25.31-.072-.146 9.925-39.465zM80.066 104.518l-8.01 9.168 1.107.88c1.923-1.747 3.547-3.487 5.52-1.747.342.364 1.5 2.307 2.177 3.268l18.043 33.043 2.547-3.037-6.85-12.523 10.9-12.407 13.287 5.3 4.442-5.082zm3.306 8.549 19.062 7.003-9.392 10.675zm449.726 2.511-1.063.917c3.277 5.389 3.372 5.55-.982 8.965l-27.487 21.653 4.34 5.635 34.826-27.34zM56.782 141.706c-3.625-.038-7.686 2.065-11.73 7.806-8.352 11.68-2.28 20.373 7.565 27.363 11.715 8.41 21.631 9.168 29.226-1.71 3.713-5.162 5.387-10.551 5.839-12.146l-3.4-2.343c.05 2.067-.423 6.458-3.707 11.14-7.237 10.142-19.236 2.475-25.178-1.72-5.453-3.829-13.303-11.176-8.213-18.385 3.459-4.827 7.74-3.457 9.685-2.387l4.542-6.378c-1.424-.763-2.982-1.223-4.63-1.24zm497.13 1.309-1.318.692c1.616 5.01 1.937 5.526-2.257 10.186l-24.888 27.923 2.636 5.017 45.893-7.02-2.038-3.632-37.113 6.079v-.065l25.092-28.098zm28.072 57.279-1.303.386c.75 5.963.793 6.175-5.308 8.192l-33.122 10.076 7.448 24.72 9.05-2.628-.56-1.798c-4.885 1.18-6.633-.161-7.754-3.598l-2.062-6.793c-.939-3.196-1.099-4.026 2.36-5.126l13.834-4.237 2.22 7.58c1.217 3.647-.362 5.62-3.704 6.662l.502 1.688 12.989-3.938-.582-1.654c-2.112.073-4.966.517-6.254-3.757l-2.295-7.346 12.292-3.845c3.021-.997 3.508-.19 4.433 2.949l1.493 4.755c1.208 4.15.757 7.084-4.187 8.635l.437 1.821 9.145-3.109zM13.916 224.126l-.955 4.588 26.774 5.796c6.407 1.383 13.557 2.89 11.336 12.595-1.98 9.014-9.546 7.369-16.747 5.796l-26.175-5.643-1.385 13.652 1.347.211c2.156-5.963 2.353-6.138 7.625-4.929l20.285 4.37c9.283 2.074 15.531-.896 17.89-11.978 3.16-14.264-5.402-16.966-13.783-18.808zm582.543 32.943-1.486.072c-.473 6.174-.452 6.233-6.808 6.837l-34.635 2.884.61 7.135 20.075-1.719.313 3.918-19.077 13.106.561 7.456 20.249-13.66c1.296 5.068 4.208 9.677 11.57 8.949 11.475-.94 10.382-14.176 9.901-19.157zm-4.904 13.73c2.303.008 3.044.832 3.339 4.043.386 5.454-1.144 9.618-8.177 10.171-7.158.502-8.84-5.228-9.219-9.356l-.341-3.684 11.533-.969c1.156-.12 2.097-.208 2.865-.205zm-576.94 13.015c-5.089.073-9.893 3.83-10.803 13.39-1.238 14.198 7.375 18.967 20.037 20.19 14.213 1.267 23.445-2.425 24.792-16.397.56-5.789-.597-11.962-1.347-14.795l-22.717-2.01-1.239 13.566 1.494.014c1.529-5.461 1.5-6.291 7.296-5.767l12.989 1.157c.618 1.922.845 3.72.693 6.087-.998 10.12-10.188 11.942-20.775 10.995-8.33-.72-19.156-2.635-18.253-11.817.502-5.505 4.783-6.895 7.2-6.888zm542.012 34.443c-.35 1.332-2.272 6.153-2.775 11.17-.99 8.876 1.755 16.462 10.93 17.467 13.804 1.412 15.122-19.615 24.915-18.617 4.289.459 5.972 3.488 5.622 6.895-.48 4.966-3.007 9.552-3.983 11.263l4.704.48c.48-1.63 1.74-5.788 2.235-10.251.961-9.05-2.512-14.796-9.625-15.567-13.602-1.515-14.767 19.572-25.238 18.436-5.832-.546-7.128-4.77-6.647-8.833.531-5.104 3.72-10.033 5.111-11.839zM50.97 339.77l-9.218 1.674.387 1.682c5.053-.67 6.632.896 7.411 4.464l1.566 6.99c.582 3.246.583 4.026-2.949 4.82l-14.126 2.926-1.652-7.659c-.772-3.757.99-5.607 4.427-6.335l-.336-1.777-13.36 2.811.444 1.784c2.017-.015 5.01-.24 5.956 4.151l1.573 7.645-12.662 2.715c-3.015.597-3.365-.101-3.969-3.385l-1.121-4.915c-.932-4.143-.153-7.056 5.039-8.177l-.525-1.726-9.275 2.12 6.413 30.347 1.333-.276c-.204-6.051-.291-6.306 5.898-7.566l34.15-7.142zm497.125 23.951-1.842 6.917 42.668 11.664 2.075-13.543-1.296-.284c-2.52 5.81-2.629 5.86-7.827 4.536zM62.337 383.695l-33.952 31.448 4.681 11.184 1.436-.524c-.714-2.621-1.683-4.79.727-5.796.452-.145 2.833-.364 3.969-.466l37.52-1.886-1.565-3.618-14.316.706-6.327-15.138 10.397-9.706zm473.67 16.318-2.992 6.583 36.85 16.863-1.894 3.895c-2.082 4.616-4.347 5.789-8.854 3.728l-.778 1.74 8.744 3.78 13.87-30.138-8.344-4.208-.794 1.66c4.15 2.367 4.973 4.377 2.876 9.044l-1.892 4.034zM52.077 401.71l5.534 13.238-20.068.91zm28.212 36.245c-3.926.058-8.598 1.745-14.4 5.774-14.853 10.449-12.544 19.754-5.656 29.846L70.47 488.26l1.282-.786c-2.65-5.475-2.753-5.658 2.526-9.298l28.505-19.848-5.445-7.88c-4.769-6.78-9.553-12.604-17.049-12.494zm3.144 5.643c3.715 0 6.937 2.13 10.315 6.902 2.52 3.72 1.048 4.719-1.012 6.16L68.41 473.59c-2.578 1.82-3.793.75-6.058-2.33-6.888-10.07-1.653-15.24 7.805-21.786 5.352-3.746 9.56-5.876 13.276-5.876zm428.35 2.034-4.121 5.774 16.717 11.685 11.214 24.59 2.353-3.43-9.226-20.257 21.879 1.908 6.911-9.917-1.18-.845c-2.272 2.366-3.167 3.677-7.63 3.356l-20.286-1.287zm-12.637 50.09a40.242 40.242 0 0 0-25.87 9.502 40.93 40.93 0 0 0-14.015 23.73c8.977-.058 18.26-3.24 25.811-9.546 7.61-6.364 12.392-14.847 14.074-23.686zm-394.933.039c1.667 8.81 6.459 17.271 14.119 23.693 7.572 6.27 16.811 9.466 25.876 9.502-1.754-8.868-6.465-17.41-14.095-23.73a39.97 39.97 0 0 0-25.9-9.465zm349.386 1.435c-10.31 4.5-19.353 12.058-25.79 22.186-6.429 10.15-9.43 21.472-9.197 32.67 10.012 5.134 21.502 7.477 33.523 6.138 11.956-1.289 22.55-6.182 31.221-13.383-10.077-5.14-21.573-7.587-33.456-6.131-6.043.568-11.781 2.112-17.067 4.559 4.34-3.772 8.33-8.265 11.533-13.303 6.517-10.201 9.517-21.53 9.233-32.736zm-303.836.036c-.248 11.198 2.606 22.55 9.145 32.7 3.261 5.096 7.223 9.53 11.665 13.301-5.396-2.381-11.06-4.004-17.053-4.579-12-1.427-23.584 1.026-33.545 6.123 8.694 7.23 19.282 12.124 31.23 13.427 12.036 1.332 23.51-1.013 33.478-6.131.233-11.22-2.68-22.543-9.145-32.693-6.473-10.128-15.567-17.678-25.775-22.148zm38.038 23.92c1.645 11.088 6.698 21.77 14.919 30.58 4.07 4.413 8.79 8.097 13.82 10.995-5.664-1.326-11.468-1.901-17.7-1.493-11.942.815-22.82 5.207-31.718 12.03 9.706 5.562 21.094 8.474 33.072 7.651a58.23 58.23 0 0 0 31.76-12.028v-.03c-1.718-11.08-6.683-21.734-14.75-30.551-8.265-8.796-18.467-14.49-29.403-17.155zm227.659.008c-10.842 2.643-20.978 8.373-29.27 17.147-8.141 8.818-13.085 19.462-14.905 30.522v.036c8.934 6.823 19.87 11.257 31.87 12.05 11.941.838 23.33-2.089 33.122-7.652-8.912-6.822-19.755-11.198-31.841-11.992-6.044-.444-11.984.132-17.525 1.435 4.937-2.905 9.625-6.525 13.702-10.944 8.14-8.861 13.187-19.52 14.847-30.602zm-185.855 16.76c3.67 10.551 10.428 20.176 20.068 27.465 4.937 3.604 10.157 6.334 15.603 8.27-5.81-.305-11.839.285-17.634 1.756-11.607 2.927-21.699 9.269-29.082 17.504 10.529 3.764 22.214 4.514 33.908 1.58 11.628-2.942 21.662-9.217 29.096-17.46-3.743-10.594-10.42-20.235-20.081-27.45-9.713-7.194-20.752-11.009-31.878-11.664zm144.216 0a58.613 58.613 0 0 0-31.914 11.643c-9.764 7.216-16.318 16.878-20.148 27.458 7.463 8.293 17.469 14.534 29.148 17.475 11.65 2.935 23.43 2.192 33.937-1.55-7.536-8.265-17.468-14.614-29.103-17.534a58.878 58.878 0 0 0-17.642-1.74 60.89 60.89 0 0 0 15.668-8.316 58.762 58.762 0 0 0 20.054-27.435zm-72.139 31.7c-4.536 0-8.125 3.619-8.125 8.068 0 4.514 3.59 8.081 8.125 8.074 4.464 0 8.09-3.531 8.09-8.016-.057-4.493-3.604-8.132-8.09-8.125z" style="color:#000;font-style:normal;font-variant:normal;font-weight:400;font-stretch:normal;font-size:medium;font-family:sans-serif;font-variant-ligatures:normal;font-variant-position:normal;font-variant-caps:normal;font-variant-numeric:normal;font-variant-alternates:normal;font-variant-east-asian:normal;font-feature-settings:normal;text-indent:0;text-decoration:none;text-decoration-line:none;text-decoration-style:solid;text-decoration-color:#000;letter-spacing:normal;word-spacing:normal;text-transform:none;writing-mode:lr-tb;direction:ltr;text-orientation:mixed;dominant-baseline:auto;baseline-shift:baseline;text-anchor:start;clip-rule:nonzero;display:inline;overflow:visible;visibility:visible;color-interpolation:sRGB;vector-effect:none;fill:#004098;fill-opacity:1;fill-rule:nonzero;stroke:none;stroke-width:7.40741;stroke-linecap:butt;stroke-linejoin:round;stroke-miterlimit:4;stroke-dasharray:none;stroke-dashoffset:0;stroke-opacity:1;color-rendering:auto;image-rendering:auto;shape-rendering:auto;text-rendering:auto;enable-background:accumulate;stop-color:#000"/><path d="M301.685 78.595c-.124 0-.365.27-.365.459 0 0-7.171 190.287-7.375 193.047-1.056-2.374-23.432-49.244-23.432-49.244-.131-.247-.268-.247-.4-.247-.123.095-.196.248-.196.328v.08s18.719 53.356 19.695 55.643c-1.872-1.617-76.009-68.312-76.009-68.312-.19-.225-.306-.226-.451.014-.095.066-.094.124-.094.146-.066.182-.066.204.094.291 0 0 66.667 74.145 68.37 75.943-2.446-.779-55.744-19.622-55.744-19.622-.117-.051-.3.08-.372.218v.16c0 .123 0 .218.088.254 0 0 47.918 22.885 50.182 23.977-2.68.124-136.166 6.895-136.166 6.895-.073 0-.255.087-.255.262 0 .16.153.365.284.365 0 0 133.45 6.771 136.166 6.902-2.293 1.115-50.19 23.905-50.19 23.905a.374.374 0 0 0-.11.298v.117c.11.175.3.27.409.212 0 0 53.335-18.896 55.752-19.617-1.748 1.871-68.414 75.914-68.414 75.914-.095.139-.094.262-.094.306 0 .029-.001.175.1.218.14.11.191.11.49-.022 0 0 74.114-66.638 75.949-68.378-.947 2.403-19.68 55.752-19.68 55.752v.007c0 .073.073.284.21.284.147.066.27 0 .416-.08 0 0 22.848-47.96 23.918-50.29.11 2.57 6.86 135.16 6.86 135.16 0 .145.284.218.364.218.123 0 .341-.073.341-.218 0 0 6.743-132.59 6.816-135.183 1.063 2.236 23.948 50.313 23.948 50.313.131.08.247.145.596.116a.96.96 0 0 0 .103-.327s-18.873-53.35-19.762-55.753c1.835 1.74 76.03 68.4 76.03 68.4.204.153.474.088.474-.022.073-.022.072-.197.072-.197 0-.087 0-.167-.072-.276 0 0-66.69-74.05-68.364-75.972 2.403.75 55.68 19.644 55.68 19.644.16.102.276-.036.349-.211v-.123a.596.596 0 0 0-.094-.293s-47.86-22.81-50.168-23.896h.014c2.636-.153 136.086-6.931 136.086-6.931.24.036.37-.197.37-.372-.006-.145-.13-.262-.37-.233 0 0-133.516-6.757-136.086-6.895 2.279-1.092 50.19-23.977 50.19-23.977.021-.03.124-.132.124-.38v-.042c-.102-.131-.19-.263-.43-.211 0 0-53.233 18.844-55.68 19.645 1.704-1.842 68.393-75.987 68.393-75.987.073-.044.072-.087.072-.24 0-.029 0-.123-.072-.197 0-.058-.32-.196-.488 0 0 0-74.159 66.703-76.044 68.341.88-2.294 19.746-55.62 19.746-55.62v-.124c0-.109 0-.233-.074-.306-.35 0-.465 0-.574.204 0 0-22.398 46.87-23.46 49.265-.183-2.745-7.347-193.054-7.347-193.054.066-.182-.167-.452-.32-.452zM344.6 409.722c-4.653 0-7.47 2.075-7.47 5.664 0 6.976 10.87 6.518 10.87 11.891.015 3.007-2.105 3.859-4.18 3.873-2.708-.015-5.293-1.427-6.305-2.031v2.665c.648.248 3.218.946 5.7.939 4.595 0 8.317-1.761 8.317-6.589 0-7.048-10.667-6.546-10.667-11.636 0-2.199 1.332-3.232 3.174-3.21 2.52 0 4.98 1.011 5.86 1.426v-2.403a25.676 25.676 0 0 0-5.299-.589zm71.668 0-6.946.743.072.765c3.175.357 3.176.436 3.248 3.188l-.074 17.904h3.765zm37.564.262-15.83.051v.773c3.059.473 3.248.459 3.175 3.757v17.752l13.135.006.007-4.754-.91-.022c-.13 2.563-.997 3.211-2.977 3.233h-3.642c-1.623 0-2.03-.073-2.103-1.93l.072-7.346h4.07c1.93-.036 2.628 1.07 2.628 2.897l.94-.022v-6.983h-.94c-.153 1.034-.443 2.491-2.62 2.52l-4.122-.029.072-6.568c-.029-1.536.438-1.711 2.062-1.733l2.606-.007c2.17 0 3.584.713 3.584 3.342h.872zm-274.005.007-7.456.014.007.815c2.84.604 3.196.437 3.27 3.473l-.075 18.028h2.09V412.78h.16l6.88 19.536h2.28l6.997-19.695v19.702h3.299l.081-22.316h-4.494l-6.494 18.297zm66.687 0v.815c2.97.458 3.088.459 3.088 3.757v17.759l13.245-.007.036-4.732-.932-.036c-.211 2.563-1.078 3.21-2.862 3.232h-3.793c-1.61 0-2.002-.086-2.002-1.929v-7.362l3.968-.022c1.98.036 2.629 1.071 2.629 2.935h.982v-7.005h-.932c-.269 1.034-.422 2.46-2.665 2.475l-3.968.014v-6.581c.015-1.522.415-1.72 2.053-1.726h2.556c2.083.007 3.61.713 3.604 3.342h.903l-.101-4.886zm105.687 0v.802c2.92.488 3.11.486 3.117 3.755v17.79l13.135-.016-.043-4.754-.744-.022c-.371 2.526-1.149 3.21-3.064 3.21h-3.721c-1.573.022-2.046-.043-2.046-1.907v-7.346l4.02-.036c2.023 0 2.751 1.048 2.751 2.912l.91.043.074-7.027-.94.014c-.16 1.02-.466 2.476-2.767 2.461l-4.019.014v-6.545c-.007-1.507.473-1.762 2.046-1.755h2.658c2.14 0 3.51.713 3.582 3.356h.953l-.159-4.907zm-196.869.014v.8c1.333.233 2.65.22 2.65 1.493-.028.284-.538 1.471-.705 1.995l-6.459 18.043 1.96-.014 2.489-6.845 8.482-.014 2.425 6.86 3.452-.03-8.076-22.287zm52.504 0-.072.802c1.37.233 2.607.217 2.534 1.491 0 .32-.357 1.471-.48 2.01l-6.677 18.013h2.163l2.36-6.888 8.489.03 2.425 6.85 3.661.008-8.22-22.316zm17.097 0-.072.8c3 .459 3.073.46 3.073 3.758v17.759h3.676V421.99l2.083-.014 5.76 10.346h3.866l-6.007-10.864c2.526-.422 5.082-1.688 5.082-5.438-.022-6-6.94-6.014-9.43-6zm145.035 0v.802c3.08.458 3.152.459 3.152 3.757v17.752l3.626.022.074-10.348h1.914l5.92 10.326 3.815.007-6.153-10.907c2.68-.342 5.236-1.64 5.163-5.411.058-5.97-6.853-6-9.357-6zm24.05 0-6.466.03v.772c2.694.451 2.963.452 4.019 3.488l6.487 18.02 2.862.007L409 410.034l-2.213-.014-6.226 18.153h-.072zm33.136 0-8.177.03v.772c3.182.459 3.182.459 3.182 3.757v17.758h3.648v-10.39l2.017.043 5.86 10.346h3.831l-6.08-10.877c2.57-.407 5.053-1.69 5.126-5.44 0-6-6.888-6-9.407-6zm-193.3 1.568c2.7 0 4.754 1.013 4.754 4.668.015 3.655-3.08 4.239-5.105 4.253l-1.914-.007v-5.898c0-2.359-.022-3.013 2.265-3.013zm194.11.001h.029c2.789.007 4.871 1.042 4.871 4.624 0 3.692-3.006 4.289-5.22 4.289h-1.82v-5.898c-.036-2.36-.03-2.985 2.14-3.014zm-49.077.01c2.767 0 4.82 1.027 4.82 4.624.007 3.677-2.964 4.267-5.002 4.267h-1.974l.074-5.89c-.044-2.359-.073-3 2.082-3zm-219.598 2.634 3.815 9.742-7.296-.007zm52.548.004 3.625 9.742h-7.157z" style="fill:#fff;fill-opacity:1;stroke-width:7.28119"/></svg>