<svg xmlns="http://www.w3.org/2000/svg" xml:space="preserve" width="984.29681" height="800" viewBox="0 0 984.2968 799.99999"><path d="M928.385-166.854c-203.405 0-369.121 133.869-369.121 299.999 0 166.146 165.716 300.001 369.12 300.001 203.4 0 369.102-133.855 369.102-300.001 0-166.13-165.702-299.999-369.101-299.999z" style="color:#000;font-style:normal;font-variant:normal;font-weight:400;font-stretch:normal;font-size:medium;font-family:sans-serif;font-variant-ligatures:normal;font-variant-position:normal;font-variant-caps:normal;font-variant-numeric:normal;font-variant-alternates:normal;font-variant-east-asian:normal;font-feature-settings:normal;text-indent:0;text-decoration:none;text-decoration-line:none;text-decoration-style:solid;text-decoration-color:#000;letter-spacing:normal;word-spacing:normal;text-transform:none;writing-mode:lr-tb;direction:ltr;text-orientation:mixed;dominant-baseline:auto;baseline-shift:baseline;text-anchor:start;clip-rule:nonzero;display:inline;overflow:visible;visibility:visible;opacity:1;color-interpolation:sRGB;vector-effect:none;fill:#003876;fill-opacity:1;fill-rule:nonzero;stroke:none;stroke-width:8.11933;stroke-linecap:butt;stroke-linejoin:miter;stroke-miterlimit:4;stroke-dasharray:none;stroke-dashoffset:0;stroke-opacity:1;color-rendering:auto;image-rendering:auto;shape-rendering:auto;text-rendering:auto;enable-background:accumulate;stop-color:#000;stop-opacity:1" transform="matrix(1.33333 0 0 -1.33333 -745.685 577.529)"/><path d="M928.385-158.734c199.841 0 360.982 131.162 360.982 291.879 0 160.734-161.14 291.882-360.982 291.882-199.848 0-361.002-131.149-361.002-291.882 0-160.717 161.154-291.88 361.002-291.88z" style="color:#000;font-style:normal;font-variant:normal;font-weight:400;font-stretch:normal;font-size:medium;font-family:sans-serif;font-variant-ligatures:normal;font-variant-position:normal;font-variant-caps:normal;font-variant-numeric:normal;font-variant-alternates:normal;font-variant-east-asian:normal;font-feature-settings:normal;text-indent:0;text-decoration:none;text-decoration-line:none;text-decoration-style:solid;text-decoration-color:#000;letter-spacing:normal;word-spacing:normal;text-transform:none;writing-mode:lr-tb;direction:ltr;text-orientation:mixed;dominant-baseline:auto;baseline-shift:baseline;text-anchor:start;clip-rule:nonzero;display:inline;overflow:visible;visibility:visible;opacity:1;color-interpolation:sRGB;vector-effect:none;fill:#fff;fill-opacity:1;fill-rule:nonzero;stroke:none;stroke-width:8.11933;stroke-linecap:butt;stroke-linejoin:miter;stroke-miterlimit:4;stroke-dasharray:none;stroke-dashoffset:0;stroke-opacity:1;color-rendering:auto;image-rendering:auto;shape-rendering:auto;text-rendering:auto;enable-background:accumulate;stop-color:#000;stop-opacity:1" transform="matrix(1.33333 0 0 -1.33333 -745.685 577.529)"/><path d="M848.989-2.388c-65.774 9.751-115.904 64.851-115.904 133.333 0 68.31 50.817 123.852 116.356 133.815l.744.097c-47.427-26.293-80.157-75.811-80.157-133.912 0-57.556 31.23-106.255 77.999-132.743zM1066.246 130.945c0 69.793-52.186 127.379-119.682 135.836l30.73-135.836h-48.91v-193.97l14.544 57.717c69.226 6.836 123.318 65.23 123.318 136.253" style="fill:#003876;fill-opacity:1;fill-rule:nonzero;stroke:none;stroke-width:5.7259" transform="matrix(1.33333 0 0 -1.33333 -745.685 577.529)"/><path d="M928.384-78.606c148.352 0 268.67 94.867 268.67 211.87 0 116.992-120.318 211.859-268.67 211.859-148.375 0-268.67-94.867-268.67-211.859 0-117.003 120.295-211.87 268.67-211.87z" style="fill:none;stroke:#003876;stroke-width:3.24658;stroke-linecap:butt;stroke-linejoin:miter;stroke-miterlimit:4;stroke-dasharray:none;stroke-opacity:1" transform="matrix(1.33333 0 0 -1.33333 -745.685 577.529)"/><path d="M1010.241-2.388c65.785 9.751 115.887 64.851 115.887 133.333 0 68.31-50.812 123.852-116.322 133.815l-.761.097c47.45-26.293 80.122-75.81 80.122-133.912 0-57.556-31.195-106.255-77.935-132.743zM913.262 266.941c-68.041-7.97-120.874-65.813-120.874-135.996 0-69.094 51.201-126.21 117.707-135.566L879.44 130.945h48.945v196.708zM649.876 10.29c-1.328 2.083-2.748 4.528-4.5 6.24-2.2 2.05-5 2.623-7.124 1.266-2.193-1.397-2.633-4.249-1.603-7.112.773-2.061 2.508-4.603 3.665-6.424l.99-1.535 9.517 6.035zm26.66 2.977-36.52-23.099L633.294.841c-2.737 4.346-5.503 8.337-5.812 13.468-.344 5.016 1.712 9.493 5.365 11.806 3.608 2.28 8.24 2.629 12.786.522 4.758-2.222 7.896-7.599 10.719-12.076l1.036-1.667 13.851 8.75zM612.417 39.938l25.171 9.614c1.855.721 3.814 1.294 5.102 3.023 1.546 2.147 2.016 5.027.882 7.965-.922 2.439-2.949 4.529-5.234 5.216-2.387.71-4.437-.149-6.567-.956l-25.206-9.626-3.515 9.26 25.165 9.624c3.974 1.512 7.907 2.554 12.34.504 4.351-2.05 8.353-6.172 10.312-11.257 1.798-4.735 1.603-10.472-.046-14.687-1.913-4.913-5.491-6.745-9.694-8.36l-25.177-9.613zM598.675 81.33l-1.391 9.837 18.489 2.669-20.871 13.845-1.672 11.767 23.837-17.03 18.924 23.162 1.689-11.79-16.405-19.181 18.758 2.68 1.403-9.826zM621.384 143.914 592.8 128.517l.882 10.92 20.75 10.06-18.889 13.204.836 10.822 25.766-19.703 15.901-1.277-.778-9.894zM621.596 186.063c7.575-2.686 16.742 2.754 20.012 11.99 3.264 9.236-.464 19.21-7.994 21.884-7.667 2.703-16.502-2.594-19.823-12.024-3.366-9.46.15-19.148 7.805-21.85m15.477 43.179c11.818-4.157 16.937-19.445 11.858-33.794-5.056-14.344-18.672-22.984-30.467-18.804-11.853 4.191-17.178 19.29-12.013 33.851 5.153 14.555 18.792 22.938 30.622 18.747M624.83 250.794l6.35 9.179 38.657.446-25.962 17.934 5.635 8.17 35.552-24.54-6.264-9.07-38.639-.613 25.881-17.882-5.634-8.165zM699.073 317.346c-4.753.498-10.307-1.557-14.269-5.165-3.384-3.057-5.789-7.014-6.705-11.068-.968-4.437.063-9.264 2.714-12.19 2.445-2.714 6.522-4.22 10.547-4.037 4.787.132 9.717 2.25 13.553 5.669 4.673 4.254 7.352 10.902 6.408 16.284l-16.634-15.03-5.039 5.594 25.921 23.413.624-.676c8.458-9.379 5.062-25.297-6.292-35.54-11.486-10.347-27.76-12.007-36.268-2.571-8.532 9.453-5.446 25.618 5.96 35.936 8.04 7.272 19.72 10.799 28.31 7.352zM731.476 355.658l9.986 5.022 34.12-18.128-14.217 28.2 8.887 4.454 19.456-38.57-9.843-4.964-34.235 17.98 14.172-28.08-8.858-4.483zM818.177 366.194l-9.413 10.759-1.517-14.206zm-16.507 20.224 7.386 2.342 34.51-34.407-10.438-3.293-8.875 8.893-18.14-5.715-2.273-12.442-10.467-3.315zM846.538 390.271l-9.66-1.866-1.454 7.638 29.265 5.6 1.466-7.638-9.843-1.884 6.66-34.797-9.758-1.855zM871.955 402.416l9.854 1.214 5.228-42.899-9.871-1.18zM903.081 384.145c.138-8 8.457-14.71 18.231-14.55 9.774.172 17.86 7.129 17.733 15.128-.131 8.142-8.205 14.56-18.225 14.378-9.992-.143-17.848-6.843-17.739-14.956m45.887.578c.212-12.511-12.322-22.646-27.53-22.904-15.236-.252-28.062 9.477-28.257 22-.235 12.545 12.093 22.823 27.507 23.063 15.454.252 28.092-9.596 28.28-22.159M961.256 405.434l11.086-1.466 18.019-34.178 4.077 31.275 9.866-1.277-5.589-42.813-10.942 1.426-18.18 34.08-4.117-31.177-9.82 1.3zM1038.974 365.988l-1.947 14.154-9.07-11.056zm-2.685 25.95 7.472-2.102 9.946-47.72-10.565 3.007-2.513 12.305-18.289 5.176-8.749-9.139-10.53 2.995zM1074.12 379.696l9.127-3.865-13.731-32.644 15.088-6.338-3.035-7.17-24.21 10.193zM1135.163 349.04l-14.961-22.412c-1.1-1.65-2.348-3.281-2.388-5.422-.023-2.657 1.265-5.268 3.882-7.015 2.153-1.431 5.033-1.958 7.26-1.208 2.365.802 3.556 2.697 4.81 4.587l14.962 22.405 8.262-5.485-14.95-22.423c-2.393-3.567-4.993-6.67-9.728-7.558-4.764-.853-10.438.206-14.95 3.218-4.232 2.805-7.387 7.592-8.48 11.973-1.277 5.141.59 8.703 3.074 12.436l14.945 22.411zM1169.931 324.647l8.04-7.787-5.979-38.204 21.976 22.68 7.14-6.916-30.072-31.017-7.925 7.672 5.772 38.215-21.913-22.577-7.117 6.9zM1210.224 282.304l6.024-7.873-34.407-26.156-6.012 7.907zM1223.76 265.687l4.902-9.213-22.217-28.154 35.764 2.68 4.907-9.202-47.863-2.01-3.847 7.255zM1250.678 209.911l7.764-27.719-7.507-2.09-5.078 18.14-9.563-2.686 4.873-17.372-7.49-2.101-4.866 17.378-9.574-2.663 5.067-18.174-7.495-2.073-7.747 27.708zM1241.762 150.161c.19-2.616.705-5.903 2.382-7.758 1.323-1.5 3.018-2.245 4.822-2.136 1.866.126 3.664 1.283 4.638 3.23 1.23 2.427 1.19 4.763.956 7.512l-.407 5.491-12.774-.916zm19.446 16.789 1.105-15.483c.292-5.073.372-9.86-2.05-14.097-2.296-4.003-6.155-6.688-10.17-6.969-3.166-.234-7.197 1.306-9.705 3.756-2.473 2.411-3.928 5.583-4.821 9.173l-14.927-15.597-.83 12.22 15.51 15.201-16.501-1.168-.71 9.9zM1231.17 116.058c-3.407.435-5.835-2.754-6.339-6.705-.481-3.75 1.386-7.192 4.495-7.593 4.735-.612 6.745 4.1 8.457 8.343 1.386 3.39 2.582 6.321 5.113 8.698 2.49 2.307 5.812 3.498 8.778 3.115 7.026-.888 11.246-8.738 10.175-17.241-1.065-8.217-7.46-14.916-14.183-13.966l1.323 10.14c2.673-.205 4.815 2.303 5.233 5.4.4 3.23-1.288 5.577-3.86 5.812-3.131.47-4.809-2.954-6.074-6.018-1.54-3.601-2.852-7.065-5.297-9.843-2.909-3.487-6.253-4.872-10.438-4.357-7.656.99-12.563 9.58-11.36 19.022 1.162 9.046 7.821 16.439 15.316 15.482zM1255.785 76.841l-2.662-9.562-41.622 11.526 2.634 9.562zM1239.506 51.55l3.768 9.098 7.186-2.971-11.383-27.53-7.169 2.966 3.802 9.247-32.735 13.502 3.797 9.184zM1204.418 24.146l32.432.43-5.824-9.282-23.03.698 10.617-20.476-5.778-9.19-13.708 29.391-13.496 8.503 5.268 8.417z" style="fill:#0099d8;fill-opacity:1;fill-rule:nonzero;stroke:none;stroke-width:5.7259" transform="matrix(1.33333 0 0 -1.33333 -745.685 577.529)"/><path d="m756.67-86.244-54.328 36.285-3.412-5.084 21.45-14.315-9.609-14.412 12.563-8.372 9.608 14.407 20.338-13.553zM751.413-61.508l-3.744-5.629-24.805 16.548 3.768 5.646zM711.544-50.4l37.453-24.976 7.805-5.228 15.064 22.606-12.534 8.377-4.529-6.825-24.782 16.57 4.535 6.774-12.58 8.389L710.25-42.31c-1.78-2.68-1.512-6.035 1.294-8.09M808.031-117.278c1.277 3.785 8.371 4.82 15.93 2.336 7.535-2.49 12.637-7.581 11.394-11.366-1.26-3.773-8.383-4.81-15.918-2.319-7.535 2.502-12.643 7.598-11.406 11.349m26.133 19.691a25.514 25.514 0 0 1 4.174 5.818l7.599-2.526-2.136-6.464zm29.317 7.925-14.424 4.747-1.18-3.568-7.14 2.354 1.186 3.578-37.144 12.282-1.787-5.485 22.91-7.547c-.9-3.762-6.173-18.844-32.1-11.532l1.483-6.373s17.47-6.298 32.804-.807l13.81-4.552-2.896-8.75c-3.734 2.4-8.223 4.564-13.262 6.219-15.557 5.125-30.06 3.562-32.391-3.51-2.353-7.094 8.365-17.006 23.934-22.153 15.557-5.137 30.101-3.562 32.46 3.492.063.28 13.737 41.605 13.737 41.605M1139.544-31.447c-1.69 2.674-4.753 3.739-7.908 2.101l-42.572-26.906 3.264-5.216 34.556 21.839 23.07-36.514-4.805-3.04-12.86 20.383-11.08-6.98 12.878-20.384-4.237-2.674-12.872 20.384-11.045-6.974 12.866-20.412-5.915-3.734 3.252-5.176 52.942 33.474-3.275 5.147-3.098-1.964-23.138 36.663M903.825-141.499h22.72v.034c.694-.01 4.61 0 6.116 2.21v-8.182h13.072v31.029h3.94v-30.914h13.06v55.312h-13.06v-18.311h-3.94v18.311h-13.072v-41.146c-1.672-2.394-6.247-2.176-6.247-2.176v-.074h-13.507v37.327h15.07v6.07H897.83v-43.432M897.853-135.48c0-3.133 2.48-5.996 5.915-5.996M1067.958-76.27l-7.048-2.147-2.354 7.719-14.417-4.392 9.161-30.032 14.412 4.374-5.021 16.474 7.071 2.141zM1063.011-105.826l-53.096-16.17 1.78-5.858 44.388 13.519 4.185-13.714 14.413 4.375-4.249 13.96c-.916 2.954-4.14 4.884-7.38 3.888M1025.799-107.458c-4.575-1.397-9.293.927-10.593 5.13-1.294 4.249 1.368 8.806 5.92 10.186 4.552 1.392 9.276-.91 10.57-5.147 1.277-4.243-1.357-8.784-5.897-10.17m6.573 22.412 8.4 2.56-1.62 5.364-13.777-4.18-.933 3.064-14.447-4.369.956-3.092-13.461-4.1 1.626-5.37 8.72 2.656c-5.416-3.75-7.65-8.95-6.126-13.902 2.428-8.01 14.154-11.51 26.156-7.862 12.013 3.676 19.783 13.112 17.326 21.111-1.477 4.953-6.55 8.252-12.82 8.12" style="fill:#003876;fill-opacity:1;fill-rule:nonzero;stroke:none;stroke-width:5.7259" transform="matrix(1.33333 0 0 -1.33333 -745.685 577.529)"/></svg>