<svg xmlns="http://www.w3.org/2000/svg" xml:space="preserve" width="700.00702" height="700" viewBox="0 0 700.00702 700"><path d="M-176.973-365.478c0-144.748 117.762-262.5 262.505-262.5 144.748 0 262.5 117.752 262.5 262.5 0 144.743-117.752 262.5-262.5 262.5-144.743 0-262.505-117.757-262.505-262.5z" style="fill:#273785;fill-opacity:1;fill-rule:nonzero;stroke:none;stroke-width:1.31941" transform="matrix(1.33333 0 0 -1.33333 235.964 -137.304)"/><path d="M-165.093-365.478c0 138.192 112.427 250.62 250.625 250.62 138.187 0 250.62-112.428 250.62-250.62 0-138.187-112.433-250.62-250.62-250.62-138.198 0-250.625 112.433-250.625 250.62" style="fill:#fff;fill-opacity:1;fill-rule:nonzero;stroke:none;stroke-width:1.31941" transform="matrix(1.33333 0 0 -1.33333 235.964 -137.304)"/><path d="M268.6-365.189c0-101.264-82.103-183.356-183.352-183.356-101.248 0-183.34 82.092-183.34 183.356 0 101.254 82.092 183.336 183.34 183.336 101.249 0 183.352-82.082 183.352-183.336" style="fill:#273785;fill-opacity:1;fill-rule:nonzero;stroke:none;stroke-width:1.31941" transform="matrix(1.33333 0 0 -1.33333 235.964 -137.304)"/><path d="M223.245-354.217c0 12.077-16.054 23.003-41.978 30.914-16.828 4.545-56.41 11.7-56.41 11.7l-42.34 92.358-37.933-88.509C-54.37-311.604-57.67-316-57.67-316c63.764 1.65 97.858-3.299 97.858-3.299l-66.522-148.433c124.787 19.791 185.825 59.373 185.825 59.373l-18.142-17.6 17.034-41.773h34.634l-25.28 62.11c56.616 25.842 55.508 51.405 55.508 51.405zm-139.62 73.95 12.638-29.688c-2.742-.556-23.641 1.093-23.641 1.093zM25.901-429.8l42.324 109.392 30.244-.54 29.686-73.13S82.517-419.362 25.901-429.8zm129.724 46.18-24.738 57.723c64.32-9.354 70.377-19.79 70.377-19.79 10.436-15.38-45.639-37.934-45.639-37.934" style="fill:#d9dbdc;fill-opacity:1;fill-rule:nonzero;stroke:none;stroke-width:1.31941" transform="matrix(1.33333 0 0 -1.33333 235.964 -137.304)"/><path d="m-112.637-322.056-1.072-5.251-36.912-7.411 1.443 7.1 9.535 1.857 2.55 12.549h.01l-8.065 5.36 1.433 7.06zm-18.683 5.417-1.598-7.91h-.025l12.06 1.441v-.025l-10.437 6.494M-116.708-344.511l-34.676 1.098-.216-6.638 22.703-.722v.04l-23.193-15.229-.206-6.185 34.66-1.107.216 6.648-23.203.742v-.052l23.708 15.23.207 6.175M-116.528-384.686c.32-2.397.541-4.236.644-5.55.258-2.903-.077-5.619-.979-8.16-1.288-3.592-3.633-6.453-7.035-8.597-2.103-1.314-4.355-2.139-6.767-2.442-2.588-.351-5.128-.103-7.638.706-4.355 1.406-7.515 3.88-9.458 7.395-1.391 2.568-2.438 6.588-3.144 12.102l-.799 5.978 34.403 4.53zm-6.149-1.459-21.914-2.882.232-1.931c.515-3.985 1.804-6.984 3.865-9 2.433-2.39 5.386-3.37 8.865-2.912 3.427.47 6.004 2.17 7.715 5.108 1.444 2.459 1.949 5.655 1.51 9.581l-.273 2.036M-120.744-414.039c3.134-.705 5.917-2.252 8.34-4.612 2.447-2.36 4.174-5.127 5.205-8.298 1.005-3.205 1.195-6.452.551-9.75-.644-3.315-2.02-6.191-4.133-8.65-2.113-2.447-4.69-4.158-7.731-5.138-4.742-1.494-9.329-1.004-13.813 1.47-4.473 2.474-7.488 6.178-9.045 11.126-1.587 4.98-1.288 9.741.86 14.334 2.155 4.581 5.634 7.663 10.453 9.21 2.963.979 6.082 1.082 9.313.308zm-7.277-6.638c-1.933-.602-3.634-1.72-5.077-3.35-1.381-1.546-2.268-3.396-2.68-5.575a12.623 12.623 0 0 1 .397-6.376c1.046-3.238 3.005-5.65 5.85-7.216 2.912-1.597 5.9-1.922 8.983-.959 3.066.995 5.309 2.964 6.71 5.932 1.407 2.964 1.598 6.067.609 9.298-1.005 3.212-2.964 5.634-5.85 7.298-2.886 1.65-5.876 1.96-8.942.948M-97.422-453.502l-12.973-25.012-.026.042 20.498 10.926 3.133-5.875-30.614-16.313-2.912 5.463 12.524 24.766.026-.027-20.039-10.693-3.128 5.875 30.614 16.312 2.897-5.464M-89.47-498.367l14.509-18.301c-1.675-1.155-2.954-1.954-3.866-2.392-3.66-1.768-7.654-2.087-12.014-.958-4.22 1.113-7.674 3.38-10.354 6.756-3.247 4.072-4.654 8.66-4.242 13.736.402 5.07 2.593 9.158 6.51 12.276 3.814 3.006 8.143 4.216 13.013 3.623 5.19-.644 9.51-3.144 12.962-7.53 2.088-2.623 3.402-5.576 3.943-8.833.722-4.278-.103-8.401-2.474-12.344l-4.654 5.845c.258.804.454 1.474.567 2.036.712 3.34-.103 6.499-2.422 9.462-2.19 2.758-4.88 4.38-8.076 4.845-3.263.5-6.185-.289-8.788-2.37-2.68-2.115-4.097-4.8-4.277-8.03-.18-3.232.834-6.247 3.066-9.056a11.106 11.106 0 0 1 2.716-2.567c2.283-1.556 4.912-2.036 7.876-1.428l-8.958 11.282 4.963 3.948M-38.755-525.956l-.49-28.176-.026.026 13.478 18.91 5.412-3.86-20.126-28.244-5.051 3.576.19 27.77.042-.026-13.195-18.487-5.411 3.865 20.152 28.244 5.025-3.598M-4.12-547.458l4.844-2.309-1.727-37.608-6.545 3.118.516 9.7v-.01l-11.572 5.51.01.015-7.148-6.53-6.519 3.102zm-9.768-16.828v.01l7.294-3.463v-.026l1.52 12.06v-.015l-8.814-8.566M30.36-560.925l-1.985-5.963-5.866 1.953-8.977-26.94-6.313 2.098 8.993 26.945-5.876 1.958 1.985 5.969 18.039-6.02M41.631-563.538l-8.024-33.748-6.47 1.536 8.025 33.743 6.47-1.531M48.089-574.026c1.881 2.587 4.406 4.53 7.535 5.824 3.133 1.314 6.354 1.803 9.679 1.494a19.484 19.484 0 0 0 9.184-3.35c2.774-1.912 4.886-4.319 6.303-7.215a16.81 16.81 0 0 0 1.65-9.154c-.49-4.932-2.758-8.962-6.804-12.08-4.045-3.15-8.658-4.433-13.827-3.923-5.19.52-9.457 2.685-12.818 6.484-3.35 3.798-4.793 8.205-4.304 13.235.268 3.118 1.417 6.005 3.402 8.685zm3.206-9.33c-.217-2.009.143-3.993 1.071-5.983.876-1.876 2.227-3.422 4.047-4.659a12.731 12.731 0 0 1 6.014-2.165c3.392-.309 6.38.516 8.957 2.526 2.614 2.036 4.098 4.649 4.433 7.86.309 3.22-.634 6.05-2.784 8.504-2.164 2.474-4.948 3.875-8.312 4.252-3.335.335-6.34-.49-9.005-2.5-2.653-2-4.123-4.613-4.421-7.834M94.794-568.233l17.873-21.796h-.025l-1.985 23.14 6.624.568 2.937-34.563-6.16-.51-17.83 21.26h.05l1.918-22.626-6.634-.556-2.937 34.572 6.17.51M135.061-562.198l5.18 1.366 23.038-29.77-6.983-1.865-5.902 7.72-12.37-3.288v.01l-1.236-9.612-6.983-1.85zm3.453-19.147 7.808 2.072v-.01l-6.648 10.163.026.01-1.186-12.235M163.485-552.766l11.082-26.146 10.204 4.319 2.448-5.773-16.312-6.937-13.554 31.934 6.132 2.603M202.707-531.11l12.705-16.982c.9-1.226 1.571-2.061 2.004-2.51.881-.98 1.963-1.536 3.277-1.68 1.29-.14 2.5.211 3.583 1.072 1.7 1.278 2.397 2.85 2.113 4.752-.154.984-1.005 2.525-2.551 4.664l-12.705 16.988 5.31 3.994 12.652-16.91c1.082-1.438 1.88-2.598 2.396-3.515 1.392-2.407 1.779-5.061 1.109-8.014-.644-2.876-2.14-5.19-4.536-6.969-2.294-1.716-4.793-2.525-7.55-2.463-2.835.093-5.232 1.03-7.164 2.85-1.03.938-2.14 2.216-3.324 3.84l-12.653 16.905 5.334 3.978M226.003-511.973l27.805-4.613-.025-.026-16.725 16.106 4.586 4.788 24.998-24.038-4.28-4.458-27.418 4.237.027.026 16.338-15.746-4.588-4.777-24.996 24.043 4.278 4.458M249.865-484.4l27.728-20.827-3.994-5.303-27.729 20.822 3.995 5.308M256.205-475.489l26.44-3.788v.016l-16.39 21.09 3.582 6.159 22.574-30.198-2.603-4.508-37.444 4.612 3.841 6.617M271.95-445.905l32.392-12.416 6.262 16.312-5.875 2.242-3.866-10.107-7.37 2.841 3.866 10.101-5.875 2.237-3.866-10.096-7.422 2.834 3.89 10.112-5.874 2.257-6.262-16.317M280.222-423.65l33.732-7.999 1.547 6.463-12.292 2.912 14.508 6.494 1.932 8.148-15.074-7.01h.025c.18 2.192.13 3.81-.128 4.882a8.72 8.72 0 0 1-2.423 4.148c-1.443 1.444-3.195 2.398-5.257 2.877-2.707.638-5.232.37-7.628-.8-2.396-1.16-4.123-3.091-5.205-5.797-.594-1.5-1.135-3.35-1.676-5.572zm8.272 7.618c.232 1.025.464 1.901.696 2.587.49 1.453 1.263 2.593 2.345 3.402 1.133.86 2.422 1.122 3.866.808 3.246-.808 4.251-3.86 2.963-9.143l-.619-2.591-9.87 2.328.619 2.609M311.042-393.164c3.118.206 4.819 1.664 5.154 4.37.13 1.34-.206 2.5-.979 3.474-.644.876-1.7 1.381-3.17 1.525-1.288.124-2.216-.108-2.835-.711-.824-.783-1.649-2.15-2.474-4.061-1.081-2.288-2.035-3.989-2.911-5.149-1.03-1.397-2.371-2.397-3.994-3.057a8.49 8.49 0 0 0-4.459-.617c-2.73.293-4.921 1.535-6.597 3.736-1.649 2.206-2.344 4.767-2.035 7.695.257 2.577 1.21 4.751 2.86 6.514 1.752 1.835 3.84 2.798 6.237 2.912.514.04 1.107.031 1.804 0l-.67-6.617c-1.263-.197-2.166-.521-2.707-.97-.67-.566-1.082-1.452-1.236-2.664-.13-1.031.103-1.933.669-2.722.542-.783 1.34-1.195 2.346-1.273.979-.103 1.752.027 2.268.397.617.552 1.417 1.64 2.37 3.212l2.526 4.478c1.263 2.474 3.066 4.155 5.411 5.03 1.34.464 2.809.62 4.355.464 4.149-.463 7.035-2.602 8.633-6.422.773-1.824 1.057-3.798.825-5.886-.31-3.204-1.624-5.834-3.943-7.86-1.186-1.014-2.448-1.725-3.84-2.112-.953-.283-2.396-.386-4.278-.294l.67 6.608M288.34-362.741l34.685-.118-.025-6.65-34.687.12.026 6.648M286.716-338.054l6.262.552.541-6.16 28.295 2.474.592-6.622-28.294-2.484.54-6.164-6.261-.536-1.675 18.94M284.473-325.184l12.5 10.447v.015l-15.9 3.804-1.727 7.174 23.477-6.143 12.91 3.092 1.546-6.469-12.911-3.091-18.142-16.106-1.753 7.277M-102.226-266.522a4.662 4.662 0 0 0-4.664-4.66 4.662 4.662 0 1 0 0 9.324 4.663 4.663 0 0 0 4.664-4.664M283.7-266.522a4.662 4.662 0 0 0-4.664-4.66 4.662 4.662 0 1 0 0 9.324 4.663 4.663 0 0 0 4.664-4.664M-89.191-206.133c-4.015-3.944-4.108-10.4-.165-14.432 3.942-4.02 10.4-4.096 14.42-.154 4.03 3.942 4.123 10.396.18 14.43-3.942 4.02-10.4 4.098-14.435.156zm10.39-10.644c-1.83-1.803-4.82-1.768-6.623.089a4.69 4.69 0 0 0 .077 6.622 4.68 4.68 0 0 0 6.623-.062 4.704 4.704 0 0 0-.077-6.649M-77.425-229.584l4.319 4.211 3.402-3.479s2.458-2.227 3.994-.18l21.321 20.837 3.675-3.778-22.986-22.456s-3.082-4.37-8.272-.736l-5.453 5.58M-54.696-206.546l-12.663 12.947s-3.84 3.082-.48 7.72l4.046 3.953 4.226-4.313-1.402-1.381s-2.36-1.753.232-4.124l10.344-10.59-4.303-4.212M1.56-169.932c-5.217-2.14-7.691-8.092-5.552-13.313a10.175 10.175 0 0 1 13.298-5.576c5.215 2.123 7.704 8.092 5.565 13.307-2.139 5.221-8.106 7.72-13.311 5.582zm5.659-13.762c-2.414-.968-5.145.156-6.124 2.562a4.662 4.662 0 0 0 2.566 6.097c2.398.99 5.14-.154 6.108-2.551.99-2.396-.17-5.118-2.55-6.108M9.728-140.53l-35.15-14.42 3.53-8.659s1.536-4.226 7.335-2.458l9.02 3.686 1.092-2.696-18.023-7.406 2.071-5.052L22.344-160l-2.077 5.05-18.399-7.534-1.092 2.704 14.776 6.056-2.072 5.037-28.13-11.53s-1.83-1.185-2.68 1.427l-.36.892 29.752 12.2-2.334 5.169M76.41-134.422v5.654H55.562v-22.61s-.196-6.818 6.22-7.025h15.204v5.463H61.988v18.518H76.41M81.074-166.377v37.805h10.333s6.237.19 6.04-5.85v-31.377h-6.04v29.032s.181 3.118-2.927 2.732h-1.556v-32.16l-5.85-.182M165.96-144.559c-4.897 2.283-10.746.128-13.014-4.768-2.293-4.922-.155-10.756 4.767-13.039 4.896-2.278 10.746-.129 13.013 4.783 2.295 4.895.156 10.745-4.767 13.024zm-6.006-12.972a4.446 4.446 0 0 0-2.163 5.978 4.458 4.458 0 0 0 5.951 2.2c2.243-1.056 3.248-3.736 2.192-5.988-1.032-2.284-3.711-3.247-5.98-2.19M174.535-170.494l6.319 13.59s1.546 4.656 7.061 3.171l5.128-2.37-2.526-5.49-1.777.824s-2.5 1.588-3.788-1.674l-4.923-10.602-5.494 2.55" style="fill:#2c2c2b;fill-opacity:1;fill-rule:nonzero;stroke:none;stroke-width:1.31941" transform="matrix(1.33333 0 0 -1.33333 235.964 -137.304)"/><path d="m151.348-142.987 2.32 5.04 9.636-4.473 1.65 3.545 5.566-2.593-1.726-3.72 9.277-4.304-2.32-5.04-24.403 11.545M142.458-165.407l2.318 5.05 28.888-13.4s4.432-2.278 2.423-7.344l-3.377-7.252-5.205 2.423 2.552 5.489s1.469 2.216-2.036 3.505l-25.563 11.53M240.64-194.465l4.2 3.917 21.724-23.296s4.226-4.974-.257-8.906l-16.468-15.348 3.041-3.247-3.917-3.654-32.134 34.49 3.659 3.376 7.886-8.479 12.11 11.288 4.124-4.407-12.06-11.22 4.66-4.989 12.039 11.21 3.917-4.201-11.958-11.143 4.536-4.844 14.869 13.864s2.397 1.582.077 4.21l-20.048 21.379" style="fill:#2c2c2b;fill-opacity:1;fill-rule:nonzero;stroke:none;stroke-width:1.31941" transform="matrix(1.33333 0 0 -1.33333 235.964 -137.304)"/></svg>