<svg xmlns="http://www.w3.org/2000/svg" xml:space="preserve" style="fill-rule:nonzero;clip-rule:evenodd;stroke-linecap:round;stroke-linejoin:round" viewBox="0 0 642.48 101.4"><path fill="#231f20" stroke="#231f20" d="M373.909 6.847c-1.731 5.753-6.18 14.42-22.817 21.394l4.382 9.765c6.552-2.248 18.654-8.642 24.933-16.96 6.274 8.318 18.378 14.712 24.929 16.96l4.38-9.765c-16.634-6.975-21.085-15.64-22.822-21.394h-12.985ZM295.207 27.162c0 6.201 4.883 11.227 10.914 11.227 6.026 0 10.913-5.026 10.913-11.227 0-6.2-4.887-11.229-10.913-11.229-6.031 0-10.914 5.03-10.914 11.23m-11.304 0c0-12.217 9.941-22.125 22.218-22.125 12.271 0 22.218 9.908 22.218 22.124 0 12.215-9.947 22.13-22.218 22.13-12.277 0-22.218-9.915-22.218-22.13"/><path fill="#231f20" stroke="#231f20" d="M374.554 32.251h11.557v8.661h26.4V51.84h-64.478V40.912h26.521v-8.66ZM380.527 65.29a9.803 9.803 0 0 0-9.804 9.803c0 5.41 4.388 9.795 9.804 9.795 5.42 0 9.812-4.386 9.812-9.795 0-5.415-4.392-9.804-9.812-9.804m-20.944 9.804c0-11.559 9.381-20.93 20.944-20.93 11.568 0 20.945 9.371 20.945 20.93 0 11.556-9.377 20.921-20.945 20.921-11.563 0-20.944-9.365-20.944-20.92M475.341 7.944v13.188h-5.197V7.944h-10.632v41.647h-22.35V19.014h16.568V8.02h-28.12v52.551h33.902V88.11h10.632V32.188h5.197V88.11h10.632V7.944h-10.632ZM521.792 42.93c-4.181 0-7.57-3.328-7.57-7.43s3.389-7.426 7.57-7.426c4.183 0 7.569 3.324 7.569 7.427 0 4.1-3.386 7.429-7.569 7.429m19.966-31.647h-14.896v-5.77h-11.758v5.77H500.21v10.186h8.47c-3.713 3.4-6.06 8.288-6.06 13.722 0 10.256 8.311 18.565 18.559 18.565 10.256 0 18.568-8.31 18.568-18.565 0-5.434-2.344-10.322-6.063-13.722h8.074V11.283ZM560.384 20.99V7.944h-11.566v45.474h11.566V32.012h7.84V20.99h-7.84ZM511.188 58.05v10.507h37.63v19.202h11.566V58.05h-49.196ZM636.318 7.95h-52.223v11.019h40.664v36.916h11.559V7.95Z"/><path fill="#231f20" stroke="#231f20" d="M619.223 68.88V42.93h-11.242v25.95h-5.878V42.93h-11.24v25.95h-12.597v10.997h64.216V68.88h-23.259ZM338.261 52.614h-64.214v10.993h26.226V87.68h11.582V63.607h26.406V52.614Z"/><path fill="#005825" d="M33.169 49.422c8.977 0 16.252-7.277 16.252-16.254 0-8.979-7.275-16.247-16.252-16.247-8.98 0-16.25 7.268-16.25 16.247 0 8.977 7.27 16.254 16.25 16.254M0 33.168C0 14.854 14.854 0 33.169 0c18.317 0 33.167 14.854 33.167 33.168 0 18.323-14.85 33.172-33.167 33.172C14.854 66.34 0 51.491 0 33.168"/><path fill="#b82841" d="M165.755 61.56h56.658V44.828h-39.915V21.736h39.915V5.004h-56.658V61.56Z"/><path fill="#0f4e96" d="M113.728 2.76 72.06 52.336l12.814 10.757 28.854-34.328 29.133 34.489 12.82-10.751L113.728 2.76Z"/><path fill="#231f20" d="m8.763 85.225 1.348 7.6c.194 1.13.235 2.26.34 3.38h.041c.147-1.12.231-2.25.468-3.38l1.582-7.6h2.49l2.023 10.98h.042c.104-1.12.125-2.213.32-3.338l1.243-7.642h3.295l-3.295 15.92h-2.72l-1.626-8.402c-.105-.958-.295-1.936-.446-2.911h-.04c-.169.975-.278 1.953-.505 2.91l-1.812 8.403H8.763l-3.208-15.92h3.208ZM30.052 98.48c2.094 0 2.241-4.022 2.241-5.294 0-1.401-.147-5.292-2.24-5.292-2.085 0-2.232 3.89-2.232 5.292 0 1.272.147 5.295 2.231 5.295m5.593-5.295c0 5.976-2.788 8.215-5.593 8.215-2.802 0-5.585-2.24-5.585-8.215 0-5.973 2.783-8.213 5.585-8.213 2.805 0 5.593 2.24 5.593 8.213M44.127 98.48c2.092 0 2.239-4.022 2.239-5.294 0-1.401-.147-5.292-2.239-5.292-2.085 0-2.238 3.89-2.238 5.292 0 1.272.153 5.295 2.238 5.295m5.589-5.295c0 5.976-2.78 8.215-5.589 8.215-2.809 0-5.593-2.24-5.593-8.215 0-5.973 2.784-8.213 5.593-8.213s5.589 2.24 5.589 8.213M59.715 88.823c-.629-.549-1.41-1.015-2.28-1.015-.958 0-1.577.593-1.577 1.563 0 2.611 4.792 2.762 4.792 7.062 0 2.828-1.631 4.967-4.587 4.967-.887 0-1.976-.276-2.695-.803v-3.003c.734.51 1.456.843 2.384.843 1.012 0 1.814-.666 1.814-1.727 0-1.226-.974-1.685-1.855-2.324-1.813-1.212-2.933-2.404-2.933-4.722 0-2.51 1.456-4.692 4.154-4.692 1.011 0 1.918.286 2.782.786v3.065ZM69.275 98.48c2.093 0 2.24-4.022 2.24-5.294 0-1.401-.147-5.292-2.24-5.292-2.085 0-2.238 3.89-2.238 5.292 0 1.272.153 5.295 2.238 5.295m5.594-5.295c0 5.976-2.783 8.215-5.594 8.215-2.804 0-5.592-2.24-5.592-8.215 0-5.973 2.788-8.213 5.592-8.213 2.811 0 5.594 2.24 5.594 8.213M81.338 85.225l3.928 9.614.043-.052c-.19-.762-.25-1.574-.25-2.4v-7.162h3.144v15.92h-2.978l-3.887-9.602-.034.04.147 1.603.022.656v7.303h-3.15v-15.92h3.015ZM102.429 92.284v1.237c0 3.383-.824 7.879-5.11 7.879-4.285 0-5.678-4.6-5.678-8.128 0-3.67 1.18-8.3 5.677-8.3 2.425 0 4.014 1.514 4.696 3.79l-3.072 1.171c-.14-.793-.399-2.04-1.602-2.04-2.134-.136-2.345 3.796-2.345 5.292 0 1.654.111 5.295 2.433 5.295 1.604 0 1.855-2.146 1.855-3.244h-2v-2.952h5.146ZM115.909 85.225v10.307c0 1.206-.152 3.027 1.562 3.027 1.545 0 1.545-1.162 1.567-2.353V85.225h3.14v11.617c0 1.692-.194 4.559-4.727 4.559-2.937 0-4.686-1.361-4.686-4.35V85.226h3.144ZM129.317 85.225l3.925 9.614.042-.052c-.194-.762-.251-1.574-.251-2.4v-7.162h3.144v15.92h-2.97l-3.89-9.602-.037.04.142 1.603.02.656v7.303h-3.139v-15.92h3.014ZM143.511 101.144h-3.145v-15.92h3.145v15.92ZM149.779 85.225l1.897 7.642c.284.903.389 1.825.577 2.723h.043c.172-.93.231-1.825.488-2.764l1.917-7.601h3.296l-4.413 15.92h-2.578l-4.596-15.92h3.369ZM167.235 85.225v2.967h-3.198v3.455h2.815v2.947h-2.815v3.592h3.233v2.959h-6.373v-15.92h6.338ZM174.634 92.07l.546.02c1.441 0 2.007-.967 2.007-2.278 0-1.144-.552-2.072-2.128-1.988h-.425v4.246Zm-3.139 9.074v-15.92h3.166c1.995 0 5.588.222 5.588 4.566 0 1.753-.698 3.255-2.256 4.12l2.759 7.234h-3.307l-2.769-7.342h-.042v7.342h-3.139ZM190.475 88.823c-.631-.549-1.41-1.015-2.28-1.015-.966 0-1.577.593-1.577 1.563 0 2.611 4.784 2.762 4.784 7.062 0 2.828-1.62 4.967-4.571 4.967-.885 0-1.991-.276-2.709-.803v-3.003c.739.51 1.457.843 2.39.843 1.006 0 1.807-.666 1.807-1.727 0-1.226-.968-1.685-1.848-2.324-1.818-1.212-2.936-2.404-2.936-4.722 0-2.51 1.462-4.692 4.15-4.692 1.018 0 1.924.286 2.79.786v3.065ZM198.33 101.144h-3.135v-15.92h3.135v15.92ZM210.022 85.225v2.967h-2.49v12.953h-3.143V88.192h-2.476v-2.967h8.109ZM215.137 85.225l1.65 4.336.234.779h.043l.356-1.177 1.413-3.938h3.519l-3.71 8.297v7.623h-3.147v-7.623l-3.815-8.297h3.457Z"/></svg>