<svg xmlns="http://www.w3.org/2000/svg" xml:space="preserve" width="500.00394" height="500" viewBox="0 0 500.00394 500"><defs><clipPath id="a" clipPathUnits="userSpaceOnUse"><path d="M0 283.465h276.466V0H0Z"/></clipPath></defs><g clip-path="url(#a)" transform="matrix(1.96982 0 0 -1.96982 -20.47 529.58)"><path d="M0 0c-70.092 0-126.921-56.828-126.921-126.92 0-70.099 56.829-126.91 126.921-126.91 47.042 0 88.115 25.606 110.033 63.624 10.731 18.639 16.878 40.242 16.878 63.29C126.911-56.828 70.086 0 0 0" style="fill:#003686;fill-opacity:1;fill-rule:nonzero;stroke:none" transform="translate(137.313 268.846)"/><path d="M0 0c-52.632 0-95.288 42.666-95.288 95.291 0 52.626 42.656 95.293 95.288 95.293 52.628 0 95.29-42.667 95.29-95.293C95.29 42.666 52.628 0 0 0" style="fill:#a6165f;fill-opacity:1;fill-rule:nonzero;stroke:none" transform="translate(137.313 46.636)"/><path d="M0 0c-51.736 0-93.823-42.091-93.823-93.825 0-51.735 42.087-93.82 93.823-93.82 51.731 0 93.819 42.085 93.819 93.82C93.819-42.091 51.731 0 0 0m0-190.583c-53.352 0-96.762 43.401-96.762 96.758C-96.762-40.47-53.352 2.938 0 2.938c53.35 0 96.755-43.408 96.755-96.763 0-53.357-43.405-96.758-96.755-96.758" style="fill:#fff;fill-opacity:1;fill-rule:nonzero;stroke:none" transform="translate(137.313 235.751)"/><path d="m0 0-2.296 1.252 4.717 8.642c-1.264-.329-2.568-.366-3.911-.123l1.139 2.083c.7-.13 1.554-.116 2.552.048 1.001.165 1.834.539 2.487 1.127l1.858-1.017z" style="fill:#fff;fill-opacity:1;fill-rule:nonzero;stroke:none" transform="translate(82.707 38.105)"/><path d="M0 0c.32.779.388 1.458.209 2.036-.182.576-.506.962-.974 1.153a1.493 1.493 0 0 1-1.329-.068c-.442-.228-.829-.746-1.158-1.547-.337-.815-.421-1.477-.262-1.991.166-.513.491-.871.971-1.069.461-.189.929-.169 1.395.065C-.679-1.184-.297-.711 0 0m-7.644-3.021 2.447-.708c-.144-.5-.136-.914.009-1.241.146-.33.411-.573.811-.734.5-.21 1.015-.154 1.558.161.532.312 1.15 1.173 1.844 2.575-.897-.453-1.803-.492-2.713-.116-.99.408-1.688 1.147-2.09 2.204-.405 1.063-.351 2.205.154 3.432.525 1.279 1.331 2.151 2.411 2.62 1.083.47 2.21.46 3.383-.026 1.277-.529 2.121-1.454 2.538-2.781.403-1.327.143-3.121-.789-5.383C.97-5.319-.146-6.804-1.417-7.472c-1.271-.67-2.597-.719-3.959-.154-.991.408-1.677.997-2.067 1.772-.394.775-.457 1.722-.201 2.833" style="fill:#fff;fill-opacity:1;fill-rule:nonzero;stroke:none" transform="translate(97.059 41.27)"/><path d="m0 0 1.3 4.472L-3.009.876Zm-1.402-4.839.764 2.633L-5.991-.65l.639 2.198L2.734 8.21l2.107-.613L2.428-.706l1.627-.471-.643-2.208-1.621.477-.767-2.635Z" style="fill:#fff;fill-opacity:1;fill-rule:nonzero;stroke:none" transform="translate(106.414 34.067)"/><path d="m0 0 .421 2.391L9.207.842l-.324-1.87c-.847-.585-1.771-1.479-2.755-2.685a18.228 18.228 0 0 1-2.465-3.959c-.658-1.436-1.089-2.746-1.29-3.932l-2.48.438C.261-9.316.978-7.493 2.04-5.691c1.062 1.799 2.328 3.354 3.809 4.662z" style="fill:#fff;fill-opacity:1;fill-rule:nonzero;stroke:none" transform="translate(114.362 38.13)"/><path d="m0 0-.199 12.026 2.427.039.087-5.338 4.813 5.419 3.265.052-4.447-4.757L10.833.176 7.696.127l-3.398 5.59-1.934-2.042.057-3.632Z" style="fill:#fff;fill-opacity:1;fill-rule:nonzero;stroke:none" transform="translate(132.808 24.62)"/><path d="M0 0c.168-1.35.602-2.337 1.314-2.958.708-.622 1.544-.872 2.502-.758.962.12 1.707.565 2.235 1.334.532.765.713 1.842.547 3.224-.169 1.368-.591 2.351-1.274 2.952-.689.6-1.522.838-2.516.716-.989-.12-1.755-.561-2.269-1.317C.014 2.438-.168 1.374 0 0m-2.474-.385c-.146 1.215-.091 2.257.173 3.127.195.642.499 1.235.909 1.772.412.541.881.964 1.413 1.265.703.406 1.542.667 2.515.788 1.756.215 3.233-.157 4.414-1.119 1.193-.96 1.906-2.412 2.144-4.357.235-1.923-.102-3.499-1.017-4.715-.913-1.217-2.246-1.935-4.003-2.147-1.773-.221-3.248.15-4.424 1.104-1.178.955-1.889 2.382-2.124 4.282" style="fill:#fff;fill-opacity:1;fill-rule:nonzero;stroke:none" transform="translate(148.212 31.162)"/><path d="m0 0 1.732.44c1.133.284 1.829.507 2.084.676.251.168.434.389.532.66.101.273.111.584.02.936-.097.39-.283.681-.552.87-.266.189-.608.265-1.004.236-.195-.023-.772-.156-1.725-.395l-1.839-.464Zm-.665-7.321L-3.604 4.338l4.958 1.248c1.237.317 2.176.44 2.794.371.612-.066 1.155-.326 1.633-.774a3.41 3.41 0 0 0 .971-1.71c.224-.874.148-1.662-.222-2.361C6.157.414 5.485-.14 4.495-.55a5.698 5.698 0 0 0 1.51-.657c.417-.272 1.022-.792 1.812-1.555l1.997-1.916-2.812-.709-2.34 2.106c-.835.756-1.388 1.221-1.675 1.402a1.902 1.902 0 0 1-.825.307c-.276.021-.679-.032-1.222-.17L.466-1.86l1.226-4.87Z" style="fill:#fff;fill-opacity:1;fill-rule:nonzero;stroke:none" transform="translate(162.725 34.443)"/><path d="m0 0-4.282 11.238 8.322 3.174.727-1.898-6.059-2.313.95-2.491 5.637 2.151.724-1.895L.378 5.817l1.16-3.06 6.275 2.39.724-1.891Z" style="fill:#fff;fill-opacity:1;fill-rule:nonzero;stroke:none" transform="translate(175.793 30.884)"/><path d="m0 0-3.534 3.191.624-4.707Zm6.155-2.149L3.82-3.372 1.623-1.435l-4.258-2.22.378-2.884-2.276-1.192-1.409 12.828 2.276 1.187Z" style="fill:#fff;fill-opacity:1;fill-rule:nonzero;stroke:none" transform="translate(191.622 43.027)"/><path d="M0 0c.054-4.796-2.804-8.718-2.804-8.718S-5.743-4.864-5.795-.066c-.056 4.796 2.801 8.718 2.801 8.718S-.052 4.796 0 0" style="fill:#fff;fill-opacity:1;fill-rule:nonzero;stroke:none" transform="translate(30.033 137.595)"/><path d="M0 0s-1.723-4.903-1.157-10.692c.1-.987.258-1.931.446-2.825-1.15.505-2.432.973-3.813 1.328-5.63 1.451-10.738.503-10.738.503s4.017-3.297 9.646-4.746c2.154-.557 4.237-.759 5.98-.798.981-.024 1.85.006 2.575.055.081.501.158 1.042.215 1.612.172 1.572.235 3.384.046 5.293C2.642-4.481 0 0 0 0" style="fill:#fff;fill-opacity:1;fill-rule:nonzero;stroke:none" transform="translate(60.981 75.441)"/><path d="M0 0s-1.429-4.999-.525-10.742c.159-.98.373-1.911.616-2.792a25.281 25.281 0 0 1-3.886 1.096c-5.706 1.11-10.747-.14-10.747-.14s4.206-3.052 9.912-4.16c2.182-.427 4.268-.503 6.018-.443.978.036 1.844.117 2.566.209.052.506.093 1.052.115 1.621.075 1.581.037 3.394-.263 5.289C2.897-4.316 0 0 0 0" style="fill:#fff;fill-opacity:1;fill-rule:nonzero;stroke:none" transform="translate(68.44 67.209)"/><path d="M0 0s-2.25-4.687-2.321-10.506c-.014-.983.043-1.941.14-2.851a25.438 25.438 0 0 1-3.654 1.733c-5.439 2.059-10.618 1.677-10.618 1.677s3.63-3.718 9.071-5.775c2.081-.787 4.124-1.215 5.854-1.445.975-.13 1.849-.196 2.569-.227.132.486.265 1.017.392 1.578a26.55 26.55 0 0 1 .625 5.259C2.126-4.743 0 0 0 0" style="fill:#fff;fill-opacity:1;fill-rule:nonzero;stroke:none" transform="translate(54.28 83.77)"/><path d="M0 0s-2.753-4.417-3.457-10.186a23.985 23.985 0 0 1-.179-2.85 25.565 25.565 0 0 1-3.437 2.122c-5.181 2.64-10.371 2.824-10.371 2.824s3.206-4.092 8.387-6.73c1.984-1.01 3.965-1.66 5.661-2.077a29.188 29.188 0 0 1 2.529-.507c.186.47.376.983.559 1.529a26.3 26.3 0 0 1 1.198 5.16C1.597-4.945 0 0 0 0" style="fill:#fff;fill-opacity:1;fill-rule:nonzero;stroke:none" transform="translate(48.527 92.779)"/><path d="M0 0s-3.215-4.092-4.544-9.755a25.847 25.847 0 0 1-.489-2.811 25.32 25.32 0 0 1-3.184 2.489c-4.863 3.186-10.004 3.941-10.004 3.941s2.743-4.421 7.604-7.609c1.863-1.222 3.761-2.081 5.402-2.681.92-.339 1.757-.591 2.457-.781.24.446.478.936.721 1.456A26.246 26.246 0 0 1-.28-10.756C1.053-5.093 0 0 0 0" style="fill:#fff;fill-opacity:1;fill-rule:nonzero;stroke:none" transform="translate(43.786 102.368)"/><path d="M0 0s-3.638-3.715-5.581-9.193a25.075 25.075 0 0 1-.79-2.745 26.081 26.081 0 0 1-2.89 2.824c-4.487 3.698-9.513 5.01-9.513 5.01s2.238-4.693 6.724-8.393c1.718-1.419 3.51-2.484 5.076-3.26.881-.438 1.68-.78 2.353-1.042.287.419.582.876.879 1.368a26.065 26.065 0 0 1 2.289 4.771C.489-5.176 0 0 0 0" style="fill:#fff;fill-opacity:1;fill-rule:nonzero;stroke:none" transform="translate(40.122 112.41)"/><path d="M0 0s-4.022-3.289-6.55-8.526a22.87 22.87 0 0 1-1.09-2.642 25.129 25.129 0 0 1-2.57 3.122c-4.05 4.167-8.909 6.021-8.909 6.021s1.716-4.908 5.771-9.08c1.551-1.596 3.222-2.851 4.694-3.793a29.75 29.75 0 0 1 2.224-1.295c.33.384.67.809 1.021 1.266a25.556 25.556 0 0 1 2.792 4.493C-.079-5.197 0 0 0 0" style="fill:#fff;fill-opacity:1;fill-rule:nonzero;stroke:none" transform="translate(37.582 122.796)"/><path d="M0 0s-4.357-2.834-7.445-7.763a24.935 24.935 0 0 1-1.365-2.503 26.642 26.642 0 0 1-2.211 3.381C-14.593-2.302-19.219.073-19.219.073s1.166-5.064 4.744-9.655c1.363-1.755 2.889-3.186 4.248-4.283a29.552 29.552 0 0 1 2.071-1.532c.37.345.754.734 1.152 1.144a26.135 26.135 0 0 1 3.273 4.161C-.642-5.16 0 0 0 0" style="fill:#fff;fill-opacity:1;fill-rule:nonzero;stroke:none" transform="translate(36.185 133.402)"/><path d="M0 0c-.052-4.796 2.81-8.718 2.81-8.718S5.75-4.864 5.799-.066c.054 4.796-2.801 8.718-2.801 8.718S.054 4.796 0 0" style="fill:#fff;fill-opacity:1;fill-rule:nonzero;stroke:none" transform="translate(244.576 137.595)"/><path d="M0 0s1.725-4.903 1.161-10.692c-.1-.987-.258-1.931-.452-2.825a25.23 25.23 0 0 0 3.817 1.328c5.632 1.451 10.738.503 10.738.503s-4.018-3.297-9.646-4.746c-2.154-.557-4.233-.759-5.981-.798-.976-.024-1.85.006-2.576.055a28.451 28.451 0 0 0-.216 1.612c-.165 1.572-.235 3.384-.045 5.293C-2.638-4.481 0 0 0 0" style="fill:#fff;fill-opacity:1;fill-rule:nonzero;stroke:none" transform="translate(213.63 75.441)"/><path d="M0 0s1.427-4.999.518-10.742a25.411 25.411 0 0 0-.617-2.792 25.51 25.51 0 0 0 3.891 1.096c5.705 1.11 10.745-.14 10.745-.14s-4.202-3.052-9.909-4.16c-2.187-.427-4.275-.503-6.022-.443a28.8 28.8 0 0 0-2.566.209 32.065 32.065 0 0 0-.116 1.621 26.508 26.508 0 0 0 .266 5.289C-2.899-4.316 0 0 0 0" style="fill:#fff;fill-opacity:1;fill-rule:nonzero;stroke:none" transform="translate(206.176 67.209)"/><path d="M0 0s2.25-4.687 2.323-10.506a25.306 25.306 0 0 0-.136-2.851 25.116 25.116 0 0 0 3.645 1.733c5.439 2.059 10.623 1.677 10.623 1.677s-3.635-3.718-9.075-5.775c-2.081-.787-4.12-1.215-5.854-1.445a28.557 28.557 0 0 0-2.565-.227 26.298 26.298 0 0 0-.388 1.578 26.157 26.157 0 0 0-.633 5.259C-2.125-4.743 0 0 0 0" style="fill:#fff;fill-opacity:1;fill-rule:nonzero;stroke:none" transform="translate(220.332 83.77)"/><path d="M0 0s2.749-4.417 3.457-10.186c.121-.981.166-1.939.177-2.85a25.516 25.516 0 0 0 3.438 2.122C12.253-8.274 17.44-8.09 17.44-8.09s-3.204-4.092-8.383-6.73c-1.981-1.01-3.967-1.66-5.661-2.077a29.566 29.566 0 0 0-2.529-.507c-.188.47-.378.983-.559 1.529a26.154 26.154 0 0 0-1.2 5.16C-1.599-4.945 0 0 0 0" style="fill:#fff;fill-opacity:1;fill-rule:nonzero;stroke:none" transform="translate(226.086 92.779)"/><path d="M0 0s3.215-4.092 4.549-9.755c.226-.962.38-1.903.485-2.811.932.848 1.99 1.703 3.183 2.489 4.862 3.186 10.004 3.941 10.004 3.941s-2.735-4.421-7.597-7.609c-1.872-1.222-3.767-2.081-5.411-2.681a28.224 28.224 0 0 0-2.455-.781c-.235.446-.476.936-.721 1.456a25.58 25.58 0 0 0-1.748 4.995C-1.046-5.093 0 0 0 0" style="fill:#fff;fill-opacity:1;fill-rule:nonzero;stroke:none" transform="translate(230.825 102.368)"/><path d="M0 0s3.639-3.715 5.581-9.193c.335-.933.584-1.854.79-2.745.829.944 1.79 1.911 2.895 2.824 4.485 3.698 9.512 5.01 9.512 5.01s-2.235-4.693-6.723-8.393c-1.725-1.419-3.516-2.484-5.083-3.26-.877-.438-1.68-.78-2.351-1.042-.287.419-.584.876-.878 1.368-.822 1.354-1.651 2.964-2.29 4.771C-.489-5.176 0 0 0 0" style="fill:#fff;fill-opacity:1;fill-rule:nonzero;stroke:none" transform="translate(234.49 112.41)"/><path d="M0 0s4.026-3.289 6.555-8.526c.428-.894.788-1.775 1.085-2.642a25.583 25.583 0 0 0 2.57 3.122c4.051 4.167 8.906 6.021 8.906 6.021s-1.714-4.908-5.768-9.08c-1.549-1.596-3.22-2.851-4.691-3.793a31.454 31.454 0 0 0-2.224-1.295c-.331.384-.675.809-1.024 1.266a25.805 25.805 0 0 0-2.8 4.493C.081-5.197 0 0 0 0" style="fill:#fff;fill-opacity:1;fill-rule:nonzero;stroke:none" transform="translate(237.03 122.796)"/><path d="M0 0s4.357-2.834 7.443-7.763a24.99 24.99 0 0 0 1.369-2.503 26.027 26.027 0 0 0 2.213 3.381C14.596-2.302 19.22.073 19.22.073s-1.167-5.064-4.742-9.655c-1.369-1.755-2.894-3.186-4.25-4.283a30.768 30.768 0 0 0-2.072-1.532 32.39 32.39 0 0 0-1.154 1.144 26.59 26.59 0 0 0-3.27 4.161C.646-5.16 0 0 0 0" style="fill:#fff;fill-opacity:1;fill-rule:nonzero;stroke:none" transform="translate(238.427 133.402)"/><path d="M0 0a1.687 1.687 0 0 0 1.295-2.004l-.219-1.021A1.685 1.685 0 0 0-.928-4.318l-.516-2.387a4.127 4.127 0 0 1 4.902 3.164l.219 1.025A4.133 4.133 0 0 1 .516 2.382l-8.801 1.896-.51-2.385z" style="fill:#fff;fill-opacity:1;fill-rule:nonzero;stroke:none" transform="translate(30.336 165.281)"/><path d="M0 0a1.68 1.68 0 0 0-.03-2.384l-1.617-1.581a1.69 1.69 0 0 0-2.384.027l-6.286 6.449L-12.062.81l6.283-6.448a4.132 4.132 0 0 1 5.837-.075L1.682-4.13a4.136 4.136 0 0 1 .064 5.835l-6.282 6.447-1.747-1.704Z" style="fill:#fff;fill-opacity:1;fill-rule:nonzero;stroke:none" transform="translate(63.534 222.255)"/><path d="M0 0a1.68 1.68 0 0 0-2.231-.82l-2.056.95a1.69 1.69 0 0 0-.822 2.239l3.784 8.171-2.216 1.025-3.78-8.173c-.962-2.063-.052-4.52 2.008-5.477l2.054-.951a4.127 4.127 0 0 1 5.473 2.012l3.782 8.171-2.21 1.028z" style="fill:#fff;fill-opacity:1;fill-rule:nonzero;stroke:none" transform="translate(185.982 239.025)"/><path d="m0 0 2.923 8.763-2.31.774-2.15-6.449-2.643.883 1.68 5.043-2.314.772-1.684-5.045-2.478.827 2.153 6.449-2.314.775-2.926-8.764z" style="fill:#fff;fill-opacity:1;fill-rule:nonzero;stroke:none" transform="translate(35.206 169.421)"/><path d="m0 0-2.33.704-3.692-12.268 8.837-2.665.705 2.335-6.507 1.965z" style="fill:#fff;fill-opacity:1;fill-rule:nonzero;stroke:none" transform="translate(168.248 255.336)"/><path d="m0 0 6.496-6.567 1.73 1.715L3.447-.018l1.977 1.961 3.743-3.78L10.899-.12 7.164 3.659l1.86 1.843L13.802.665l1.731 1.717-6.494 6.566z" style="fill:#fff;fill-opacity:1;fill-rule:nonzero;stroke:none" transform="translate(212.456 215.039)"/><path d="M0 0a4.028 4.028 0 0 0-4.026 4.024A4.031 4.031 0 0 0 0 8.054 4.027 4.027 0 0 0 0 0m0 10.615c-3.632 0-6.587-2.955-6.587-6.591 0-3.63 2.955-6.588 6.587-6.588 3.63 0 6.582 2.958 6.582 6.588 0 3.636-2.952 6.591-6.582 6.591" style="fill:#fff;fill-opacity:1;fill-rule:nonzero;stroke:none" transform="translate(35.621 184.124)"/><path d="M0 0a4.032 4.032 0 0 0-4.026 4.026A4.033 4.033 0 0 0 0 8.054a4.03 4.03 0 0 0 4.026-4.028A4.03 4.03 0 0 0 0 0m0 10.618c-3.63 0-6.587-2.958-6.587-6.592 0-3.63 2.957-6.59 6.587-6.59 3.634 0 6.587 2.96 6.587 6.59 0 3.634-2.953 6.592-6.587 6.592" style="fill:#fff;fill-opacity:1;fill-rule:nonzero;stroke:none" transform="translate(127.596 248.576)"/><path d="m0 0 4.203.96L6.521-9.195l2.375.543L6.583 1.5l4.2.962-.537 2.379L-.544 2.38Z" style="fill:#fff;fill-opacity:1;fill-rule:nonzero;stroke:none" transform="translate(102.615 252.29)"/><path d="m0 0 1.563-4.024-9.71-3.765.877-2.274 9.708 3.761 1.56-4.021 2.277.881L2.276.883z" style="fill:#fff;fill-opacity:1;fill-rule:nonzero;stroke:none" transform="translate(244.832 184.886)"/><path d="m0 0-1.069-6.682-.064-.371-2.973 4.007-1.96-1.454 7.635-10.291 1.959 1.458L.559-9.339l.378-.049 6.707-.91 2.57 1.915-8.937 1.35 1.302 8.946z" style="fill:#fff;fill-opacity:1;fill-rule:nonzero;stroke:none" transform="translate(68.11 237.738)"/><path d="m0 0-10.122-.362v-.03l-.07.043-1.304-2.058L-.677-9.265.628-7.207l-7.15 4.531 10.167.367.062-.037L5.011-.283-5.804 6.575l-1.311-2.062z" style="fill:#fff;fill-opacity:1;fill-rule:nonzero;stroke:none" transform="translate(45.54 202.236)"/><path d="m0 0 2.396.448-2.35 12.594-2.4-.448z" style="fill:#fff;fill-opacity:1;fill-rule:nonzero;stroke:none" transform="translate(117.773 245.129)"/><path d="m0 0 2.031-1.347L9.098 9.34l-2.033 1.347Z" style="fill:#fff;fill-opacity:1;fill-rule:nonzero;stroke:none" transform="translate(199.916 226.287)"/><path d="m0 0 .992-2.231 11.709 5.21-.997 2.232z" style="fill:#fff;fill-opacity:1;fill-rule:nonzero;stroke:none" transform="translate(233.19 185.099)"/><path d="m0 0-8.991 4.674-.012-.025-.036.07-2.154-1.152L-5.156-7.73l2.153 1.152L-6.997.885l9.035-4.693.027-.057 2.154 1.148-6.041 11.299-2.151-1.151Z" style="fill:#fff;fill-opacity:1;fill-rule:nonzero;stroke:none" transform="translate(89.49 240.553)"/><path d="m0 0 .059 4.644 2.982-3.557Zm.109 8.061-2.242-.797-.274-.098-.196-13.669 2.515.898.05 3.004 4.75 1.693 1.937-2.301 2.515.897L.388 8.16Z" style="fill:#fff;fill-opacity:1;fill-rule:nonzero;stroke:none" transform="translate(97.405 244.773)"/><path d="m0 0-2.393-3.003-2.145 1.713 2.392 3.004v-.002c.48.605 1.381.724 1.963.26C.399 1.506.482.602 0 0m-8.444 1.821 2.394 3.002c.43.543 1.236.65 1.747.237.521-.414.596-1.217.161-1.759L-6.531.297Zm5.729 5.228c-1.622 1.297-4.014 1.007-5.326-.637l-3.972-4.997L-1.988-6.58 1.99-1.587c1.366 1.714 1.103 4.2-.589 5.55a3.857 3.857 0 0 1-2.771.826 3.715 3.715 0 0 1-1.345 2.26" style="fill:#fff;fill-opacity:1;fill-rule:nonzero;stroke:none" transform="translate(54.095 210.358)"/><path d="m0 0-2.235 3.375 2.033 1.353 2.239-3.379c.381-.574.237-1.369-.316-1.734C1.166-.754.378-.577 0 0m3.127-2.509c1.728 1.148 2.19 3.51 1.03 5.267L.511 8.254l-10.658-7.07 1.402-2.122 4.384 2.91 2.236-3.378v-.002c.429-.646.264-1.536-.357-1.95l-3.233-2.147 1.406-2.124 3.233 2.149a3.86 3.86 0 0 1 1.64 2.385 3.707 3.707 0 0 1 2.563.586" style="fill:#fff;fill-opacity:1;fill-rule:nonzero;stroke:none" transform="translate(230.468 205.761)"/><path d="m0 0-5.505 8.516-.018-.018v.081l-2.437.062-.341-12.805 2.443-.065.22 8.459 5.523-8.544-.003-.066 2.434-.065.342 12.807-2.434.063Z" style="fill:#fff;fill-opacity:1;fill-rule:nonzero;stroke:none" transform="translate(144.777 250.83)"/><path d="m0 0 2.197 4.089L3.204-.444Zm3.82 7.096-2.366.327-.287.042-6.474-12.037 2.646-.367 1.427 2.645 5.002-.693.647-2.932 2.647-.371L4.103 7.058Z" style="fill:#fff;fill-opacity:1;fill-rule:nonzero;stroke:none" transform="translate(153.28 251.118)"/><path d="m0 0 4.072 9.408-1.934 1.852-5.423-12.546.208-.202 1.725-1.648.202-.202 12.302 5.949-1.923 1.85Z" style="fill:#fff;fill-opacity:1;fill-rule:nonzero;stroke:none" transform="translate(209.117 222.465)"/><path d="m0 0-5.418 2.109 3.813 4.381-.741 3.016-5.926-6.833-5.259-1.298.593-2.401L-7.682.272l8.427-3.29z" style="fill:#fff;fill-opacity:1;fill-rule:nonzero;stroke:none" transform="translate(253.31 165.07)"/><path d="m0 0-.535 10.126h-.031l.042.066-2.078 1.272L-9.279.53l2.081-1.27 4.415 7.221.53-10.165-.034-.055 2.081-1.272L6.469 5.922 4.39 7.194Z" style="fill:#fff;fill-opacity:1;fill-rule:nonzero;stroke:none" transform="translate(198.008 232.843)"/><path d="M0 0c.041.473.032.897-.029 1.27-.059.376-.143.777-.258 1.2a.318.318 0 0 0-.043.103 1.058 1.058 0 0 1-.073.283 49.65 49.65 0 0 0-.485 1.931 6.067 6.067 0 0 0-.161.99c-.015.264.017.473.102.627.084.158.227.296.451.421.419.233.829.247 1.223.029.392-.215.718-.55.969-1.007.367-.65.532-1.241.505-1.771-.032-.527-.351-.98-.96-1.356L2.568.356c.625.35 1.095.77 1.413 1.261.321.494.521 1.028.577 1.599a4.926 4.926 0 0 1-.154 1.773 8.091 8.091 0 0 1-.752 1.815 6.53 6.53 0 0 1-1.057 1.395 5.104 5.104 0 0 1-1.374.985 3.615 3.615 0 0 1-1.592.355c-.549-.006-1.101-.164-1.648-.472-.499-.279-.877-.603-1.137-.986a2.89 2.89 0 0 1-.47-1.227 5.135 5.135 0 0 1 0-1.334c.069-.454.166-.96.304-1.526.055-.199.129-.472.209-.819.158-.512.262-.927.332-1.243.07-.317.109-.621.116-.918a1.919 1.919 0 0 0-.132-.787 1.173 1.173 0 0 0-.516-.553c-.269-.149-.534-.208-.793-.175-.253.028-.493.13-.724.297-.228.166-.43.356-.609.575a4.508 4.508 0 0 0-.462.689c-.399.716-.559 1.399-.482 2.045.073.652.464 1.17 1.154 1.559l-1.322 2.36c-.657-.369-1.168-.826-1.533-1.357a4.095 4.095 0 0 1-.661-1.738 5.052 5.052 0 0 1 .131-1.909A7.595 7.595 0 0 1-7.853.089c.818-1.458 1.784-2.41 2.895-2.845 1.107-.441 2.187-.364 3.244.227.561.313.976.693 1.245 1.146.274.45.431.91.469 1.383" style="fill:#fff;fill-opacity:1;fill-rule:nonzero;stroke:none" transform="translate(237.35 190.716)"/><path d="M0 0a35.695 35.695 0 0 1-16.497 4.009c-1.783 0-3.535-.133-5.261-.389l3.847 26.672c2.215.747 4.6 1.145 7.051 1.145 3.952 0 7.663-1.03 10.86-2.854a21.87 21.87 0 0 0 10.854 2.854c2.468 0 4.841-.398 7.062-1.145l3.84-26.672a35.635 35.635 0 0 1-5.256.389A35.811 35.811 0 0 1 0 0" style="fill:#fff;fill-opacity:1;fill-rule:nonzero;stroke:none" transform="translate(137.303 115.193)"/><path d="M0 0c-4.771 3.134-10.427 4.966-16.559 4.966-2.108 0-4.175-.221-6.155-.629A44.264 44.264 0 0 1-2.785-15.222l.07-10.625a65.951 65.951 0 0 0-16.169 9.467 53.887 53.887 0 0 0-21.002-7.343l-2.332 6.985a46.629 46.629 0 0 1 17.67 5.412C-36.505.643-43.914 17.187-43.914 35.449h-5.446v13.557h46.67V39.38a24.6 24.6 0 0 1-8.357 1.456c-3.225 0-6.313-.619-9.155-1.758l-4.66-32.394c2.681.7 5.482 1.072 8.365 1.072A32.77 32.77 0 0 0 0 3.343a32.818 32.818 0 0 0 16.5 4.413c2.888 0 5.687-.372 8.371-1.072l-4.668 32.394a24.447 24.447 0 0 1-9.15 1.758c-2.935 0-5.75-.517-8.367-1.456v9.626h46.683V35.449h-5.451c0-18.262-7.399-34.806-19.356-46.775a46.528 46.528 0 0 1 17.664-5.412l-2.33-6.985a53.896 53.896 0 0 0-21.004 7.343 66.23 66.23 0 0 0-16.166-9.467l.075 10.625c8.571 4.184 15.567 11.074 19.917 19.559a30.53 30.53 0 0 1-6.156.629C10.43 4.966 4.778 3.134 0 0" style="fill:#fff;fill-opacity:1;fill-rule:nonzero;stroke:none" transform="translate(137.303 108.525)"/><path d="M0 0h5.871l2.788 48.853-5.172-3.904Z" style="fill:#fff;fill-opacity:1;fill-rule:nonzero;stroke:none" transform="translate(113.486 161.215)"/><path d="M0 0h5.973l4.346 42.813-5.304-4.007Z" style="fill:#fff;fill-opacity:1;fill-rule:nonzero;stroke:none" transform="translate(103.818 161.215)"/><path d="m0 0-2.121-51.07h5.688L4.984 3.765Z" style="fill:#fff;fill-opacity:1;fill-rule:nonzero;stroke:none" transform="translate(125.081 212.285)"/><path d="M0 0h-5.869l-2.796 48.853 5.178-3.904z" style="fill:#fff;fill-opacity:1;fill-rule:nonzero;stroke:none" transform="translate(161.008 161.215)"/><path d="M0 0h-5.975l-4.344 42.813 5.306-4.007z" style="fill:#fff;fill-opacity:1;fill-rule:nonzero;stroke:none" transform="translate(170.672 161.215)"/><path d="m0 0 2.124-51.07h-5.691L-4.988 3.765Z" style="fill:#fff;fill-opacity:1;fill-rule:nonzero;stroke:none" transform="translate(149.409 212.285)"/><path d="M0 0c1.547-2.69 4.35-4.814 6.618-6.827-1.37 2.658-2.203 5.682-2.365 8.897C3.326 1.461 1.2.535 0 0" style="fill:#fff;fill-opacity:1;fill-rule:nonzero;stroke:none" transform="translate(112.988 86.233)"/><path d="m0 0 2.706 1.112-5.254 6.691S-.958 1.273 0 0" style="fill:#fff;fill-opacity:1;fill-rule:nonzero;stroke:none" transform="translate(105.345 97.122)"/><path d="M0 0c2.271 2.013 5.072 4.137 6.618 6.827-1.197.535-3.326 1.461-4.254 2.07C2.203 5.683 1.372 2.658 0 0" style="fill:#fff;fill-opacity:1;fill-rule:nonzero;stroke:none" transform="translate(154.97 79.406)"/><path d="M0 0c-4.859.007-7.262 2.395-9.252 6.057-2.855 1.624-6.363 3.75-7.784 4.967C-15.748 2.358-8.609-4.269-.015-4.286v-.005L0-4.286l.014-.005v.005c8.595.017 15.737 6.644 17.018 15.31-1.417-1.217-4.926-3.343-7.78-4.967C7.262 2.395 4.859.007 0 0" style="fill:#fff;fill-opacity:1;fill-rule:nonzero;stroke:none" transform="translate(137.289 75.606)"/><path d="m0 0 2.704-1.112C3.662.161 5.251 6.69 5.251 6.69Z" style="fill:#fff;fill-opacity:1;fill-rule:nonzero;stroke:none" transform="translate(166.527 98.234)"/></g></svg>