<svg xmlns="http://www.w3.org/2000/svg" xml:space="preserve" width="698.54559" height="700" viewBox="0 0 698.54558 700"><path d="m0 0-.174-4.118s.6-.684-.687-.684h-19.702s-3.695 0-4.726-3.691c-1.036-3.69-10.06-43.491-10.06-43.491s4.036-3.52 11.091-2.404c0 0 .167-.086.342.947.174 1.026 3.87 24.359 4.556 28.133.693 3.777 1.81 10.811 2.067 11.667.435.516.435.43.952.43.517 0 7.049-.082 7.049-.082s.259.168.259-.431c0-.603-3.617-34.486-3.617-34.486s-.169-.689.261-.515c.427.173 6.622 2.919 10.754 2.919 0 0 .34.084.429.854.085.775 1.121 31.139 1.121 31.139s-.089.52.598.52h6.801s.683.082.683-.775c0-.858.949-31.394.949-31.394s0-.26.515-.344c.522-.086 8.344-1.632 10.063-3.007l.602-.168-2.929 35.598 7.404.09s.431.255.601-.52c.173-.768 6.022-40.317 6.022-40.317s-.087-.426.598-.685c.691-.259 7.407-.601 10.497 2.145l.087.599-9.29 42.981s-.085 4.113-6.279 4.2c-6.195.088-18.754 0-18.754 0l-.342 8.148s-.262.347-.606.347c-.338 0-6.622.082-6.622.082s-.342.088-.342-.429C.171 2.745 0 0 0 0" style="fill:#1e298b;fill-opacity:1;fill-rule:nonzero;stroke:none" transform="matrix(4.18738 0 0 -4.18738 334.982 163.922)"/><path d="M0 0s-9.046 14.487-25.221 13.115c-16.166-1.376-18.063-14.238-34.92-6.008-17.378 8.409-22.024 7.722-33.897 4.289-8.43-2.401-14.795-12.179-28.554-2.915-9.806 5.663-16.517 5.833-20.992 5.663-4.47-.172-7.745-1.687-10.44-3.174-5.597-3.077-9.023-7.618-9.023-7.618s4.899-32.305 33.68-52.194c29.693-20.524 64.682-19.511 92.198-2.79C-12.806-36.817-3.155-14.057-.024-.108m-113.965-20.404c12.898-.364 18.907 2.536 27.696 7.543 7.223 4.122 12.214-1.882 17.373-4.285 19.445-8.237 36.479 0 36.479 0S-48.7-41.929-80.099-41.789c-35.589.154-50.581 25.221-50.581 25.221 6.534-3.362 16.691-3.944 16.691-3.944m-24.428 18.528s.857.174 2.064 0c1.199-.173 5.332-2.921 5.332-2.921 4.468-3.427 19.267-9.09 32.342-3.427 19.786 12.006 25.807 4.807 31.656 1.199 17.893-8.23 29.591-2.221 35.264 1.547 5.679 3.776 6.716 2.916 6.716 2.916l.514-.348c-.514-2.225-2.412-5.487-2.412-5.487-21.159-13.726-38.706-5.83-44.898-1.37-6.193 4.457-14.285 3.604-18.068.521-24.773-15.957-46.108 1.707-46.108 1.707zM-22.18 3.142c-2.064-.513-6.482-.667-10.609-2.897-7.57-5.488-13.755-6.177-21.16-5.831-7.735.357-12.213 4.978-17.89 7.376-5.68 2.404-11.868 1.884-16.003.857-4.129-1.03-10.665-5.485-16.172-7.201-5.503-1.717-15.313-1.549-23.222 3.6-7.918 5.148-13.079 4.689-13.079 4.689-.344.344-1.033 5.089-1.033 5.089h2.756c6.539 0 11.527-4.463 16-6.688 8.943-4.12 14.277-2.573 19.783-.863 5.502 1.716 8.771 6.182 19.269 7.034 10.492.861 17.72-4.113 23.399-7.034C-54.466-1.639-45.515-1.81-38.468 2.3c6.709 5.494 17.416 5.869 17.416 5.869m-80.467-41.975s-.472-.133-.472-.302c0-.173.044-.387.044-.387v-2.185s-.044-.557.301-.472c.348.086 10.707 2.484 10.707 2.484s5.478 1.915 6.193-4.544c.023-.197.13-.218.13-.218h6.111s.211.173.211.344c0 .169.478 5.751 6.497 4.503 6.021-1.241 10.451-2.528 10.451-2.528v3.172l-9.208 2.32s-7.523 3.137-10.966-5.579c0 0-2.21 7.924-10.192 5.877-8.045-2.059-9.807-2.485-9.807-2.485m31.443 10.227s-.026.178-.026.364c0 .195.085.576.18 1.004 0 .381.534.526.534.526h3.367c.155 0 .181.184.181.184v1.008c0 .212-.237.24-.237.24s-4.299.021-4.686 0c-.388-.028-.388-.45-.388-.45s-.716-4.033-.735-4.293c-.023-.257.218-.298.218-.298h1.374c1.916 1.35 2.903-.218 2.903-.218.842-1.156.041-2.552-1.179-2.76-1.216-.21-1.787.662-1.936 1.032-.048.167-.216.249-.216.249h-1.332a.338.338 0 0 1-.283-.169c1.037-3.861 6.923-3.392 7.12.769-.345 4.334-4.859 2.812-4.859 2.812m-3.98-3.881c.106 0 .194.088.194.195v1.072a.193.193 0 0 1-.194.189h-.877l-.218.091-.082.232v5.272a.199.199 0 0 1-.202.195h-1.327c-.042 0-.068-.014-.096-.026a.197.197 0 0 1-.23-.052l-3.441-4.426a3.055 3.055 0 0 1-.354-.498 2.342 2.342 0 0 1-.205-.275c-.212-.342-.131-.554-.131-.554l.014-.015a.192.192 0 0 1-.057-.133v-1.072c0-.107.091-.195.194-.195h4.112V-29.326c0-.111.085-.189.194-.189h1.327c.108 0 .202.078.202.189v1.518l.122.22.238.128zm-2.9 1.67-.07-.15-.127-.064-2.392-.091-.124.091.014.201c.082.118.262.34.33.492l1.955 2.415.217.109.197-.131zm-.11-1.759-.304.089.414-.319zm-6.128 2.532c.26 5.749-3.919 5.238-3.919 5.238a3.314 3.314 0 0 1-3.312-3.306 3.32 3.32 0 0 1 5.154-2.752c.001-.033.011-.07.011-.124.043-.516-.043-1.071-.601-1.627-1.507-1.59-2.884.385-2.884.385h-1.591c.261-1.415 1.766-2.701 4.341-2.273 2.583.43 2.801 4.459 2.801 4.459m-1.845 1.887c0-1.018-.83-1.849-1.857-1.849a1.854 1.854 0 0 0-1.855 1.849 1.855 1.855 0 0 0 3.712 0m-7.657-.708.063 2.598-.063 1.068H-94.185a.189.189 0 0 1-.194-.187v-.112c-.087-.166-.301-1.195-1.934-1.195-.558-.084-.518-.603-.518-.603s-.04-.649.305-.649h1.76s.217-.122.217-.684v-5.317h.17v-.281c0-.099.087-.192.194-.192h1.29c.105 0 .199.093.199.192z" style="fill:#1e298b;fill-opacity:1;fill-rule:nonzero;stroke:none" transform="matrix(4.18738 0 0 -4.18738 690.191 431.12)"/><path d="M0 0s-1.041-5.005-1.133-5.027" style="fill:#1e298b;fill-opacity:1;fill-rule:nonzero;stroke:none" transform="matrix(4.18738 0 0 -4.18738 602.038 396.915)"/><path d="M0 0c.715-1.265.958-2.653 1.952-3.745.259-.29.579-.513.944-.656.204-.045.347.701-.04 1.731C2.531-1.8 1.97-.889 1.551.07 1.097 1.111.701 1.924.207 2.958c-.582 1.222-.964 3.22-2.422 3.676-.179 0-.544.076-.472-.27.281-2.176 1.337-3.258 2.085-4.979z" style="fill:#fff;fill-opacity:1;fill-rule:evenodd;stroke:none" transform="matrix(4.18738 0 0 -4.18738 95.897 477.935)"/><path d="M0 0c.574.247.975-.591 1.137-.936.279-.586.608-1.152.901-1.732.302-.601.532-1.232.764-1.859.871-2.335.363-2.187.377-2.189-.951.235-1.579 1.555-2.155 2.622-.475.879-1.022 1.77-1.187 2.761C-.217-1.034-.394-.191 0 0" style="fill:#fff;fill-opacity:1;fill-rule:evenodd;stroke:none" transform="matrix(4.18738 0 0 -4.18738 100.354 453.91)"/><path d="M0 0c.536-.335 2.175-1.304 2.689-2.106.352-.545.964-1.076.268-2.098-.58-.654-3.47 2.742-5.919 3.414 0 0-.288.138-.432-.105l-4.41-8.039c-.464-.842-.87-2.149-2.037-2.322-1.424.28 1.536 4.367 2.575 6.264.566 1.035 1.06 2.106 1.612 3.151.678 1.281 1.157 1.64 1.688 3.104 0 0-.141.873.572 1.045.651.165 1.292-.915 1.756-1.241A33.288 33.288 0 0 1 0 0" style="fill:#fff;fill-opacity:1;fill-rule:evenodd;stroke:none" transform="matrix(4.18738 0 0 -4.18738 617.29 464.428)"/><path d="M0 0c-1.879-1.014-4.196 3.363-2.692 4.727C-.506 5.641 1.112.72 0 0m-.064-2.114c.061.004.117.01.174.016.521.068 1.193.339 1.526.744.323.398.367.93.373 1.419a9.183 9.183 0 0 1-.413 2.895c-.065.199-.147.411-.199.615C1.078 4.823-.54 6.041-.54 6.041c-.635.442-2.033 1.111-3.229.524-.629-.31-1.005-1.53-1.074-2.363-.094-1.162.357-2.263.899-3.276a7.722 7.722 0 0 1 2.223-2.573c.454-.338 1.081-.502 1.657-.467" style="fill:#fff;fill-opacity:1;fill-rule:evenodd;stroke:none" transform="matrix(4.18738 0 0 -4.18738 86.62 490.844)"/><path d="M0 0c-2.728-3.47-4.996-7.983-6.947-12.342-.614-1.374-.921-3.005-2.468-3.678-.951-.288.017 3.528.69 4.509-1.462 1.115-5.808 2.088-3.991 4.141 0 0 .677.868 1.638.107 0 0 .854-.977 1.139-1.185.286-.205 1.108-.617 2.408-1.008.479-.142 1.383 1.874 1.226 2.193-.533 1.072-4.017 1.609-4.727 3.061 0 0-.297 1.664 1.449 1.594 0 0 .858-.175 1.568-.973 0 0 1.817-1.53 2.637-1.413 0 0 .25.164.497.682 0 0 3.922 6.811 3.861 7.268 0 0 .08.281.221.107L.035.21Z" style="fill:#fff;fill-opacity:1;fill-rule:evenodd;stroke:none" transform="matrix(4.18738 0 0 -4.18738 655.582 475.452)"/><path d="M0 0c-.036-.494.49-1.105.725-1.508.349-.605.63-1.234.878-1.887.285-.738.627-1.433.954-2.153.809-1.763 1.859-3.538 2.422-5.516-2.186-.126-2.136 1.396-2.96 3.412C1.007-5.168.083-3.004-1.21-.821c-.291.492-1.684.543-1.346 1.839 1.336 1.094 5.572 3.238 5.385.79C2.777 1.147 2.26.898 1.67.742 1.369.66 1.082.563.771.501.464.441.043.378 0 0" style="fill:#fff;fill-opacity:1;fill-rule:evenodd;stroke:none" transform="matrix(4.18738 0 0 -4.18738 51.124 485.21)"/><path d="M0 0c-1.063-.465-2.894-.677-3.48-1.792-.537-1.021.972-1.112 1.604-.963.879.202 1.642.733 2.457 1.087.484.209 1.044.354 1.574.354.594-.556.4-1.882 1.344-2.099 1.557.292-.414 2.099.035 3.006.034.065 1.015.435 1.146.479.376.136.745.287 1.113.438.359.152.719.317 1.088.461.362.146 1.534.379 1.403.985 0 0 .071 1.156-.759 1.045 0 0-.759-.052-2.09-.623C5.435 2.378.003 0 0 0" style="fill:#fff;fill-opacity:1;fill-rule:evenodd;stroke:none" transform="matrix(4.18738 0 0 -4.18738 94.498 508.44)"/><path d="M0 0c-.839.757-1.511 1.596-2.421 2.367-.767.651-1.748 1.609-2.96 1.576 0 0-.77-.179-.321-.897l5.89-5.029s.091-.021.081-.114C.25-2.281-.25-2.599-.376-2.72c-.638-.584-1.091-1.125-.969-2.009.103-.49.806-.521.806-.521s1.058.223 2.389 1.714l2.454-2.763C5.633-7.857 6.41-9.705 8.34-7.879c-.828.684-1.623 1.091-2.42 2.103 1.068.096 1.969.769 2.69 1.312.666.508 1.53 1.285 1.881 2.105.193 1.022-1.02 1.116-1.02 1.116l-3.013 2.82C5.426 2.657 2.715 5.56 1.346 6.041c0 0-.874.321-1.087-.121 0 0-.379-.208 0-.718C.639 4.691 6.19-.264 6.19-.264c.642-.641 1.707-1.069 1.882-2.095-1.128-.828-1.711-1.577-3.374-2.198 0 0-2.612 2.664-4.51 4.357z" style="fill:#fff;fill-opacity:1;fill-rule:evenodd;stroke:none" transform="matrix(4.18738 0 0 -4.18738 141.827 557.94)"/><path d="M0 0c.929.223 1.617 2.053 2.692 1.311C3.208.36 1.522-.242.998-1.121c.524-1.417 2.828-2.02 1.962-3.345C1.639-5.574.032-3.351-1.352-2.003-2.571-.814-4.923.924-4.843 1.837c.083.907.56 1.333 1.568 1.261C-2.217 3.018-.806.36 0 0" style="fill:#fff;fill-opacity:1;fill-rule:evenodd;stroke:none" transform="matrix(4.18738 0 0 -4.18738 559.816 545.824)"/><path d="M0 0c-1.933 2.933-4.989 4.764-7.264 7.361-.313.387-.313.663 0 1.05 0 0 .336.452 1.143-.362l6.39-6.204C.972 1.183 2.16.798 2.421-.262l-.137-.306C1.029-2.4-.969-3.635-.969-3.635s-1.232-.385-1.163.584c0 0-.118.486.311 1.019z" style="fill:#fff;fill-opacity:1;fill-rule:evenodd;stroke:none" transform="matrix(4.18738 0 0 -4.18738 144.08 597.545)"/><path d="M0 0c1.321-.779 2.533-3.285 4.035-2.359.54.399.243 1.02.243 1.02C3.32-.121.809 2.633.809 2.633s-.625.656-1.089.273c0 0-.5-.207-.855-1.389l-4.782-4.401c-.624-.595-1.541-1.39-2.156-2.106-.697-.802-1.861-1.524-1.077-2.888 0 0 .25-.171.608.144L-.495-.226S-.149.091 0 0" style="fill:#fff;fill-opacity:1;fill-rule:evenodd;stroke:none" transform="matrix(4.18738 0 0 -4.18738 577.85 577.744)"/><path d="M0 0c1.54-4.795 3.426-9.294 4.719-13.821.208-.72.642-1.354.263-2.102-1.01-.849-1.651.763-1.898 1.25C1.959-12.478 1.309-9.642.408-7.517c-.693-.162-1.3-.513-2.083-.67.698-3.147 3.12-6.624 2.083-8-.802-.589-1.333.63-1.333.63L-5.242-4.102c-.226.867-1.017 1.676 0 2.366 1.593.678 1.706-1.129 2.153-2.366.435-1.215.562-2.094 1.007-2.902.603.288 1.418.446 1.953.8C-.535-4.009-2.775-.974-1.472.361-1.472.361-.427.96 0 0" style="fill:#fff;fill-opacity:1;fill-rule:evenodd;stroke:none" transform="matrix(4.18738 0 0 -4.18738 474.735 592.445)"/><path d="M0 0c.092.855-1.094 1.164-1.886 1.575-1.31.684-3.463 1.625-4.037.784 0 0-.187-.526.837-.899 0 0 3.773-1.458 4.343-1.644 0 0 .698-.215.743.184" style="fill:#fff;fill-opacity:1;fill-rule:evenodd;stroke:none" transform="matrix(4.18738 0 0 -4.18738 240.978 607.424)"/><path d="M0 0c-2.541.452-1.466 5.669 1.883 3.937C3.548 2.882 1.792-.319 0 0m4.4 3.3-.094.279c-.191.695-1.614 1.691-1.614 1.691.023.858-.737.951-.737.951-.57.184-.901-.484-.901-.484-.645.253-1.864.039-1.864.039-.506-.142-1.201-.42-1.61-.79C-3.74 3.824-3.922 1.376-2.961 0c.412-.584 2.519-1.824 4.305-1.575C3.624-1.265 5.067.798 4.4 3.3" style="fill:#fff;fill-opacity:1;fill-rule:evenodd;stroke:none" transform="matrix(4.18738 0 0 -4.18738 215.063 641.516)"/><path d="M0 0s.566-.429 0-.79C-2-.811-3.069.065-4.575.524c0 0-3.79 1.527-4.057 1.771 0 0-1.306.602-.95 1.189 0 0 .141.413.618.231 0 0 3.534-1.184 7.62-2.948C-1.344.767-.556.415 0 0" style="fill:#fff;fill-opacity:1;fill-rule:evenodd;stroke:none" transform="matrix(4.18738 0 0 -4.18738 245.479 617.328)"/><path d="M0 0c.247-.636 1.084-.695 1.884-.792l1.205 2.945S3.925 4.94 4.842 4.99c2.128-.422.738-2.495.269-3.679-1.253-3.177-2.33-5.861-3.494-8.93-.564-1.475-1.055-4.312-2.689-3.678-1.322.69 1.824 5.907 2.419 8.932-.377.421-1.129.614-1.818.727-.405.069-1.024-2.188-1.106-2.46-.35-1.164-.645-2.431-1.178-3.531-.421-.866-1.03-1.621-1.991-.893-.499.352.736 3.305 1.319 4.939.583 1.644 1.257 3.379 1.854 5.216l.227.73C-.768 3.89.061 6.985 1.884 4.99c0 0 .103-.158-.076-.611C1.808 4.379.224.247 0 0" style="fill:#fff;fill-opacity:1;fill-rule:evenodd;stroke:none" transform="matrix(4.18738 0 0 -4.18738 253.363 628.32)"/><path d="M0 0c-2.665-.693-4.233-1.53-7.262-2.367-.114-.019-.157.059-.157.059-.018.105-2.175 6.278-2.175 6.278-.053.185.176.232.176.232.68.282 1.671.513 2.422.784 1.428.529 1.963.636 1.885 1.315-.487.853-1.715.372-2.961 0-1.319-.392-3.629-1.151-4.303-2.099 0 0-.263-.827.788-1.015 0 0 1.317-3.09 1.36-3.187l1.22-3.092s-.907-1.312.127-1.635c1.017-.211 1.613.7 2.422 1.047 1.909.815 3.732.99 5.802 1.752 0 0 .125.071.198.318L.006-.189S.117.065 0 0" style="fill:#fff;fill-opacity:1;fill-rule:evenodd;stroke:none" transform="matrix(4.18738 0 0 -4.18738 462.93 641.516)"/><path d="M0 0v-2.684c1.107-.356 3.007.226 2.957-.847C2.866-4.665.728-3.94.012-4.152.012-4.764 0-5.628 0-6.24c1.128-.161 3.575.351 2.957-1.229C2.438-8.063.986-7.644 0-7.731c-.152-.5.187-2.804-1.076-2.887-1.521.046-1.076 2.952-1.076 4.727v5.776s.05.994 1.004.971C-1.148.856.087.901 0 0" style="fill:#fff;fill-opacity:1;fill-rule:evenodd;stroke:none" transform="matrix(4.18738 0 0 -4.18738 377.31 619.054)"/><path d="M0 0c-1.198 1.335-.32 4.048 1.612 4.474 1.788.386 3.775-.728 4.039-1.847C6.375-.422 2.412-2.121 0 0m-2.423 3.419C-3.457.245-1.156-1.965.806-2.357c4.215-.848 7.371 1.561 6.997 4.724C7.6 4.105 6.688 5.136 4.43 5.691l-.736.143c-.023.72-.856.812-.856.812-.688-.023-.829-.79-.829-.79s-3.444.414-4.346-2.18z" style="fill:#fff;fill-opacity:1;fill-rule:evenodd;stroke:none" transform="matrix(4.18738 0 0 -4.18738 323.221 644.84)"/><path d="M0 0c-.08.928.864 1.292 1.618 1.576C2.963 2.08 10.262 2.54 9.956 0 9.714-2.021.209-2.367 0 0m6.348 3.415c-.166.311-.501 1.071-1.503.792a1.361 1.361 0 0 1-.809-.792C1.48 3.369-1.941 2.483-2.151.524-2.671-4.291 11.784-3.914 12.11 0c.238 2.878-2.825 3.075-5.762 3.415" style="fill:#fff;fill-opacity:1;fill-rule:evenodd;stroke:none" transform="matrix(4.18738 0 0 -4.18738 327.72 678.924)"/><path d="M0 0c1.016 1.056 2.291 1.71 3.057 2.973.197.323.316.691.337 1.069-.008.208-.786.109-1.671-.563C.977 2.907.262 2.106-.542 1.42A69.175 69.175 0 0 1-2.949-.72c-1.005-.913-2.84-1.878-2.84-3.375.058-.169.093-.529.413-.36 2.029.934 2.764 2.246 4.214 3.476z" style="fill:#fff;fill-opacity:1;fill-rule:evenodd;stroke:none" transform="matrix(4.18738 0 0 -4.18738 526.64 567.53)"/><path d="M0 0c-.416.455.28 1.089.565 1.344.485.435.938.917 1.411 1.37.495.467 1.035.87 1.579 1.283C5.568 5.52 5.578 5.001 5.576 5.014c.067-.953-1.034-1.941-1.897-2.8C2.967 1.498 2.271.719 1.358.251 1.08.115.311-.311 0 0" style="fill:#fff;fill-opacity:1;fill-rule:evenodd;stroke:none" transform="matrix(4.18738 0 0 -4.18738 501.839 570.76)"/><path d="M0 0c1.568-1.428-1.989-4.927-3.783-3.947C-5.344-2.201-1.044.818 0 0m2.081.595a.81.81 0 0 1-.066.154c-.231.467-.701 1.012-1.202 1.19-.485.175-1.019.054-1.497-.087A9.895 9.895 0 0 1-3.375.576c-.172-.12-.356-.264-.538-.373-1.121-.681-1.814-2.557-1.814-2.557-.231-.73-.455-2.233.483-3.157.496-.491 1.799-.468 2.634-.279 1.165.273 2.1 1.03 2.918 1.843a7.655 7.655 0 0 1 1.828 2.861c.188.528.155 1.155-.055 1.681" style="fill:#fff;fill-opacity:1;fill-rule:evenodd;stroke:none" transform="matrix(4.18738 0 0 -4.18738 542.08 572.187)"/><path d="M0 0a.807.807 0 0 0 1.012-.511.776.776 0 0 0-.516-.987.81.81 0 0 0-1.015.504A.787.787 0 0 0 0 0" style="fill:#fff;fill-opacity:1;fill-rule:evenodd;stroke:none" transform="matrix(4.18738 0 0 -4.18738 524.684 569.378)"/><path d="m0 0-.027-1.738-22.013.356.028 1.736 8.985-.146-8.932 3.324.036 2.238 8.985-3.532L.092 5.622.055 3.361-9.646.973l2.207-.856Z" style="fill:#1e298b;fill-opacity:1;fill-rule:nonzero;stroke:none" transform="matrix(4.18738 0 0 -4.18738 92.29 354.747)"/><path d="M0 0c1.056.245 1.626.661 1.71 1.245.084.574-.346 1.13-1.29 1.661-1.224.698-3.19 1.242-5.894 1.629-2.724.39-4.781.422-6.171.099-1.057-.245-1.626-.657-1.709-1.233-.084-.584.348-1.141 1.291-1.674C-10.82 1.033-8.837.492-6.112.101-3.407-.285-1.369-.32 0 0m-15.697 1.311c-1.161.854-1.679 1.737-1.547 2.646.129.903.872 1.599 2.229 2.099 2.097.765 5.359.83 9.787.197 4.392-.629 7.485-1.605 9.282-2.928C5.233 2.457 5.759 1.578 5.63.683 5.5-.218 4.745-.919 3.37-1.421c-2.096-.759-5.339-.825-9.73-.196-4.43.634-7.541 1.609-9.337 2.928" style="fill:#1e298b;fill-opacity:1;fill-rule:nonzero;stroke:none" transform="matrix(4.18738 0 0 -4.18738 73.657 316.391)"/><path d="M0 0c.123.44-.014.825-.406 1.155-.41.34-1.138.656-2.183.947-.759.212-1.39.311-1.899.301-.686-.021-1.089-.242-1.207-.672l-.59-2.103L-.55-1.969zm-10.399-1.008 1.143 4.081c.256.919 1.213 1.385 2.869 1.402 1.168.007 2.447-.183 3.836-.569 1.19-.33 2.204-.731 3.046-1.198.874-.486 1.429-.97 1.664-1.451a3.327 3.327 0 0 0 1.696.333c.827-.034 2.16-.305 3.999-.816 1.658-.462 2.7-.737 3.12-.825.572-.114.964-.104 1.175.025l.54-.149-.523-1.873c-.559.088-1.138.203-1.739.347a66.4 66.4 0 0 0-2.581.674c-1.605.446-2.66.671-3.164.675-.659.01-1.068-.273-1.228-.848l-.49-1.746 8.305-2.311-.462-1.65z" style="fill:#1e298b;fill-opacity:1;fill-rule:nonzero;stroke:none" transform="matrix(4.18738 0 0 -4.18738 52.766 265.617)"/><path d="m0 0-1.688-4.079 4.309-1.773 1.545 3.736L7.722-3.58 6.177-7.314l5.296-2.181 1.757 4.252 3.583-1.474-2.415-5.834-20.349 8.372 2.342 5.664z" style="fill:#1e298b;fill-opacity:1;fill-rule:nonzero;stroke:none" transform="matrix(4.18738 0 0 -4.18738 46.73 211.073)"/><path d="m0 0 1.063 1.896-8.114 3.315-.015-.028Zm6.753-4.995-.899-1.601-17.73 13.359.984 1.755L9.78.4l-.92-1.64L4.618.489 3.072-2.265Z" style="fill:#1e298b;fill-opacity:1;fill-rule:nonzero;stroke:none" transform="matrix(4.18738 0 0 -4.18738 92.234 212.018)"/><path d="m0 0-1.04-1.255-13.185 10.859L-2.037-2.459-3.11-3.755l-14.161 9.679-.022-.024L-4.108-4.959l-1.039-1.254-16.974 13.978 1.633 1.971L-6.681.333l.007.007-11.903 11.702 1.603 1.938z" style="fill:#1e298b;fill-opacity:1;fill-rule:nonzero;stroke:none" transform="matrix(4.18738 0 0 -4.18738 161.832 173.977)"/><path d="m0 0 1.594 1.479-6.703 5.638-.025-.023Zm4.89-6.821L3.543-8.069-9.223 10.069l1.476 1.37L9.43-2.611 8.051-3.892 4.546-.947 2.228-3.096Z" style="fill:#1e298b;fill-opacity:1;fill-rule:nonzero;stroke:none" transform="matrix(4.18738 0 0 -4.18738 147.29 139.88)"/><path d="M0 0c.374.268.509.654.408 1.156-.107.522-.476 1.221-1.113 2.1-.458.636-.891 1.108-1.293 1.416-.549.411-1.004.488-1.365.228L-5.14 3.625l3.48-4.818Zm-8.75 5.689 3.447 2.476c.775.558 1.818.326 3.119-.692C-1.267 6.75-.387 5.807.454 4.64c.723-.999 1.266-1.945 1.629-2.834.379-.923.511-1.645.393-2.169a3.34 3.34 0 0 0 1.534-.796c.623-.539 1.494-1.582 2.61-3.129 1.006-1.393 1.647-2.254 1.924-2.586.374-.445.683-.682.93-.712l.328-.454-1.583-1.137c-.38.415-.76.869-1.138 1.355a68.89 68.89 0 0 0-1.596 2.133C4.513-4.341 3.83-3.507 3.439-3.19c-.509.417-1.006.452-1.492.103L.473-4.148l5.037-6.975-1.395-1.002Z" style="fill:#1e298b;fill-opacity:1;fill-rule:nonzero;stroke:none" transform="matrix(4.18738 0 0 -4.18738 170.572 99.423)"/><path d="m0 0-1.509-.889-11.202 18.897 1.507.89z" style="fill:#1e298b;fill-opacity:1;fill-rule:nonzero;stroke:none" transform="matrix(4.18738 0 0 -4.18738 221.871 127.418)"/><path d="m0 0-1.577-.762-7.889 16.259-2.325-1.122-1.701 3.503 6.231 3.006 1.699-3.503-2.325-1.123z" style="fill:#1e298b;fill-opacity:1;fill-rule:nonzero;stroke:none" transform="matrix(4.18738 0 0 -4.18738 240.823 117.626)"/><path d="m0 0-1.634-.626-7.902 20.491 1.635.626z" style="fill:#1e298b;fill-opacity:1;fill-rule:nonzero;stroke:none" transform="matrix(4.18738 0 0 -4.18738 260.49 109.464)"/><path d="m0 0-1.573-.432-4.544 16.441L-3.082-.847l-1.626-.446-6.023 16.034-.03-.009 4.543-16.44-1.573-.433-5.85 21.165 2.47.679 5.893-15.606.01.005-3.009 16.397 2.427.666z" style="fill:#1e298b;fill-opacity:1;fill-rule:nonzero;stroke:none" transform="matrix(4.18738 0 0 -4.18738 297.056 98.515)"/><path d="m0 0-4.378-.626.664-4.601 4.011.575.549-3.798-4.013-.575.817-5.653 4.563.654.552-3.825-6.264-.9-3.138 21.73 6.081.873z" style="fill:#1e298b;fill-opacity:1;fill-rule:nonzero;stroke:none" transform="matrix(4.18738 0 0 -4.18738 314.787 19.656)"/><path d="M0 0c-.11.32-.271.48-.484.484-.198.004-.357-.153-.48-.466-.14-.352-.213-.836-.224-1.452-.008-.431.03-.879.116-1.347.086-.47.229-.994.429-1.576.251.444.437.859.562 1.25.164.5.25 1.041.261 1.618C.192-.836.131-.339 0 0m-1.232-8.911c-.408-.72-.675-1.266-.798-1.637-.164-.521-.252-1.191-.269-2.012a6.015 6.015 0 0 1 .207-1.796c.211-.788.536-1.187.975-1.195.246-.005.499.168.754.517.202.277.391.628.568 1.054zm4.709-9.837-1.96.038-.524 1.914c-.326-.74-.644-1.294-.95-1.661-.427-.498-.924-.739-1.493-.73-.774.016-1.394.671-1.858 1.97-.444 1.202-.65 2.662-.617 4.38.024 1.249.135 2.313.333 3.186a9.576 9.576 0 0 0 1.399 3.195l.171.276a14.95 14.95 0 0 0-.479 1.996 16.014 16.014 0 0 0-.188 2.751c.03 1.567.262 2.832.696 3.794.428.926.97 1.381 1.626 1.37.518-.009.963-.428 1.335-1.256.434-.981.634-2.321.6-4.018-.025-1.362-.23-2.582-.615-3.658A8.864 8.864 0 0 0 .12-6.892L.109-6.92l1.11-3.858c.112.539.206 1.05.281 1.535.085.633.148 1.313.192 2.041l1.445-.027c-.077-1.381-.202-2.592-.376-3.634-.156-.93-.39-1.918-.701-2.957Z" style="fill:#1e298b;fill-opacity:1;fill-rule:nonzero;stroke:none" transform="matrix(4.18738 0 0 -4.18738 355.197 15.624)"/><path d="M0 0c.185-1.055.547-1.629 1.084-1.722.531-.093 1.063.327 1.595 1.258.696 1.206 1.278 3.151 1.745 5.837.471 2.704.586 4.748.34 6.137-.185 1.055-.542 1.628-1.075 1.72-.536.094-1.072-.326-1.603-1.258C1.394 10.748.812 8.784.341 6.08-.127 3.394-.241 1.369 0 0m1.845 15.597c.843 1.141 1.682 1.642 2.518 1.496.83-.145 1.448-.896 1.853-2.254.627-2.098.556-5.345-.209-9.74-.759-4.36-1.789-7.422-3.088-9.186C2.068-5.246 1.23-5.755.406-5.613c-.831.145-1.448.905-1.859 2.284-.62 2.096-.548 5.325.21 9.684.765 4.395 1.795 7.476 3.088 9.242" style="fill:#1e298b;fill-opacity:1;fill-rule:nonzero;stroke:none" transform="matrix(4.18738 0 0 -4.18738 391.407 76.268)"/><path d="M0 0c.196 1.05.29 1.848.278 2.395-.018.977-.302 1.543-.846 1.699-.485.139-1.024-.213-1.617-1.051-.79-1.134-1.564-3.021-2.323-5.657-.586-2.046-.923-3.748-1.004-5.102-.094-1.546.172-2.409.803-2.591.425-.12.874.12 1.342.723.474.602.947 1.536 1.416 2.8l1.562-.447c-.865-2.356-1.752-4.131-2.656-5.33-.988-1.309-1.925-1.836-2.813-1.582-1.023.293-1.565 1.468-1.625 3.524-.068 2.155.408 5.001 1.425 8.533 1.008 3.501 2.122 6.143 3.343 7.93C-1.561 7.533-.487 8.237.511 7.952c1.005-.288 1.559-1.369 1.664-3.244.077-1.538-.127-3.257-.611-5.156Z" style="fill:#1e298b;fill-opacity:1;fill-rule:nonzero;stroke:none" transform="matrix(4.18738 0 0 -4.18738 444.575 46.737)"/><path d="m0 0-3.781 1.538-1.76-4.305 3.463-1.408-1.452-3.552-3.464 1.407-2.163-5.288 3.942-1.603-1.463-3.579-5.411 2.201 8.31 20.329 5.253-2.136z" style="fill:#1e298b;fill-opacity:1;fill-rule:nonzero;stroke:none" transform="matrix(4.18738 0 0 -4.18738 486.234 47.27)"/><path d="m0 0 1.771-.952L5.04 7.15l-.027.015Zm-4.831-6.852-1.493.805L6.588 11.95l1.639-.882L.207-9.559l-1.533.821L.379-4.5l-2.57 1.383z" style="fill:#1e298b;fill-opacity:1;fill-rule:nonzero;stroke:none" transform="matrix(4.18738 0 0 -4.18738 483.832 91.672)"/><path d="m0 0 1.23-.852-12.571-18.024-1.309.91 6.372 14.611-.024.018-8.948-12.828-1.236.858L-3.917 2.715l1.404-.972-6.264-14.313.008-.006z" style="fill:#1e298b;fill-opacity:1;fill-rule:nonzero;stroke:none" transform="matrix(4.18738 0 0 -4.18738 553.897 67.872)"/><path d="M0 0c-1.94-2.025-3.6-3.347-4.983-3.964-1.309-.589-2.322-.538-3.044.148-.327.312-.502.736-.525 1.275-.056.672.142 1.463.594 2.375.316.63.746 1.304 1.294 2.022a25.37 25.37 0 0 0 1.926 2.23L5.307 14.578l1.199-1.143-9.812-10.248C-4.314 2.133-4.979 1.244-5.302.52c-.316-.68-.319-1.167-.013-1.459.39-.372.929-.379 1.612-.025.639.32 1.44.977 2.396 1.976l9.947 10.39 1.193-1.136z" style="fill:#1e298b;fill-opacity:1;fill-rule:nonzero;stroke:none" transform="matrix(4.18738 0 0 -4.18738 558.56 150.189)"/><path d="m0 0 .96-1.146-16.902-14.068-1.022 1.222L-6.943-1.578l-.022.022-12.026-10.013-.965 1.153L-3.057 3.653l1.095-1.309-9.835-12.152.008-.007z" style="fill:#1e298b;fill-opacity:1;fill-rule:nonzero;stroke:none" transform="matrix(4.18738 0 0 -4.18738 621.61 132.159)"/><path d="m0 0-.934 1.318 17.979 12.669.933-1.317Z" style="fill:#1e298b;fill-opacity:1;fill-rule:nonzero;stroke:none" transform="matrix(4.18738 0 0 -4.18738 561.094 205.033)"/><path d="m0 0 .86-1.427-20.657-9.372-.786 1.306 18.01 13.769.888-1.478-13.888-10.22.004-.009z" style="fill:#1e298b;fill-opacity:1;fill-rule:nonzero;stroke:none" transform="matrix(4.18738 0 0 -4.18738 652.268 176.992)"/><path d="m0 0-1.739 3.687-4.218-1.981 1.594-3.375-3.48-1.633L-9.438.072l-5.182-2.431 1.81-3.84-3.502-1.645-2.489 5.271L1.117 6.775l2.415-5.117z" style="fill:#1e298b;fill-opacity:1;fill-rule:nonzero;stroke:none" transform="matrix(4.18738 0 0 -4.18738 655.646 219.945)"/><path d="M0 0c.139-.399.462-.615.968-.648.525-.031 1.301.128 2.328.482.744.258 1.323.527 1.74.814.557.39.768.78.635 1.167l-.66 1.906-5.626-1.938Zm8.076 6.451 1.28-3.698c.288-.833-.252-1.708-1.615-2.628-.967-.643-2.13-1.2-3.493-1.67-1.167-.401-2.227-.657-3.18-.764-.992-.112-1.715-.054-2.172.181a3.436 3.436 0 0 0-1.225-1.179c-.704-.427-1.959-.952-3.763-1.574-1.628-.56-2.642-.924-3.039-1.089-.536-.227-.855-.448-.96-.661l-.53-.184-.588 1.697c.511.24 1.056.469 1.633.691.664.258 1.5.559 2.509.906 1.575.542 2.572.949 2.993 1.222.55.353.735.792.555 1.312L-4.067.594l-8.148-2.806-.518 1.496z" style="fill:#1e298b;fill-opacity:1;fill-rule:nonzero;stroke:none" transform="matrix(4.18738 0 0 -4.18738 641.125 250.953)"/><path d="M0 0c-.858-.199-1.54-.449-2.046-.749-.781-.458-1.1-.994-.962-1.611.1-.438.354-.75.758-.935.534-.239 1.302-.246 2.308-.02.766.173 1.331.433 1.692.784.252.248.462.635.629 1.164l.395.935c.183.468.333.816.455 1.043.223.373.504.702.843.985.42.348.963.66 1.631.934.756.308 1.691.585 2.804.836 1.643.376 3.08.515 4.31.42 1.719-.137 2.701-.744 2.944-1.819.229-1.016-.429-1.972-1.972-2.87-1.155-.674-2.587-1.207-4.3-1.607l-.336 1.485c.813.224 1.44.461 1.884.712.762.447 1.077.966.944 1.556-.079.346-.328.597-.746.752-.522.186-1.221.179-2.097-.016-.694-.156-1.203-.364-1.53-.622a1.77 1.77 0 0 1-.487-.648L7.098.684l-.9-2.134a3.691 3.691 0 0 0-1.337-1.727c-.858-.619-2.182-1.13-3.972-1.531-2.72-.611-4.767-.637-6.14-.078-.846.342-1.34.832-1.486 1.475-.272 1.214.397 2.287 2.009 3.221 1.135.662 2.599 1.192 4.389 1.595z" style="fill:#1e298b;fill-opacity:1;fill-rule:nonzero;stroke:none" transform="matrix(4.18738 0 0 -4.18738 625.933 280.463)"/><path d="m0 0-.231 1.597 21.787 3.137.232-1.596Z" style="fill:#1e298b;fill-opacity:1;fill-rule:nonzero;stroke:none" transform="matrix(4.18738 0 0 -4.18738 603.918 316.338)"/><path d="m0 0-.111 1.611 18.067 1.248-.165 2.372 3.893.27.442-6.355-3.893-.269-.166 2.372z" style="fill:#1e298b;fill-opacity:1;fill-rule:nonzero;stroke:none" transform="matrix(4.18738 0 0 -4.18738 605.69 335.282)"/><path d="m0 0 .056 1.611L8.36 1.34l13.786 2.281-.062-1.897L12.403.379l9.578-1.826-.061-1.813L8.224-.271Z" style="fill:#1e298b;fill-opacity:1;fill-rule:nonzero;stroke:none" transform="matrix(4.18738 0 0 -4.18738 605.812 362.18)"/></svg>