<svg xmlns="http://www.w3.org/2000/svg" width="525.03851pt" height="525pt" viewBox="0 0 525.03854 524.99999"><path d="M678.29 0C304.352 0 0 304.253 0 678.192s304.351 678.29 678.29 678.29c373.939 0 678.292-304.351 678.292-678.29C1356.582 304.253 1052.228 0 678.29 0Z" style="color:#000;font-style:normal;font-variant:normal;font-weight:400;font-stretch:normal;font-size:medium;font-family:sans-serif;font-variant-ligatures:normal;font-variant-position:normal;font-variant-caps:normal;font-variant-numeric:normal;font-variant-alternates:normal;font-variant-east-asian:normal;font-feature-settings:normal;text-indent:0;text-decoration:none;text-decoration-line:none;text-decoration-style:solid;text-decoration-color:#000;letter-spacing:normal;word-spacing:normal;text-transform:none;writing-mode:lr-tb;direction:ltr;text-orientation:mixed;dominant-baseline:auto;baseline-shift:baseline;text-anchor:start;clip-rule:nonzero;display:inline;overflow:visible;visibility:visible;color-interpolation:sRGB;vector-effect:none;fill:#a8a9ad;fill-opacity:1;fill-rule:nonzero;stroke:none;stroke-width:11.25;stroke-linecap:butt;stroke-linejoin:round;stroke-miterlimit:4;stroke-dasharray:none;stroke-dashoffset:0;stroke-opacity:1;color-rendering:auto;image-rendering:auto;shape-rendering:auto;text-rendering:auto;enable-background:accumulate;stop-color:#000" transform="scale(.38703)"/><path d="M685.295 33.167v69.311h-28.647V48.582h19.432V35.87h-29.546v79.315h38.76V141.63h10.217V76.526h8.313v65.104h10.216V33.167h-10.216v30.749h-8.313V33.167Zm-94.76 4.236-10.117 1.805.192 1.044-.192.037 10.216 55.789 10.016-1.804-.187-1.048.187-.034-3.736-20.883 8.844-1.572-.193-1.046.193-.036-2.103-11.419-9.013 1.704zm193.565.134-1.402 7.71-17.628-3.304-1.904 10.015.182.035-.182.948 12.122 2.29c-8.084 2.479-14.256 9.77-16.178 20.305a33.634 33.634 0 0 0-.63 7.02c-.166 12.044 6.747 21.201 18.057 23.36 13.221 2.504 24.139-6.01 26.943-20.933.453-2.394.646-4.713.602-6.932.107-7.938-2.816-14.66-8.124-18.912l12.78 2.415 1.905-10.015-.18-.034.18-.949-17.855-3.373 1.228-6.762-.173-.034.173-.949zm-213.91 5.901-10.415 1.902.176.958-.176.032 2.312 12.667-21.643 3.97-2.405-13.722-10.417 1.906.192 1.055-.192.035 9.215 50.78 42.567-7.812-.174-.958.174-.032zm250.29 3.748-12.721 67.11.181.034-.181.956 10.116 1.902 5.709-30.348 9.815 1.804 2.204-11.518-.184-.034.184-.96-9.518-1.866 4.51-24.085-.18-.034.18-.959zM474.21 64.35l-9.715 3.706.33.867-.33.123 26.04 68.307 9.716-3.605-.33-.867.33-.123-10.757-28.297 8.153-3.165-.365-.948.365-.142-4.207-10.816-8.514 3.205zm307.956 1.614a10.25 10.25 0 0 1 1.883.187c5.752 1.1 9.631 6.705 9.798 13.307-.03.885-.115 1.782-.283 2.688-1.602 8.113-8.214 13.621-15.024 12.32-5.668-1.1-9.533-6.706-9.698-13.307.03-.885.115-1.783.283-2.688 1.362-7.262 7.002-12.549 13.041-12.507zM884 69.135l-4.307 10.818.341.133-.341.857 46.54 18.098-22.703 58.434.334.132-.334.858 9.415 3.706 27.344-70.211-.335-.13.335-.86zm-319.717 1.834 2.628 14.166-21.658 3.974-2.518-14.267zm-126.791 5.209-9.415 3.507.36.943-.36.138 2.744 7.17-16.467 6.37.329.858-.329.124 3.607 9.516 13.79-5.255c-4.538 4.211-6.93 10.15-6.78 16.818-.061 3.525.594 7.273 2.032 11.09 5.309 13.921 17.628 20.03 30.047 15.323 9.376-3.572 14.491-11.568 14.326-21.11.084-3.603-.598-7.448-2.106-11.373-4.065-10.586-12.127-16.758-21.347-16.912l13.406-5.108-.349-.947.35-.134-3.506-9.515-17.328 6.61zm164.143 21.21-57.094 10.417.189 1.046-.189.035 7.913 43.77 58.292-10.617-.176-.95.176-.032-2.002-10.816-47.876 8.713-.927-5.06 46.6-8.481-.18-.95.18-.032-2.003-10.518-46.774 8.514-.827-4.96 46.7-8.58-.2-1.045.2-.037zm278.538 4.751-19.23 49.478-13.321-5.108-4.207 10.818.364.142-.364.948 66.706 25.841 4.207-10.917-.333-.128.333-.862-24.608-9.487 18.798-48.618-.331-.132.331-.857-9.315-3.706-19.23 49.478-9.182-3.577 18.797-48.617-.366-.14.366-.95zm-433.55 2.57c5.405-.057 10.872 3.96 13.232 10.227a17.41 17.41 0 0 1 1.186 5.63c-.128 5.319-2.869 9.987-7.496 11.767-6.41 2.503-14.023-1.804-17.027-9.516a18.088 18.088 0 0 1-1.081-5.539c.122-5.413 2.819-10.133 7.49-11.858a10.414 10.414 0 0 1 3.695-.712zm308.161 4.479-2.103 11.417.177.034-.177.962 51.786 9.78-4.21 22.776.179.033-.179.965 10.115 1.901 6.61-35.055-.198-.038.199-1.056zm-302.037 37.458-9.617 3.706.359.94-.36.142 13.022 34.055 57.391-21.935-.366-.942.366-.14-4.207-10.818-47.675 18.129zm-72.919 3.46c-8.313 0-14.924 6.71-14.924 14.923 0 .172.008.343.014.513-.006.17-.014.342-.014.514 0 8.213 6.611 14.924 14.924 14.924 8.213 0 14.924-6.71 14.924-14.924 0-.172-.007-.343-.013-.514.006-.17.013-.34.013-.513 0-8.213-6.71-14.924-14.924-14.924zm599.591 4.163c-2.397.01-4.827.594-7.08 1.815-5.088 2.826-7.918 8.245-7.71 13.688-.085 2.612.507 5.265 1.9 7.678 3.906 7.211 13.02 9.814 20.232 5.808a14.978 14.978 0 0 0 7.71-13.638 14.57 14.57 0 0 0-1.902-7.727c-2.754-4.889-7.874-7.647-13.15-7.624zm-677.462 4.911-11.62 9.114.481.617-.48.374 29.867 38.343-9.635 7.44-30.448-38.962-11.618 9.115.482.618-.482.373 61.698 79.125 11.717-9.014-.483-.618.483-.372-23.154-29.631 9.734-7.54 23.537 30.248 11.619-9.115-.482-.616.482-.374zm755.498 2.54-21.635 28.746-52.082 41.366.703.532-.703.56 11.117 8.312 35.002-31.57-20.079 41.796.348.267-.348.725 12.32 9.415 25.54-61.497 21.635-28.846-.524-.391.524-.7zM259.99 192.582l-9.315 8.613.486.633-.486.45 15.54 20.202-8.73 8.163-19.831-17.529-11.017 10.317.606.513-.606.568 77.021 65.104 15.325-14.123-.424-.59.424-.391zm841.372 4.715-58.692 65.103-10.317-9.315-8.414 9.516.491.441-.49.55 31.05 28.044 8.412-9.415-.536-.492.536-.6-9.224-8.368 58.102-64.557-.49-.445.49-.545zm30.519 28.639-71.814 69.911.536.558-.536.523 10.217 10.516 72.013-69.91-.543-.553.543-.529zm-913.288 5.528-8.012 8.915.5.45-.5.558 62.087 55.661-72.403-45.252-13.922 15.525.551.495-.55.614 74.617 67.006 8.013-8.914-.501-.45.5-.559-57.609-51.866 67.225 42.159 14.623-16.326-.5-.45.5-.56zm55.82 1.763 31.965 41.573-39.04-35.06zm880.97 22.445c-5.16-.038-10.444 2.093-15.42 6.271-12.82 9.315-13.523 15.525-13.523 15.525-2.203 3.305-3.805 15.524-3.805 15.524-.902 4.307-2.905 18.13-2.905 18.13-1.202 5.508-4.006 8.513-4.006 8.513-2.404 3.305-6.01 5.51-6.01 5.51-3.605 3.004-6.91 2.002-9.614-1.103-1.002-1.261-1.522-2.578-1.638-3.848.142-1.763 1.057-3.376 2.539-4.54l13.12-10.918-.505-.605.505-.42-9.515-11.419-10.717 9.015c-6.268 5.193-9.758 11.346-9.564 17.846-.141 4.721 1.658 9.645 5.758 14.53 9.215 11.017 21.034 10.716 31.65 1.902 0 0 3.005-2.103 6.31-5.81 0 0 4.909-4.806 6.812-13.52 0 0 3.304-22.937 4.205-27.344 0 0 1.203-8.713 11.82-15.324 3.606-3.004 6.81-2.203 9.414 1.002 1.254 1.504 1.923 2.988 2.056 4.4-.155 1.577-1.017 3.038-2.557 4.288l-15.624 13.021.509.604-.509.423 9.616 11.417 14.222-11.918c6.268-5.193 9.758-11.347 9.564-17.868.14-4.734-1.66-9.681-5.758-14.609-4.896-5.8-10.583-8.63-16.43-8.675zM172.39 284.454l-14.323 19.932c-3.286 4.504-4.648 8.368-4.497 11.924-.254 6.539 4.567 11.97 12.108 18.243 1.102.901 11.218 8.112 11.218 8.112 7.955 5.695 16.473 4.113 22.33-2.137-1.409 2.845-2.011 5.45-1.904 7.898-.238 6.583 4.53 12.006 12.426 17.778 12.52 9.014 22.235 8.211 30.148-2.706l13.822-19.13-.485-.35.485-.67zm1020.016 11.49c-2.003 4.707-8.913 8.514-8.913 8.514l-20.634 14.021c-6.234 4.233-8.577 8.727-8.4 13.314-.123 2.762.71 5.563 2.204 8.366-7.75-8.823-16.313-6.554-27.157.857-8.258 5.677-12.228 11.645-12.006 18.092-.135 3.873 1.264 7.917 4.194 12.174l13.42 19.531 82.833-56.59-.477-.694.477-.327-8.414-12.218-39.262 26.842-3.105-4.808c-.657-1.11-1.017-2.24-1.108-3.366.195-2.992 2.282-5.911 5.915-8.334l17.93-12.319c9.515-6.31 11.117-9.516 11.117-9.516l-.345-.5c.242-.331.345-.52.345-.52zm-1019.415 8.26 28.845 20.773-3.004 3.948c-3.205 3.906-8.313 3.605-13.622-.2 0 0-4.808-2.805-9.215-6.21-5.006-4.06-7.854-7.021-8.133-9.967.118-1.08.583-2.174 1.423-3.336zm-31.448 24.363-6.61 10.818.452.333-.452.748 20.82 15.223-6.197 10.238-23.638-11.518-7.913 13.22.464.206-.464.775 92.146 41.066 10.818-17.829-.444-.348.444-.733zm70.41 3.783 22.935 16.662-3.405 4.452c-3.605 5.108-9.515 2.203-16.426-3.106-5.217-3.862-8.087-6.715-8.38-9.615.113-1.057.562-2.136 1.369-3.285zm939.966 14.894c2.048-.065 3.686.845 5.132 2.905l3.047 4.7-23.48 16.013-3.506-5.309c-.693-1.03-1.06-2.031-1.155-3.014.342-3.604 4.279-6.989 9.568-10.588 4.45-2.93 7.762-4.623 10.394-4.707zm75.564 1.443-11.017 6.108.425.762-.425.236 9.853 17.792-31.688 17.769-10.015-17.929-11.018 6.11.464.835-.464.262 9.593 17.171-21.812 12.28-10.416-18.628-11.019 6.21.425.76-.425.235 17.529 31.45 87.539-49.078-.468-.835.468-.262zM166.381 363.502l41.498 30.51-46.308-22.339zm-57.2 21.343-6.61 13.22.432.217-.432.864 77.934 38.869-5.72 11.532.391.194-.39.788 11.317 5.708 18.73-37.558-.394-.194.395-.788-11.419-5.609-5.91 11.819zm1148.3 20.964-96.453 29.846.426.95-.426.132 5.209 11.518 85.854-29.376-78.643 44.32.384.865-.384.217 6.21 13.922 86.338-52.284-.346-.772.346-.209zM81.969 444.26l-4.006 11.317.315.11-.315.88 78.176 27.183-83.184-13.55-6.81 19.633.335.117-.335.972 94.75 32.852 4.006-11.217-.342-.12.342-.97-72.649-25.18 77.256 12.547 7.212-20.632-.339-.118.339-.972zm1195.035 6.792-94.25 34.455.344.956-.344.126 5.008 13.823 94.35-34.355-.35-.955.35-.128zm11.066 31.228-96.753 26.843.277 1.005-.277.078 3.206 11.518 74.48-20.757-70.574 33.696.243.867-.243.115 5.91 21.034 96.653-26.943-.254-.912.254-.07-3.205-11.519-80.256 22.35 76.049-36.191-.263-.958.263-.125zM63.028 501.048l-3.005 12.22.244.085-.244.996 24.515 8.536-2.88 11.516-25.941-4.006-3.806 14.824.267.033-.267 1.048 100.358 12.22 4.909-20.232-.239-.093.239-.988zm33.753 26.223 48.627 16.964-50.962-7.89zm1196.736 24.528c-2.271-.052-4.674.247-7.172.923l-79.926 13.421.171 1.005-.171.03 2.503 14.722 81.63-13.72c4.708-.802 7.012 1.802 7.713 5.809.079.455.12.88.142 1.29-.22 3.08-2.287 4.716-5.552 5.287l-81.73 13.723.172 1.003-.171.03 2.504 14.724 79.927-13.422c12.122-.892 19.795-8.766 19.574-20.724a29.71 29.71 0 0 0-.443-5.65c-1.954-11.393-9.329-18.224-19.17-18.45zM48.545 563.82l-2.404 14.623.16.026-.16.964 86.181 14.397-2.048 12.657.157.027-.157.964 12.52 2.103 6.812-41.266-.174-.028.174-1.062-12.42-2.002-2.204 13.02zm-6.4 43-1.503 14.623.11.01-.11 1.073 99.858 9.814 1.503-14.723-.108-.01.108-1.072zm1274.66 16.639-12.719.6.06 1.073-.06.003 1.143 20.262-87.48 4.705.054.972-.053.003.8 14.823 100.258-5.309-.06-1.072.06-.003zM57.554 637.843c-12.864.049-21.994 6.883-22.382 21.05a31.4 31.4 0 0 0-.004 1.503c-.183 13.911 8.776 21.457 22.44 21.854l60.896 1.801c13.522.4 23.237-6.41 23.738-21.033a31.5 31.5 0 0 0 0-1.02c.3-14.323-8.715-22.035-22.536-22.336l-60.897-1.803c-.422-.013-.84-.018-1.255-.016zm-.848 15.861 65.805 1.903c4.322.188 6.175 2.756 6.388 6.464-.293 4.404-2.867 6.235-6.89 6.137l-65.703-1.903c-4.37-.186-6.321-2.705-6.498-6.35.253-4.585 2.84-6.35 6.898-6.25zm1261.58 18.268-100.557 9.416-.5 20.833.022.003-.023.988 99.757 15.224.3-12.721-.024-.003.025-1.087-26.009-3.101.367-11.634 26.141-1.703.501-15.225-.032.003zm-39.39 18.621-.27 9.324-50.968-6.064zm-1140.268 2.3L38.57 700.406l.075.985-.075.006.901 11.918 82.147-6.06-81.045 20.494.074.971-.074.02 1.602 20.832 100.06-7.412-.081-1.084.08-.008-.9-11.92-76.228 5.565 75.126-18.896-.08-1.07.08-.021zm1078.17 23.807-1.504 11.92.135.015-.135 1.065 76.241 8.947-77.843 4.294-2.603 21.733.127.015-.127 1.068 99.558 11.819 1.502-11.918-.135-.017.135-1.066-82.177-9.65 83.978-4.692 2.405-20.734-.112-.013.112-.969zM144.474 755.525 43.617 759.63l.166.983-.166.008 2.104 12.52 26.24-1.902 1.851 11.57-25.288 6.571.173 1.044-.173.046 2.502 15.024 96.854-28.345-.171-1.04.171-.05zm-8.842 11.208-49.248 12.829-1.614-9.239zm1086.146 10.723c-9.914-.012-17.544 5.343-20.149 16.98-.515 2.31-.731 4.486-.684 6.53-.222 10.848 6.936 18.05 18.413 20.639l59.494 13.42c13.22 3.005 24.038-1.902 27.243-16.125.541-2.352.77-4.57.723-6.651.23-10.804-6.929-18.037-18.45-20.617l-59.394-13.32c-2.498-.564-4.908-.854-7.196-.856zM150.246 792.353l-97.254 24.338.233.932-.233.059 8.814 35.156 12.32-3.106-.235-.931.234-.059-4.95-19.807 84.678-21.169-.233-.932.233-.058zm1070.231.54a9.789 9.789 0 0 1 2.087.267l64.202 14.423c3.531.768 5.058 2.832 5.219 5.603a12.103 12.103 0 0 1-.211 1.683c-1.102 4.507-3.906 5.91-8.013 5.008l-64.101-14.523c-3.528-.767-5.055-2.828-5.22-5.55.03-.527.098-1.073.211-1.637.895-3.743 2.98-5.304 5.826-5.275zm-23.06 31.94-4.208 14.123.271.08-.271.91 96.152 28.746 4.307-14.123-.278-.083.278-.907zM165.74 846.213 89.92 874.76c-10.264 2.624-16.063 9.887-15.85 19.358-.076 3.113.51 6.483 1.826 10.02 5.008 13.421 16.828 18.33 29.248 12.22l75.92-28.347-.343-.905.342-.127-5.308-14.022-77.523 29.046c-4.407 1.703-7.212-.3-8.614-4.207-.373-.964-.571-1.841-.632-2.647.22-2.305 1.836-3.875 4.439-4.833l77.522-29.047-.337-.907.337-.126zm1025.256.45-14.823 39.261.356.132-.356.944 11.918 4.406 4.708-12.519 82.03 30.749 5.209-13.822-.353-.132.353-.944-81.774-30.515 4.552-11.978-.327-.125.327-.85zm-19.08 48.45-8.814 18.93.357.225-.357.767 85.635 53.584 5.41-11.617-.367-.213.366-.78-22.43-13.085 5.002-10.561 24.74 8.814 6.51-13.922-.404-.13.403-.862zm-986.915 1.834L95.36 941.72l.436.864-.436.218 5.408 10.617 74.512-37.21-67.7 50.05.395.79-.395.292 9.313 18.629 89.742-44.871-.429-.868.43-.215-5.31-10.717-69.196 34.6 62.788-46.437-.363-.715.363-.268zm990.738 13.368 48.627 17.485-3.974 8.578zm-18.977 17.111-6.01 10.417.43.25-.43.74 66.234 38.512-73.545-26.982-10.918 18.829.47.274-.47.816 86.738 50.38 6.009-10.315-.475-.276.475-.814-71.733-41.65 79.646 29.418 10.317-18.029-.467-.272.467-.818zm-944.727 21.466-85.937 51.782.484.791-.484.292 7.713 12.62 85.835-51.783-.478-.792.478-.289zm12.22 20.298-74.72 67.808.427.605-.426.387 12.019 17.027 88.94-47.575-.556-.794.557-.299-7.311-10.315-79.543 45.712 69.426-59.044-.48-.682.48-.41zm894.877 19.875-25.44 33.153.521.401-.521.68 10.015 7.613 8.114-10.516 69.51 53.383 9.014-11.717-.521-.4.521-.683-69.132-52.917 8.035-10.303-.482-.363.482-.618zm-863.96 23.146-76.521 64.903.488.576-.488.413 23.237 27.543 9.615-8.211-.535-.633.535-.457-13.184-15.59 27.607-23.384 13.321 15.724 9.516-8.212-.482-.574.482-.416-12.689-15.188 18.898-16.074 13.721 16.226 9.717-8.113-.491-.579.49-.41zm831.45 17.92-14.024 15.524.44.507-.44.484 66.205 76.22 8.514-9.415-.453-.49.453-.5-17.376-18.84 8.061-8.916 21.034 15.725 10.215-11.317-.603-.423.604-.668zm-1.18 15.415 41.757 31.111-6.424 7.159zm-800.775.966-70.511 71.413.512.502-.512.52 10.516 10.316 33.454-33.853 4.006 4.106c1.193 1.374 1.817 2.905 1.92 4.516-.193 2.562-1.642 5.302-4.224 7.884l-15.224 15.425c-8.213 8.113-9.114 11.518-9.114 11.518l.303.3c-.233.48-.303.72-.303.72l10.816 10.718c1.102-5.008 7.112-10.116 7.112-10.116l17.628-17.728c4.397-4.445 6.121-8.57 5.965-12.42.158-3.398-1.182-6.581-3.473-9.583 9.15 6.56 16.927 2.75 25.954-6.542 5.996-6.052 8.873-11.71 8.677-17.142.168-4.823-2.06-9.46-6.675-14.027zm776.91 17.08c-4.319.077-8.575 2.11-12.869 6.097l-17.227 16.226.509.542-.509.48 68.508 73.215 17.928-16.626c4.96-4.69 6.93-8.973 6.762-13.298.229-5.618-3.271-11.247-8.664-17.871-.902-1.102-9.514-10.217-9.514-10.217-6.525-6.789-14.988-7.052-21.84-2.442 2.367-3.186 3.36-6.258 3.236-9.333.23-5.586-3.317-11.14-9.14-17.371-5.973-6.367-11.628-9.5-17.18-9.402zm-774.806 2.772 4.607 4.607c1.127 1.153 1.7 2.368 1.828 3.643-.26 3.341-3.28 7.07-7.437 11.16-6.91 6.711-10.716 8.714-14.823 4.808l-3.962-4.138zm772.415 13.134c3.517-.033 7.382 3.332 11.558 7.939 3.894 4.32 6.148 7.454 6.385 10.127-.153 1.324-.858 2.549-2.178 3.774l-4.708 4.408-19.311-20.678 4.287-3.84c1.268-1.184 2.59-1.717 3.967-1.73zm-733.003 8.904c-6.5-.12-12.674 3.35-17.788 9.712 0 0-2.603 2.704-5.207 6.81 0 0-3.908 5.81-4.108 14.724l.025.533c-.007.168-.021.33-.025.5 0 0 1.047 22.033 1.093 27.12-.063 2.075-.842 9.552-8.605 16.718-3.004 3.706-6.31 3.406-9.414.902-1.926-1.562-2.924-3.26-3.08-4.98.13-1.248.698-2.496 1.678-3.702l12.82-15.725-.507-.41.507-.623-11.619-9.416-11.618 14.423c-4.27 5.213-6.567 10.746-6.411 16.123-.17 5.834 2.494 11.522 8.615 16.46 11.117 9.015 23.036 7.111 31.75-3.606 10.717-11.618 10.417-17.827 10.417-17.827.74-1.959.89-6.302.87-9.983.016-3.727-.17-7.076-.17-7.076 0-4.35-.541-16.909-.58-17.81.216-5.215 2.182-8.6 2.182-8.6 1.803-3.706 4.909-6.51 4.909-6.51 2.905-3.706 6.41-3.305 9.615-.801 1.608 1.364 2.428 2.988 2.575 4.608-.115 1.354-.689 2.664-1.674 3.772l-10.816 13.222.508.412-.508.62 11.617 9.417 8.814-10.818c4.25-5.237 6.52-10.766 6.364-16.131.168-5.876-2.52-11.592-8.668-16.553-4.516-3.662-9.115-5.423-13.561-5.505zm696.446 4.938-9.615 7.212.478.631-.478.359 47.228 62.435-58.746-54.812-17.429 13.321.475.627-.475.364 60.497 80.128 9.615-7.312-.477-.632.477-.359-50.75-67.155 63.07 58.83 16.526-12.619-.476-.63.476-.36zm64.703 16.442c2.808-.016 5.797 1.555 8.551 4.497 0 0 4.207 3.706 7.812 8.013 3.72 4.379 5.843 7.569 6.078 10.265-.142 1.395-.841 2.673-2.17 3.938l-4.709 4.306-24.111-25.974 3.779-3.252c1.465-1.202 3.085-1.783 4.77-1.793zm-723.216 6.145-57.192 82.43.463.325-.463.666 12.12 8.514 57.19-82.532-.462-.323.463-.668zm18.098 12.656-6.51 10.818.477.289-.478.793 10.984 6.551-44.737 74.296.48.288-.48.796 12.62 7.61 45.072-75.118 11.919 7.212 6.51-10.918-.435-.26.435-.723zm589.654 1.513-17.628 11.017.358.775-.358.221 42.268 91.645 10.817-6.609-.422-.84.422-.257-11.436-22.68 10.434-6.572 15.925 21.034 12.92-8.013-.587-.73.587-.367zm-5.707 13.431L998.295 1186l-8.397 5.095zm-24.94 5.302-13.12 6.712.4.788-.4.202 16.985 33.388-11.178 5.685-17.327-34.255-13.22 6.712.4.79-.4.2 45.57 89.442 13.222-6.71-.402-.787.402-.205-21.993-43.102 11.076-5.585 22.336 43.968 13.12-6.71-.44-.866.44-.225zm-520.566 2.882-13.22 65.303-15.827 32.452.427.207-.427.874 13.423 6.41 15.624-32.45 43.169-50.68-.592-.288.592-.694-12.42-6.11-28.748 38.033 11.92-45.164-.23-.113.23-.868zm458.65 63.321c-7.297-.146-13.677 4.985-15.038 12.337a14.967 14.967 0 0 0-.236 3.195c-.26 7.28 4.966 13.797 12.354 15.166 8.113 1.402 15.926-4.006 17.328-12.12.18-1.04.245-2.076.21-3.094.248-7.335-4.907-13.983-12.329-15.265a15.415 15.415 0 0 0-2.29-.219zm-403.549 1.01a14.888 14.888 0 0 0-9.461 3.51c-3.66 3.079-5.453 7.54-5.288 11.976a14.87 14.87 0 0 0 3.486 10.082c5.309 6.31 14.724 7.112 21.034 1.804 3.613-3.089 5.414-7.567 5.256-12.015.115-3.537-.996-7.124-3.454-10.046a14.881 14.881 0 0 0-11.573-5.311zm67.965 22.315c-12.622 0-15.025 12.72-15.025 20.032 0 .219.006.426.009.64-.002.126-.008.263-.008.387 0 14.222 6.21 16.624 12.52 19.03l4.205 1.602c3.95 1.638 6.783 2.916 6.992 7.56-.202 6.4-4.38 7.94-8.093 7.94-7.212 0-8.313-6.912-8.313-10.518h-7.913c0 .329.011.68.02 1.027h-.02c0 8.012 2.504 21.634 16.826 21.634 3.406 0 15.326-1.602 15.326-21.133 0-.153-.01-.29-.012-.44.002-.197.012-.386.012-.587 0-11.719-4.809-15.323-10.218-17.527l-9.514-3.907c-1.538-.576-3.898-1.624-4.088-6.217.184-5.46 3.768-7.278 6.792-7.278 7.112 0 7.714 6.91 8.013 9.714h7.812c-.005-.33-.021-.68-.037-1.026h.037c-.1-7.913-3.305-20.933-15.324-20.933zm93.385.022c-10.016 0-18.028 11.518-18.028 34.254 0 .172.005.338.006.508 0 .173-.006.34-.006.514 0 22.436 7.51 34.054 17.827 34.054 9.916 0 15.425-9.815 17.028-23.937h-.137c.045-.343.097-.675.137-1.023h-8.113c-1.001 8.013-4.107 12.22-8.614 12.22-6.796 0-9.614-10.173-9.706-21.56.095-18.036 5.733-22.29 9.706-22.29 6.71 0 8.013 7.311 8.614 11.218h8.113c-.014-.334-.046-.68-.07-1.021h.07c-.401-9.616-5.108-22.937-16.827-22.937zm-55.856 1.712V1306.084h7.512v-46.373h.208l15.924 46.373h8.213V1240.092h-7.72v45.172l-15.623-45.173zm78.945 0V1306.084h29.647V1293.577h-21.634v-15.838h19.03V1265.232h-19.03V1252.6h20.733V1240.092zm-94.37.048v65.905h8.113v-65.905zm186.734.595c-7.612 0-13.22 7.412-13.22 23.137 0 .165.01.326.012.49 0 .182-.012.351-.012.536 0 10.817 4.307 20.133 11.719 20.133 2.604 0 5.607-1.103 7.41-5.51l.08.157c-.246 12.635-3.265 16.846-6.389 16.846-2.304 0-4.107-1.804-4.507-6.31h-7.512c.02.35.058.685.088 1.026h-.088c.601 10.216 5.409 16.526 12.02 16.526 6.91 0 13.921-8.112 13.921-32.951 0-.156-.008-.39-.008-.554 0-.16.008-.312.008-.473 0-9.014-.1-33.053-13.522-33.053zm32.583.016c-3.506 0-12.621 1.803-12.621 22.736h.015c-.008.34-.015.67-.015 1.021h7.412c0-4.708.2-12.019 5.509-12.019 3.558 0 5.264 4.523 5.395 8.607-.134 6.946-2.962 10.207-9.803 18.416-8.313 10.116-8.714 18.03-9.014 25.542h.048c-.015.338-.035.682-.048 1.019h26.441v-12.238h-16.447c1.168-2.68 3.804-5.567 8.335-10.898 3.806-4.206 8.013-9.815 8.013-20.833 0-.16-.011-.31-.014-.469 0-.186.014-.362.014-.552 0-13.02-5.809-20.332-13.22-20.332zm-63.391.04c-.1 4.808-2.103 11.118-9.415 11.118h-1.102v9.947h9.115v44.169h7.712v-65.234zm80.698 1.115-.201 11.218h.018l-.018 1.02h18.677c-3.637 6.837-12.414 26.538-13.269 50.862h.047c-.015.34-.035.678-.047 1.02h7.814c1.001-27.643 10.516-46.674 14.222-53.384V1241.905zm-49.99 10.373c3.891 0 5.699 4.259 5.8 11.201-.106 7.212-2.944 10.308-5.5 10.308-2.843 0-5.679-2.035-5.797-11.143.12-8.8 3.627-10.366 5.498-10.366z" style="fill:#fff;stroke-width:100.159" transform="scale(.38703)"/><path d="M678.291 175.59c-277.139 0-502.696 225.458-502.696 502.597 0 277.24 225.557 502.696 502.696 502.696 277.14 0 502.597-225.457 502.597-502.696 0-277.139-225.458-502.596-502.597-502.596z" style="fill:#fff;stroke-width:100.159" transform="scale(.38703)"/><path d="m0 0-7.496-2.009-4.382 16.355 7.497 2.008z" style="fill:#0096b8;fill-opacity:1;fill-rule:nonzero;stroke:none" transform="matrix(10.23834 0 0 -10.25096 416.154 351.048)"/><path d="m0 0-2.008 7.497 16.353 4.381 2.009-7.495z" style="fill:#306b9c;fill-opacity:1;fill-rule:nonzero;stroke:none" transform="matrix(10.23834 0 0 -10.25096 171.969 416.588)"/><path d="m0 0-2.009 7.496 16.354 4.382 2.008-7.496z" style="fill:#e0af75;fill-opacity:1;fill-rule:nonzero;stroke:none" transform="matrix(10.23834 0 0 -10.25096 203.85 228.327)"/><path d="m0 0-7.496-2.007-4.382 16.353 7.496 2.008z" style="fill:#e4615b;fill-opacity:1;fill-rule:nonzero;stroke:none" transform="matrix(10.23834 0 0 -10.25096 228.146 319.164)"/></svg>